<svg xmlns="http://www.w3.org/2000/svg" width="1206.839" height="709.841" viewBox="0 0 1206.839 709.841">
  <g id="Grupo_28755" data-name="Grupo 28755" transform="translate(-11443.797 1333.616)">
    <g id="Grupo_28703" data-name="Grupo 28703" transform="translate(12294.217 -933.644)">
      <rect id="Rectángulo_5588" data-name="Rectángulo 5588" width="3.991" height="15.542" transform="translate(30.938 193.424)" fill="#593e3a"/>
      <ellipse id="Elipse_1390" data-name="Elipse 1390" cx="14.369" cy="15.987" rx="14.369" ry="15.987" transform="translate(18.565 169.74)" fill="#e8d59a"/>
      <path id="Trazado_57505" data-name="Trazado 57505" d="M1754.813,282.916c-6.872,0-12.609-5.371-14.025-12.545a17.047,17.047,0,0,0-3.237,10.1c0,8.829,6.433,15.987,14.369,15.987s14.368-7.158,14.368-15.987a17.76,17.76,0,0,0-.343-3.442A13.834,13.834,0,0,1,1754.813,282.916Z" transform="translate(-1718.986 -94.747)" fill="#e8b769"/>
      <ellipse id="Elipse_1391" data-name="Elipse 1391" cx="11.541" cy="12.841" rx="11.541" ry="12.841" transform="translate(20.993 173.478)" fill="#e8d59a"/>
      <path id="Trazado_57506" data-name="Trazado 57506" d="M1740.678,280.444c0,6.908,5.033,12.508,11.242,12.508s11.242-5.6,11.242-12.508-5.034-12.508-11.242-12.508S1740.678,273.537,1740.678,280.444Z" transform="translate(-1718.986 -94.717)" fill="#6d534d"/>
      <path id="Trazado_57507" data-name="Trazado 57507" d="M1751.92,267.936c-6.209,0-11.243,5.6-11.243,12.508a13.985,13.985,0,0,0,.087,1.486c.209-6.172,4.759-11.107,10.357-11.107,5.732,0,10.378,5.169,10.378,11.546a12.123,12.123,0,0,1-3.373,8.5,12.906,12.906,0,0,0,5.036-10.426C1763.162,273.537,1758.128,267.936,1751.92,267.936Z" transform="translate(-1718.986 -94.717)" fill="#593e3a"/>
      <ellipse id="Elipse_1392" data-name="Elipse 1392" cx="3.526" cy="3.923" rx="3.526" ry="3.923" transform="translate(28.942 182.767)" fill="#593e3a"/>
      <path id="Trazado_57508" data-name="Trazado 57508" d="M1748.959,280.557a2.977,2.977,0,1,0,2.961-3.294A3.141,3.141,0,0,0,1748.959,280.557Z" transform="translate(-1718.986 -94.83)" fill="#e8d59a"/>
      <path id="Trazado_57509" data-name="Trazado 57509" d="M1747.463,282.5v-3.85l-5.058,1.925Z" transform="translate(-1718.986 -94.847)" fill="#e8d59a"/>
      <path id="Trazado_57510" data-name="Trazado 57510" d="M1760.027,299.457h-18.165a15.121,15.121,0,0,0-15.212,15.028h48.589A15.121,15.121,0,0,0,1760.027,299.457Z" transform="translate(-1718.986 -95.098)" fill="#6d534d"/>
      <rect id="Rectángulo_5589" data-name="Rectángulo 5589" width="2.8" height="16.888" transform="translate(334.462 130.145)" fill="#443437"/>
      <path id="Trazado_57511" data-name="Trazado 57511" d="M2049.574,226.872c0,3.24,2.361,5.867,5.274,5.867s5.274-2.627,5.274-5.867-2.361-5.869-5.274-5.869S2049.574,223.631,2049.574,226.872Z" transform="translate(-1718.986 -94.15)" fill="#ffc764"/>
      <rect id="Rectángulo_5590" data-name="Rectángulo 5590" width="8.982" height="9.064" transform="translate(331.371 143.237)" fill="#f99746"/>
      <rect id="Rectángulo_5591" data-name="Rectángulo 5591" width="2.8" height="16.888" transform="translate(314.149 130.145)" fill="#443437"/>
      <path id="Trazado_57512" data-name="Trazado 57512" d="M2019.151,223.238H2005.5v21.846h23.6Z" transform="translate(-1718.986 -94.177)" fill="#f99746"/>
      <rect id="Rectángulo_5592" data-name="Rectángulo 5592" width="19.426" height="9.064" transform="translate(305.731 143.237)" fill="#f99746"/>
      <path id="Trazado_57513" data-name="Trazado 57513" d="M1779.352,312.043c0-12.809-56.815-12.809-56.815,0v91.1h56.815Z" transform="translate(-1718.986 -95.134)" fill="#a7c44b"/>
      <path id="Trazado_57514" data-name="Trazado 57514" d="M1743.982,382.694V302.709c-11.536.882-21.445,3.989-21.445,9.337v91.1h56.815V392.031C1763.255,393.262,1743.982,390.156,1743.982,382.694Z" transform="translate(-1718.986 -95.137)" fill="#899928"/>
      <path id="Trazado_57515" data-name="Trazado 57515" d="M1775.453,306.908V385.22c0,12.356-41.219,12.356-41.219,0V304.132c-6.848,1.556-11.7,4.195-11.7,7.931v91.1h56.815v-91.1C1779.352,310.016,1777.891,308.3,1775.453,306.908Z" transform="translate(-1718.986 -95.154)" fill="#97af33"/>
      <g id="Grupo_28700" data-name="Grupo 28700" transform="translate(44.77 213.81)">
        <path id="Trazado_57516" data-name="Trazado 57516" d="M1771.833,357.394V310.688a39.772,39.772,0,0,0-8.077-1.665v46.639Z" transform="translate(-1763.756 -309.023)" fill="#c7e256"/>
        <path id="Trazado_57517" data-name="Trazado 57517" d="M1763.756,363.841V374.7c0,10.812,8.077,10.812,8.077,0v-9.132Z" transform="translate(-1763.756 -309.685)" fill="#c7e256"/>
      </g>
      <g id="Grupo_28701" data-name="Grupo 28701" transform="translate(167.035)">
        <path id="Trazado_57518" data-name="Trazado 57518" d="M1995.474,384.5c-22.114,0-40.1-20.017-40.1-44.622V138.305c0-19.051-13.93-34.55-31.053-34.55-15.588,0-28.269,14.11-28.269,31.452v47.1h-10.026v-47.1c0-23.494,17.179-42.607,38.3-42.607,22.65,0,41.079,20.5,41.079,45.705v201.57c0,18.452,13.494,33.466,30.079,33.466Z" transform="translate(-1886.021 -92.6)" fill="#6d534d"/>
        <path id="Trazado_57519" data-name="Trazado 57519" d="M1959.578,339.5V134.833c0-19.142-15.951-34.715-35.557-34.715-17.849,0-32.369,14.177-32.369,31.6V182.4h4.394V135.3c0-17.342,12.681-31.452,28.269-31.452,17.123,0,31.053,15.5,31.053,34.55v201.57c0,24.6,17.991,44.622,40.1,44.622v-4.415C1976.675,379.17,1959.578,360.861,1959.578,339.5Z" transform="translate(-1886.021 -92.691)" fill="#593e3a"/>
      </g>
      <rect id="Rectángulo_5593" data-name="Rectángulo 5593" width="8.355" height="32.536" transform="translate(126.094 49.734)" fill="#593e3a"/>
      <ellipse id="Elipse_1393" data-name="Elipse 1393" cx="30.079" cy="33.466" rx="30.079" ry="33.466" transform="translate(100.193 0.155)" fill="#e8d59a"/>
      <path id="Trazado_57520" data-name="Trazado 57520" d="M1855.315,131.486c-14.386,0-26.4-11.245-29.361-26.261a35.7,35.7,0,0,0-6.775,21.149c0,18.482,13.467,33.466,30.079,33.466s30.079-14.984,30.079-33.466a37.116,37.116,0,0,0-.718-7.2C1873.1,126.684,1864.716,131.486,1855.315,131.486Z" transform="translate(-1718.986 -92.752)" fill="#e8b769"/>
      <path id="Rectángulo_5594" data-name="Rectángulo 5594" d="M11.25,0H84.835a11.25,11.25,0,0,1,11.25,11.25v12.3a0,0,0,0,1,0,0H0a0,0,0,0,1,0,0V11.25A11.25,11.25,0,0,1,11.25,0Z" transform="translate(96.433 74.834)" fill="#ffebb3"/>
      <path id="Trazado_57521" data-name="Trazado 57521" d="M1893.576,184.941h-48.949c-8.467,0-15.623-6.23-17.976-14.793-6.611,3.24-11.232,10.584-11.232,19.138v2.634H1911.5v-2.634a22.445,22.445,0,0,0-3.4-11.983A18.1,18.1,0,0,1,1893.576,184.941Z" transform="translate(-1718.986 -93.536)" fill="#efd68f"/>
      <path id="Trazado_57522" data-name="Trazado 57522" d="M1919.859,202.064c0-7.187-5.237-13.014-11.7-13.014h-93.335c-4.287,0-7.763,3.867-7.763,8.637v4.377Z" transform="translate(-1718.986 -93.765)" fill="#e8b769"/>
      <path id="Rectángulo_5595" data-name="Rectángulo 5595" d="M8.667,0H131.679A10.917,10.917,0,0,1,142.6,10.917v193.6a0,0,0,0,1,0,0H0a0,0,0,0,1,0,0V8.667A8.667,8.667,0,0,1,8.667,0Z" transform="translate(73.178 103.497)" fill="#ff4343"/>
      <path id="Trazado_57523" data-name="Trazado 57523" d="M1845.637,218.123c0-8.9,6.484-16.114,14.483-16.114h68.014a17.093,17.093,0,0,0-11.617-4.647H1806.646c-8,0-14.482,7.214-14.482,16.113v188.4h53.473Z" transform="translate(-1718.986 -93.865)" fill="#d31111"/>
      <path id="Trazado_57524" data-name="Trazado 57524" d="M1923.062,198.73V364.225c0,8.9-6.484,16.113-14.482,16.113h-67.538c-10.075,0-18.242-9.087-18.242-20.3V197.362h-16.154c-8,0-14.482,7.214-14.482,16.113v188.4h142.6V217.658C1934.759,209.019,1929.9,201.659,1923.062,198.73Z" transform="translate(-1718.986 -93.865)" fill="#e81f1f"/>
      <path id="Trazado_57525" data-name="Trazado 57525" d="M1938.658,406.174c0-3.765-2.743-6.817-6.127-6.817H1794.392c-3.384,0-6.127,3.052-6.127,6.817Z" transform="translate(-1718.986 -96.304)" fill="#ffc764"/>
      <rect id="Rectángulo_5596" data-name="Rectángulo 5596" width="142.596" height="23.55" transform="translate(73.178 123.948)" fill="#fff" opacity="0.61" style="mix-blend-mode: color-dodge;isolation: isolate"/>
      <path id="Trazado_57526" data-name="Trazado 57526" d="M1911.5,293.035V222.153c0-23.354-28.547-25.316-28.547,0v70.884Z" transform="translate(-1718.986 -93.944)" fill="#fff" style="mix-blend-mode: overlay;isolation: isolate"/>
      <rect id="Rectángulo_5597" data-name="Rectángulo 5597" width="28.547" height="32.536" transform="translate(163.971 213.655)" fill="#fff" style="mix-blend-mode: overlay;isolation: isolate"/>
      <path id="Trazado_57527" data-name="Trazado 57527" d="M2001.323,369.246l-10.862,3.409v18.127l10.862,1.007Z" transform="translate(-1718.986 -95.94)" fill="#efd68f"/>
      <rect id="Rectángulo_5598" data-name="Rectángulo 5598" width="73.944" height="154.16" transform="translate(279.969 152.766)" fill="#56494b"/>
      <path id="Trazado_57528" data-name="Trazado 57528" d="M2065.24,246.292V387.606h-42.612V246.292h-25.066l-2.228,154.16h78.4l-2.228-154.16Z" transform="translate(-1718.986 -94.456)" fill="#443437"/>
      <rect id="Rectángulo_5599" data-name="Rectángulo 5599" width="54.588" height="6.817" transform="translate(296.262 153.231)" fill="#443437"/>
      <path id="Trazado_57529" data-name="Trazado 57529" d="M1997.072,243.267a3.454,3.454,0,0,0,0,6.907H2072a3.454,3.454,0,0,0,0-6.907Z" transform="translate(-1718.986 -94.419)" fill="#ffc764"/>
      <path id="Trazado_57530" data-name="Trazado 57530" d="M1997.072,397.385a3.453,3.453,0,0,0,0,6.906H2072a3.453,3.453,0,0,0,0-6.906Z" transform="translate(-1718.986 -96.28)" fill="#ffc764"/>
      <ellipse id="Elipse_1394" data-name="Elipse 1394" cx="10.026" cy="11.155" rx="10.026" ry="11.155" transform="translate(305.522 116.279)" fill="#ffc764"/>
      <path id="Trazado_57531" data-name="Trazado 57531" d="M1834.218,168.348a17.01,17.01,0,0,0-6.125,1.159c5.726,1.908,13.782,3.1,22.731,3.1,10.647,0,20.039-1.686,25.726-4.261Z" transform="translate(-1718.986 -93.515)" fill="#e8b769"/>
      <ellipse id="Elipse_1395" data-name="Elipse 1395" cx="34.465" cy="1.859" rx="34.465" ry="1.859" transform="translate(121.708 96.524)" fill="#ffebb3"/>
      <ellipse id="Elipse_1396" data-name="Elipse 1396" cx="24.16" cy="26.881" rx="24.16" ry="26.881" transform="translate(105.276 7.979)" fill="#e8d59a"/>
      <ellipse id="Elipse_1397" data-name="Elipse 1397" cx="23.534" cy="26.184" rx="23.534" ry="26.184" transform="translate(106.738 7.437)" fill="#6d534d"/>
      <path id="Trazado_57532" data-name="Trazado 57532" d="M1849.258,100.128c-13,0-23.534,11.723-23.534,26.184a29.271,29.271,0,0,0,.181,3.111c.437-12.92,9.963-23.253,21.682-23.253,12,0,21.723,10.822,21.723,24.171a25.373,25.373,0,0,1-7.059,17.794,27.017,27.017,0,0,0,10.541-21.823C1872.792,111.851,1862.255,100.128,1849.258,100.128Z" transform="translate(-1718.986 -92.691)" fill="#593e3a"/>
      <path id="Trazado_57533" data-name="Trazado 57533" d="M1840.9,128.571c0,4.535,3.3,8.212,7.38,8.212s7.381-3.677,7.381-8.212-3.3-8.212-7.381-8.212S1840.9,124.035,1840.9,128.571Z" transform="translate(-1718.986 -92.935)" fill="#593e3a"/>
      <path id="Trazado_57534" data-name="Trazado 57534" d="M1843.061,126.548c0,3.807,2.774,6.895,6.2,6.895s6.2-3.087,6.2-6.895-2.775-6.895-6.2-6.895S1843.061,122.74,1843.061,126.548Z" transform="translate(-1718.986 -92.927)" fill="#e8d59a"/>
      <path id="Trazado_57535" data-name="Trazado 57535" d="M2075.2,247.694h-74.925a3.41,3.41,0,0,1-3.256-4.421,3.451,3.451,0,0,0,.053,6.9H2072a3.405,3.405,0,0,0,3.256-2.485C2075.235,247.689,2075.218,247.694,2075.2,247.694Z" transform="translate(-1718.986 -94.419)" fill="#f99746"/>
      <path id="Trazado_57536" data-name="Trazado 57536" d="M2002.085,400.573a3.417,3.417,0,0,1-3.382-3.188h-1.631a3.453,3.453,0,0,0,0,6.906H2072a3.431,3.431,0,0,0,3.408-3.453c0-.091-.019-.176-.026-.265Z" transform="translate(-1718.986 -96.28)" fill="#f99746"/>
      <path id="Trazado_57537" data-name="Trazado 57537" d="M1800.8,403.385a6.131,6.131,0,0,1-5.58-4.028h-.826c-3.384,0-6.127,3.052-6.127,6.817h150.393a7.422,7.422,0,0,0-.547-2.789Z" transform="translate(-1718.986 -96.304)" fill="#f99746"/>
      <g id="Grupo_28702" data-name="Grupo 28702" transform="translate(332.746 162.527)">
        <rect id="Rectángulo_5600" data-name="Rectángulo 5600" width="9.469" height="66.002" transform="translate(0 0)" fill="#fff" style="mix-blend-mode: overlay;isolation: isolate"/>
        <path id="Trazado_57538" data-name="Trazado 57538" d="M2051.732,333.018v21.964c0,5.5,2.12,9.953,4.735,9.953s4.734-4.457,4.734-9.953V333.018Z" transform="translate(-2051.732 -258.03)" fill="#fff" style="mix-blend-mode: overlay;isolation: isolate"/>
      </g>
      <rect id="Rectángulo_5601" data-name="Rectángulo 5601" width="9.469" height="101.637" transform="translate(281.013 190.957)" fill="#56494b" opacity="0.39"/>
      <path id="Trazado_57539" data-name="Trazado 57539" d="M1723.387,309.511c9.942-8.872,54.851-7.621,54.851,3.771v89.863h1.114v-91.1C1779.352,300.144,1730.361,299.305,1723.387,309.511Z" transform="translate(-1718.986 -95.134)" fill="#a7c44b"/>
      <path id="Trazado_57540" data-name="Trazado 57540" d="M1782.9,406.174c0-3.765-1.166-6.817-2.605-6.817H1721.59c-1.438,0-2.6,3.052-2.6,6.817Z" transform="translate(-1718.986 -96.304)" fill="#ffc764"/>
      <path id="Trazado_57541" data-name="Trazado 57541" d="M1724.312,403.385c-1.057,0-1.963-1.658-2.371-4.028h-.351c-1.438,0-2.6,3.052-2.6,6.817H1782.9a16.5,16.5,0,0,0-.233-2.789Z" transform="translate(-1718.986 -96.304)" fill="#f99746"/>
      <path id="Trazado_57542" data-name="Trazado 57542" d="M2027.448,221.5c0,4.354,3.173,7.884,7.087,7.884s7.086-3.53,7.086-7.884-3.173-7.885-7.086-7.885S2027.448,217.141,2027.448,221.5Z" transform="translate(-1718.986 -94.061)" fill="#443437"/>
      <ellipse id="Elipse_1398" data-name="Elipse 1398" cx="6.197" cy="6.894" rx="6.197" ry="6.894" transform="translate(309.352 120.54)" fill="#fff" style="mix-blend-mode: overlay;isolation: isolate"/>
      <path id="Trazado_57543" data-name="Trazado 57543" d="M2032.515,221.565a2.031,2.031,0,1,0,2.02-2.247A2.141,2.141,0,0,0,2032.515,221.565Z" transform="translate(-1718.986 -94.13)" fill="#ffc764"/>
      <path id="Trazado_57544" data-name="Trazado 57544" d="M2051.628,226.9a3.238,3.238,0,1,0,3.22-3.583A3.416,3.416,0,0,0,2051.628,226.9Z" transform="translate(-1718.986 -94.178)" fill="#443437"/>
      <path id="Trazado_57545" data-name="Trazado 57545" d="M1839.928,130.614v-8.059l-10.588,4.029Z" transform="translate(-1718.986 -92.962)" fill="#e8d59a"/>
    </g>
    <g id="Grupo_28712" data-name="Grupo 28712" transform="translate(11443.797 -904.627)">
      <rect id="Rectángulo_5602" data-name="Rectángulo 5602" width="0.313" height="0.174" transform="translate(201.968 31.103)" fill="#ffb53e"/>
      <g id="Grupo_28705" data-name="Grupo 28705" transform="translate(73.055)">
        <path id="Trazado_57546" data-name="Trazado 57546" d="M999.469,157.4l-28.128.877-3.031,42.352,39.295-3.87Z" transform="translate(-931.621 -157.4)" fill="#ede1b0"/>
        <path id="Trazado_57547" data-name="Trazado 57547" d="M1004.585,182.159c-5.016,18.65-21.214,2.077-28.449-15.136a79,79,0,0,1-3.1-8.789l-1.7.053-4.5,42.864,40.76-4.382Z" transform="translate(-931.621 -157.41)" fill="#dbc69a"/>
        <path id="Trazado_57548" data-name="Trazado 57548" d="M938.6,222.31l100.359-4.87C1029.27,188.221,962.364,176.393,938.6,222.31Z" transform="translate(-931.621 -157.813)" fill="#f9edbb"/>
        <path id="Trazado_57549" data-name="Trazado 57549" d="M1024.58,200.751a4.625,4.625,0,0,1,.521,2.074c0,6.852-16.47,12.406-36.788,12.406-17.878,0-32.772-4.3-36.091-10A55.682,55.682,0,0,0,938.6,222.42l100.359-4.87C1036.75,210.884,1031.555,205.128,1024.58,200.751Z" transform="translate(-931.621 -157.923)" fill="#ede1b0"/>
        <path id="Trazado_57550" data-name="Trazado 57550" d="M1040.733,216.347l-104.215,5.1V430.623h104.215Z" transform="translate(-931.621 -158.112)" fill="#e0245e"/>
        <path id="Trazado_57551" data-name="Trazado 57551" d="M964.495,221.312l-12.1.589c2.061,66.905,11.348,145.052,30.272,208.782h58.062l-.022-.4C1000.433,409.361,964.752,308.093,964.495,221.312Z" transform="translate(-931.621 -158.172)" fill="#d31856"/>
        <path id="Trazado_57552" data-name="Trazado 57552" d="M954.65,396.086c-3.366-27.069-9.168-50.57-15.318-64.528V423.9h17.725C956.651,415.17,955.858,405.8,954.65,396.086Z" transform="translate(-931.621 -159.503)" fill="#ed3a6d"/>
        <path id="Trazado_57553" data-name="Trazado 57553" d="M1043.182,216.021a3.2,3.2,0,0,0-.846-2.2,2.556,2.556,0,0,0-2.011-.826l-105.178,6.3a2.634,2.634,0,0,0-2.328,2.741v.626a3.043,3.043,0,0,0,.8,2.087,2.428,2.428,0,0,0,1.911.784l104.9-6.282A3.106,3.106,0,0,0,1043.182,216.021Z" transform="translate(-931.621 -158.071)" fill="#ffdc48"/>
        <path id="Trazado_57554" data-name="Trazado 57554" d="M1000.914,171.843c-.646-4.941-2.732-8.693-4.659-8.382s-2.965,4.57-2.319,9.512,2.732,8.693,4.659,8.382S1001.56,176.785,1000.914,171.843Z" transform="translate(-931.621 -157.473)" fill="#704f5a"/>
        <path id="Trazado_57555" data-name="Trazado 57555" d="M998.223,172.083c-.457-3.494-1.816-6.167-3.035-5.969s-1.837,3.19-1.379,6.684,1.815,6.168,3.034,5.97S998.679,175.577,998.223,172.083Z" transform="translate(-931.621 -157.505)" fill="#563944"/>
        <path id="Trazado_57556" data-name="Trazado 57556" d="M996.3,172.148c-.133-1.02-.529-1.8-.885-1.741s-.536.932-.4,1.951.53,1.8.886,1.741S996.438,173.167,996.3,172.148Z" transform="translate(-931.621 -157.557)" fill="#ede1b0"/>
        <path id="Trazado_57557" data-name="Trazado 57557" d="M1040.436,215.966l-104.9,6.282a2.428,2.428,0,0,1-1.911-.784,2.854,2.854,0,0,1-.487-.735,2.967,2.967,0,0,0-.317,1.327v.626a3.043,3.043,0,0,0,.8,2.087,2.428,2.428,0,0,0,1.911.784l104.9-6.282a3.106,3.106,0,0,0,2.746-3.232,3.275,3.275,0,0,0-.431-1.618A2.864,2.864,0,0,1,1040.436,215.966Z" transform="translate(-931.621 -158.089)" fill="#ffb53e"/>
        <path id="Trazado_57558" data-name="Trazado 57558" d="M1045.631,435.978a6.348,6.348,0,0,0-6.051-6.609H937.671a6.348,6.348,0,0,0-6.05,6.609Z" transform="translate(-931.621 -160.684)" fill="#ffdc48"/>
        <path id="Trazado_57559" data-name="Trazado 57559" d="M1043.834,431.306a5.784,5.784,0,0,1-4.254,1.913H937.671a5.781,5.781,0,0,1-4.253-1.914,6.9,6.9,0,0,0-1.8,4.7h114.01A6.9,6.9,0,0,0,1043.834,431.306Z" transform="translate(-931.621 -160.707)" fill="#ffb53e"/>
        <path id="Trazado_57560" data-name="Trazado 57560" d="M1018.38,201.367c.283-2.72-6.37-5.812-14.86-6.907s-15.6.221-15.886,2.941,6.37,5.811,14.86,6.907S1018.1,204.086,1018.38,201.367Z" transform="translate(-931.621 -157.843)" fill="#fffbdc"/>
        <path id="Trazado_57561" data-name="Trazado 57561" d="M984.538,195.917c-.168-1.339-3.276-1.961-6.94-1.39s-6.5,2.118-6.331,3.456,3.275,1.96,6.939,1.39S984.706,197.255,984.538,195.917Z" transform="translate(-931.621 -157.846)" fill="#fffbdc"/>
        <g id="Grupo_28704" data-name="Grupo 28704" transform="translate(16.57 119.921)">
          <ellipse id="Elipse_1399" data-name="Elipse 1399" cx="40.644" cy="45.221" rx="40.644" ry="45.221" fill="#562e37"/>
          <ellipse id="Elipse_1400" data-name="Elipse 1400" cx="34.599" cy="38.495" rx="34.599" ry="38.495" transform="translate(6.044 6.725)" fill="#fff"/>
          <path id="Trazado_57562" data-name="Trazado 57562" d="M1021.013,306.569l-2.486-4.09-58.8,44.25,2.486,4.09Z" transform="translate(-948.191 -279.073)" fill="#562e37"/>
          <path id="Trazado_57563" data-name="Trazado 57563" d="M1001.125,315.22a18.57,18.57,0,0,0-3.053,2.17,13.909,13.909,0,0,0-3.1-.674c-.675-.886-1.407-1.819-1.855-2.3,5.224-8.565,10.258-19.386,9.6-21.963-.177-.7-9.1,8.882-11.332,16.659-.966,3.372-1.972,7.885-2.391,9.82a2.021,2.021,0,0,0-.706-.1.975.975,0,0,0-.274.072c-6.225-7.246-22.3-18.639-23.2-17.9-.717.592-1.312,4.879.834,9.595,2.591,5.7,13.112,7.582,20.65,9.637a7.262,7.262,0,0,0-1.565,2.087,5.741,5.741,0,0,0,.957,2.822c-1.557.2-7.015,4.272-8.379,11.821-1.432,7.928,2.137,15.378,4.2,17.4,0,0,4.186-4.346,4.845-6.909.392-1.525.582-9.064.418-14.963a35.294,35.294,0,0,0,7.444,14.02l.154-.823a34.415,34.415,0,0,1-7.64-14.473,32.789,32.789,0,0,0-.513-5.489h0a1.76,1.76,0,0,0,1.053-.212,33.337,33.337,0,0,0,7.526,18.089l.136-.825c-4.168-4.808-7.167-11.856-7.451-17.354a10.014,10.014,0,0,0,1.4-.774,26.383,26.383,0,0,0,6.338,15.5l.27-.716a25.444,25.444,0,0,1-6.384-14.936,8.938,8.938,0,0,0,1.363-1.154c3.853,3.28,6.685,11.407,6.661,19.053l.55.461c.025-7.7-3.123-16.285-7.056-19.681a4.169,4.169,0,0,0,.953-1.646c3.939,3.706,6.963,11.48,7.359,18.362l.563.3c-.407-7.059-3.723-15.039-7.783-18.844a3.645,3.645,0,0,0,2.915.468c3.143,3.795,5.432,9.564,6.456,15.922l.647.358c-1.028-6.383-3.622-12.455-6.884-16.382l.067-.038a18.455,18.455,0,0,0,1.476,1.338s3.413-3.308,2.7-4.9a9.386,9.386,0,0,0,2.583-.6A3.215,3.215,0,0,0,1001.125,315.22Zm-11.2,4.1c.609-.864,1.232-1.793,1.859-2.766.283.173.7.392,1.163.624a1.462,1.462,0,0,0-.226.688,2.053,2.053,0,0,0-2.018,1.941h0A6.39,6.39,0,0,0,989.924,319.319Z" transform="translate(-948.191 -278.951)" fill="#562e37"/>
        </g>
        <path id="Trazado_57564" data-name="Trazado 57564" d="M1036.624,224.536l-58.941,5.824c1.06,101.408,41.8,174.377,58.941,172.3Z" transform="translate(-931.621 -158.211)" fill="#fff" opacity="0.81" style="mix-blend-mode: overlay;isolation: isolate"/>
      </g>
      <g id="Grupo_28707" data-name="Grupo 28707" transform="translate(0 125.718)">
        <path id="Trazado_57565" data-name="Trazado 57565" d="M900.044,284.655H882.118l-1.667,21.8H901.5Z" transform="translate(-858.566 -284.655)" fill="#f2d3db"/>
        <path id="Trazado_57566" data-name="Trazado 57566" d="M900.044,284.655h-4.7c-.06.3-.11.595-.177.9-2.7,12.22-9.2,20.947-14.524,19.492-.03-.008-.056-.025-.085-.034l-.111,1.445H901.5Z" transform="translate(-858.566 -284.655)" fill="#ddb6c1"/>
        <path id="Trazado_57567" data-name="Trazado 57567" d="M886.079,293.507c0-3.074-.793-5.566-1.772-5.566s-1.771,2.492-1.771,5.566.793,5.565,1.771,5.565S886.079,296.58,886.079,293.507Z" transform="translate(-858.566 -284.695)" fill="#826a71"/>
        <path id="Trazado_57568" data-name="Trazado 57568" d="M916.093,322.111c0-7.237-12.041-18.363-26.315-17.914S864.4,316.5,864.4,323.734s11.571,12.739,25.845,12.291S916.093,329.347,916.093,322.111Z" transform="translate(-858.566 -284.891)" fill="#e0bfc8"/>
        <path id="Trazado_57569" data-name="Trazado 57569" d="M868.15,318.422a88.226,88.226,0,0,0,10.552.273c14.722-.47,26.92-4.264,26.813-8.4-.053-2.044-9.228-5.31-16.407-4.877C878.723,306.044,870.462,312.887,868.15,318.422Z" transform="translate(-858.566 -284.905)" fill="#f2dae2"/>
        <path id="Trazado_57570" data-name="Trazado 57570" d="M917.447,319.63l-54.087,4.058-2.293,110.965h58.881Z" transform="translate(-858.566 -285.077)" fill="#ca5fd6"/>
        <path id="Trazado_57571" data-name="Trazado 57571" d="M917.447,319.63l-15.483,1.162a185.508,185.508,0,0,1-.069,30.394c-3.533,43.046-20.266,76.534-37.375,74.795a12.979,12.979,0,0,1-3.258-.777l-.2,9.45h58.881Z" transform="translate(-858.566 -285.077)" fill="#b73ea9"/>
        <path id="Trazado_57572" data-name="Trazado 57572" d="M916.471,331.721c-5.143,8.549-8.841,32.18-8.841,60.013a254.039,254.039,0,0,0,2.7,38.576h8.285Z" transform="translate(-858.566 -285.223)" fill="#cc4cc3"/>
        <path id="Trazado_57573" data-name="Trazado 57573" d="M922.137,437.892a3.6,3.6,0,0,0-3.471-3.711H862.037a3.6,3.6,0,0,0-3.471,3.711Z" transform="translate(-858.566 -286.46)" fill="#ffdc48"/>
        <g id="Grupo_28706" data-name="Grupo 28706" transform="translate(12.251 57.784)">
          <ellipse id="Elipse_1401" data-name="Elipse 1401" cx="18.55" cy="20.639" rx="18.55" ry="20.639" fill="#562e37"/>
          <ellipse id="Elipse_1402" data-name="Elipse 1402" cx="15.791" cy="17.57" rx="15.791" ry="17.57" transform="translate(2.759 3.069)" fill="#fff"/>
          <path id="Trazado_57574" data-name="Trazado 57574" d="M904.054,355.826l-1.135-1.866-26.838,20.2,1.135,1.866Z" transform="translate(-870.817 -343.276)" fill="#562e37"/>
          <path id="Trazado_57575" data-name="Trazado 57575" d="M894.977,359.774a8.5,8.5,0,0,0-1.394.991,6.323,6.323,0,0,0-1.412-.307c-.308-.405-.642-.83-.847-1.052,2.384-3.909,4.682-8.848,4.384-10.024-.081-.319-4.155,4.053-5.173,7.6-.44,1.539-.9,3.6-1.091,4.482a.9.9,0,0,0-.322-.047.444.444,0,0,0-.125.033c-2.841-3.308-10.18-8.507-10.591-8.168-.327.27-.6,2.227.381,4.379,1.183,2.6,5.985,3.461,9.425,4.4a3.31,3.31,0,0,0-.714.952,2.624,2.624,0,0,0,.436,1.288c-.71.091-3.2,1.95-3.824,5.4a10.212,10.212,0,0,0,1.915,7.943,11.154,11.154,0,0,0,2.212-3.153,48.048,48.048,0,0,0,.191-6.829,16.1,16.1,0,0,0,3.4,6.4l.07-.375a15.712,15.712,0,0,1-3.487-6.605,14.886,14.886,0,0,0-.234-2.505h0a.792.792,0,0,0,.481-.1,15.214,15.214,0,0,0,3.435,8.256l.062-.376a14.443,14.443,0,0,1-3.4-7.92,4.492,4.492,0,0,0,.639-.354,12.032,12.032,0,0,0,2.893,7.075l.123-.326a11.613,11.613,0,0,1-2.914-6.818,4.032,4.032,0,0,0,.622-.527c1.759,1.5,3.051,5.206,3.04,8.7l.251.21c.012-3.512-1.425-7.432-3.22-8.982a1.9,1.9,0,0,0,.435-.752c1.8,1.691,3.178,5.24,3.359,8.382l.257.135c-.186-3.222-1.7-6.864-3.552-8.6a1.662,1.662,0,0,0,1.33.213,15.542,15.542,0,0,1,2.947,7.267l.295.164a16.161,16.161,0,0,0-3.142-7.477l.03-.018a8.464,8.464,0,0,0,.674.611s1.558-1.51,1.231-2.236a4.272,4.272,0,0,0,1.178-.273A1.466,1.466,0,0,0,894.977,359.774Zm-5.113,1.871c.279-.394.563-.818.849-1.263.129.079.318.179.531.285a.669.669,0,0,0-.1.314.937.937,0,0,0-.921.886h0A2.937,2.937,0,0,0,889.864,361.645Z" transform="translate(-870.817 -343.22)" fill="#562e37"/>
        </g>
        <path id="Trazado_57576" data-name="Trazado 57576" d="M920.056,434.5a3.353,3.353,0,0,1-2.537,1.191l-56.629-.03a3.273,3.273,0,0,1-1.372-.305,3.83,3.83,0,0,0-.952,2.54h63.571A3.724,3.724,0,0,0,920.056,434.5Z" transform="translate(-858.566 -286.464)" fill="#ffb53e"/>
        <path id="Trazado_57577" data-name="Trazado 57577" d="M905.332,320.716l-42.044,3.942v3.826l42.044-3.942Z" transform="translate(-858.566 -285.09)" fill="#b73ea9"/>
        <path id="Trazado_57578" data-name="Trazado 57578" d="M919.219,318.989a1.657,1.657,0,0,0-.455-1.156,1.326,1.326,0,0,0-1.072-.413l-54.574,4.822a1.9,1.9,0,0,0-1.634,1.968,1.84,1.84,0,0,0,.5,1.28,1.472,1.472,0,0,0,1.187.457l54.246-4.793A2.094,2.094,0,0,0,919.219,318.989Z" transform="translate(-858.566 -285.05)" fill="#ffdc48"/>
        <path id="Trazado_57579" data-name="Trazado 57579" d="M918.764,317.832a1.326,1.326,0,0,0-.916-.39,2.065,2.065,0,0,1-1.781,1.973l-54.247,4.793a1.374,1.374,0,0,1-.328-.046c0,.017-.008.032-.008.048a1.84,1.84,0,0,0,.5,1.28,1.472,1.472,0,0,0,1.187.457l54.246-4.793a2.094,2.094,0,0,0,1.8-2.166A1.662,1.662,0,0,0,918.764,317.832Z" transform="translate(-858.566 -285.051)" fill="#ffb53e"/>
        <path id="Trazado_57580" data-name="Trazado 57580" d="M906.147,316.53a15.739,15.739,0,0,0,4.041-1.479,6.711,6.711,0,0,0-1.247-2.2,5.064,5.064,0,0,0-2.085-1.537c-.962,2.075-3.4,4.081-6.534,5.2a1.268,1.268,0,0,0,.086.144A14.037,14.037,0,0,0,906.147,316.53Z" transform="translate(-858.566 -284.977)" fill="#f2dae2"/>
        <path id="Trazado_57581" data-name="Trazado 57581" d="M885.845,292.559c0-2.126-.549-3.849-1.225-3.849s-1.226,1.723-1.226,3.849.549,3.85,1.226,3.85S885.845,294.685,885.845,292.559Z" transform="translate(-858.566 -284.704)" fill="#60454e"/>
        <path id="Trazado_57582" data-name="Trazado 57582" d="M885.006,293.992c0-1.032-.266-1.868-.595-1.868s-.594.836-.594,1.868.266,1.868.594,1.868S885.006,295.024,885.006,293.992Z" transform="translate(-858.566 -284.745)" fill="#ddb6c1"/>
        <rect id="Rectángulo_5603" data-name="Rectángulo 5603" width="19.697" height="12.871" transform="translate(28.763 128.531)" fill="#fff"/>
        <rect id="Rectángulo_5604" data-name="Rectángulo 5604" width="19.696" height="2.087" transform="translate(28.607 124.183)" fill="#fff"/>
        <rect id="Rectángulo_5605" data-name="Rectángulo 5605" width="19.696" height="2.087" transform="translate(28.607 119.313)" fill="#fff"/>
        <path id="Trazado_57583" data-name="Trazado 57583" d="M864.361,399.206c8.431-2.582,15.048-27.685,15.048-58.29,0-3.679-.1-7.273-.283-10.763l-13.649,1.285Z" transform="translate(-858.566 -285.204)" fill="#fff" opacity="0.81" style="mix-blend-mode: overlay;isolation: isolate"/>
      </g>
      <g id="Grupo_28711" data-name="Grupo 28711" transform="translate(201.864 116.21)">
        <path id="Trazado_57584" data-name="Trazado 57584" d="M1152.139,340c0-6.891-3.985-13-9.882-15.159l-35.973-13.147-35.973,13.147c-5.9,2.155-9.881,8.268-9.881,15.159v78.641c0,6.229,4.549,11.278,10.161,11.278h71.387c5.611,0,10.161-5.049,10.161-11.278Z" transform="translate(-1060.43 -275.474)" fill="#a34f5d"/>
        <path id="Trazado_57585" data-name="Trazado 57585" d="M1120.093,352.257c-12.422.846-35.063-6.639-57.527-2.178v65.188c0,6.9,4.337,12.489,9.687,12.489h68.059c5.35,0,9.687-5.592,9.687-12.489v-70.4C1140.069,348.173,1127.9,351.725,1120.093,352.257Z" transform="translate(-1060.43 -275.874)" fill="#6b2f3c"/>
        <path id="Trazado_57586" data-name="Trazado 57586" d="M1119.7,343.632h-51.538a5.473,5.473,0,0,0-3.959,1.717,6,6,0,0,0-1.64,4.144V415.2a9.229,9.229,0,0,0,9.022,9.424h44.8c6.815,0,12.339-5.783,12.339-12.918v-56.3C1128.725,348.9,1124.686,343.632,1119.7,343.632Z" transform="translate(-1060.43 -275.859)" fill="#a34f5d" style="mix-blend-mode: multiply;isolation: isolate"/>
        <path id="Trazado_57587" data-name="Trazado 57587" d="M1141.162,351.77v61.358c0,11.984,8.963,15.58,8.963-3.264V348.508C1150.125,333,1141.162,342.546,1141.162,351.77Z" transform="translate(-1060.43 -275.819)" fill="#a34f5d" opacity="0.6" style="mix-blend-mode: multiply;isolation: isolate"/>
        <rect id="Rectángulo_5606" data-name="Rectángulo 5606" width="79.203" height="43.134" transform="translate(5.315 90.905)" fill="#fff4c5"/>
        <path id="Trazado_57588" data-name="Trazado 57588" d="M1107.014,328.115c13.064,0,24.98-1.406,34.034-3.716l-34.764-12.706-34.156,12.483C1081.28,326.62,1093.536,328.115,1107.014,328.115Z" transform="translate(-1060.43 -275.474)" fill="#873647"/>
        <path id="Trazado_57589" data-name="Trazado 57589" d="M1125.564,275.031,1087,280.6l4.322,22.262h31.528Z" transform="translate(-1060.43 -275.031)" fill="#e8c580"/>
        <path id="Trazado_57590" data-name="Trazado 57590" d="M1104.513,284.547c-6.7.259-12.756-1.294-17.106-4l-.4.057,4.321,22.263h31.528L1125.5,275.7C1121.417,280.646,1113.552,284.2,1104.513,284.547Z" transform="translate(-1060.43 -275.039)" fill="#d8ab5b"/>
        <g id="Grupo_28708" data-name="Grupo 28708" transform="translate(26.575 0.659)">
          <path id="Trazado_57591" data-name="Trazado 57591" d="M1093.112,283.171a24.956,24.956,0,0,1-5.705-2.565l-.4.057,4.321,22.263h7.609C1096.213,298.357,1094.129,291.4,1093.112,283.171Z" transform="translate(-1087.005 -275.757)" fill="#edbf74"/>
          <path id="Trazado_57592" data-name="Trazado 57592" d="M1120.187,280.143c-.848,9.518-3.093,17.616-6.136,22.724h8.8L1125.5,275.7A20.61,20.61,0,0,1,1120.187,280.143Z" transform="translate(-1087.005 -275.698)" fill="#edbf74"/>
        </g>
        <rect id="Rectángulo_5607" data-name="Rectángulo 5607" width="56.693" height="22.958" rx="5.167" transform="translate(17.404 23.422)" fill="#a34f5d"/>
        <rect id="Rectángulo_5608" data-name="Rectángulo 5608" width="21.786" height="16.927" rx="5.167" transform="translate(20.682 26.437)" fill="#a34f5d" opacity="0.6" style="mix-blend-mode: multiply;isolation: isolate"/>
        <path id="Trazado_57593" data-name="Trazado 57593" d="M1127.127,301.791h0a4.312,4.312,0,0,0-4.064,4.523V314.2a4.311,4.311,0,0,0,4.064,4.522h0a4.312,4.312,0,0,0,4.065-4.522v-7.883A4.313,4.313,0,0,0,1127.127,301.791Z" transform="translate(-1060.43 -275.354)" fill="#a34f5d" opacity="0.6" style="mix-blend-mode: multiply;isolation: isolate"/>
        <path id="Trazado_57594" data-name="Trazado 57594" d="M1133.067,301.462v11.456c0,3.97-2.892,7.189-6.461,7.189h-40.852c-3.568,0-6.461-3.219-6.461-7.189V301.462a7.62,7.62,0,0,0-1.459,4.5v8.58c0,3.97,2.892,8.145,6.461,8.145h43.77c3.569,0,6.461-4.175,6.461-8.145v-8.58A7.62,7.62,0,0,0,1133.067,301.462Z" transform="translate(-1060.43 -275.35)" fill="#873647"/>
        <path id="Trazado_57595" data-name="Trazado 57595" d="M1114.648,325.8a9.752,9.752,0,0,1,3.779,6.5,7.274,7.274,0,0,1-.732,3.782q2.949.083,6.05.086a162.594,162.594,0,0,0,23.287-1.471C1145.045,326.055,1124.231,325.58,1114.648,325.8Z" transform="translate(-1060.43 -275.643)" fill="#fff" opacity="0.66" style="mix-blend-mode: overlay;isolation: isolate"/>
        <path id="Trazado_57596" data-name="Trazado 57596" d="M1112.089,332.163a9.448,9.448,0,0,0-3.3-6.064c-2.806.219-5.405.537-7.724.917a12.108,12.108,0,0,1-.821,7.687c3.2.474,6.979.857,11.176,1.11A7.253,7.253,0,0,0,1112.089,332.163Z" transform="translate(-1060.43 -275.647)" fill="#fff" opacity="0.66" style="mix-blend-mode: overlay;isolation: isolate"/>
        <path id="Trazado_57597" data-name="Trazado 57597" d="M1125.665,300.036h-32.473c-.006.077-.018.153-.018.23,0,4.7,12.122,8.512,27.076,8.512a79.909,79.909,0,0,0,10.942-.726v-1.676C1131.192,302.874,1128.717,300.036,1125.665,300.036Z" transform="translate(-1060.43 -275.333)" fill="#fff" opacity="0.66" style="mix-blend-mode: overlay;isolation: isolate"/>
        <g id="Grupo_28709" data-name="Grupo 28709" transform="translate(5.315 90.905)">
          <path id="Trazado_57598" data-name="Trazado 57598" d="M1082.211,376.787c0-3.328.162-6.581.457-9.74h-16.923v43.134h22.417C1084.442,401.04,1082.211,389.43,1082.211,376.787Z" transform="translate(-1065.745 -367.047)" fill="#f7dfa4"/>
          <path id="Trazado_57599" data-name="Trazado 57599" d="M1135.737,367.047c.295,3.159.457,6.412.457,9.74,0,12.643-2.231,24.253-5.952,33.394h14.706V367.047Z" transform="translate(-1065.745 -367.047)" fill="#f7dfa4"/>
        </g>
        <path id="Trazado_57600" data-name="Trazado 57600" d="M1147.762,337.207s-15.866,3.217-27.746,3.217c0,0,1.9,37.278,27.746,60.237Z" transform="translate(-1060.43 -275.782)" fill="#fff" opacity="0.66" style="mix-blend-mode: overlay;isolation: isolate"/>
        <path id="Trazado_57601" data-name="Trazado 57601" d="M1104.253,286.133c8.371-.322,15.862-3.02,20.913-7.011l.334-3.424c-4.083,4.948-11.948,8.5-20.987,8.849-6.7.259-12.756-1.294-17.106-4l-.4.057.48,2.476A37.156,37.156,0,0,0,1104.253,286.133Z" transform="translate(-1060.43 -275.039)" fill="#d8ab5b"/>
        <g id="Grupo_28710" data-name="Grupo 28710" transform="translate(27.617 93.688)">
          <path id="Trazado_57602" data-name="Trazado 57602" d="M1104.721,369.864c-9.209,0-16.674,8.305-16.674,18.551s7.465,18.552,16.674,18.552,16.674-8.305,16.674-18.552S1113.93,369.864,1104.721,369.864Zm0,34.344c-7.839,0-14.194-7.071-14.194-15.793s6.355-15.793,14.194-15.793,14.2,7.072,14.2,15.793S1112.56,404.208,1104.721,404.208Z" transform="translate(-1088.047 -369.864)" fill="#ff4571"/>
          <path id="Trazado_57603" data-name="Trazado 57603" d="M1115.453,390.522a1.172,1.172,0,0,0-.115-.044l8.252-5.911a17.614,17.614,0,0,0-8.375,5.866,28.324,28.324,0,0,0-2.862-.8,1.121,1.121,0,0,0-.239.016l6.839-10.748a.263.263,0,0,0,.15.069.33.33,0,1,0-.3-.328.346.346,0,0,0,.089.233,29.863,29.863,0,0,0-6.9,10.8,2.619,2.619,0,0,0-.46.16l-.367-.147c-.142-.05-.278-.092-.419-.142l.005,0c-.37-.13-.729-.243-1.094-.366-.405-.136-.815-.28-1.216-.407-.432-.137-.857-.26-1.285-.387-.385-.116-.775-.238-1.158-.345-.439-.124-.876-.231-1.313-.344-.367-.095-.735-.2-1.1-.285l-.017,0h0l-.444-.1.021.012c-.383-.089-.767-.171-1.15-.253-.559-.12-1.122-.231-1.685-.337-.508-.095-1.015-.193-1.529-.277-.378-.061-.766-.111-1.149-.167-.444-.064-.886-.134-1.338-.192-.228-.029-.464-.052-.695-.08h0l-.209-.023-3.025-2.443,1.137,2.239-.278-.022-3.338-1.9,1.533,1.753-.155-.013.006.006c-.159-.012-.309-.027-.469-.038a19.471,19.471,0,0,0,1.914,1.525c1.391,2.126,2.579,3.814,3.516,5.047l-1.337,1.507,0,.116-.108-.459a25.5,25.5,0,0,0-1.806,5.434h.695a18.764,18.764,0,0,1,1.221-4.873h0l1.515-1.487a17.075,17.075,0,0,0,1.828,2.114,18.373,18.373,0,0,0-1.3,4.245h.694a19.836,19.836,0,0,1,.892-4.029,10.51,10.51,0,0,0,2.006.84c-.227,1.749-.565,3.189-.565,3.189h.59a18.47,18.47,0,0,0,.381-3.061c.291.085.6.166.928.242a13.474,13.474,0,0,0-.7,2.819h.591a21.4,21.4,0,0,1,.475-2.742,16.235,16.235,0,0,0,2.164.305c.069,1.383.029,2.437.029,2.437h.59a14.341,14.341,0,0,0-.153-2.4c.458.02.93.011,1.408-.015a13.139,13.139,0,0,0,.561,2.419h.59a25.373,25.373,0,0,1-.75-2.447,12.641,12.641,0,0,0,2.149-.371,25.133,25.133,0,0,1,.269,2.819h.59a14.666,14.666,0,0,0-.477-2.919,11.264,11.264,0,0,0,3.185-1.539,18.106,18.106,0,0,1,1.1,4.426h.59a22.1,22.1,0,0,0-1.484-4.568c.095-.068.192-.122.286-.194l1.322-.456c.124.045.25.087.372.135l.023-.082.024.009s.748-.959,1.134-1.588a4.413,4.413,0,0,0,.514.116s.5-.68.787-1.161l-1.133.3A1.569,1.569,0,0,0,1115.453,390.522Z" transform="translate(-1088.047 -369.966)" fill="#ff4571"/>
          <path id="Trazado_57604" data-name="Trazado 57604" d="M1117.922,381.262l-1.02-1.678-24.124,18.154,1.02,1.678Z" transform="translate(-1088.047 -369.981)" fill="#ff4571"/>
        </g>
        <rect id="Rectángulo_5609" data-name="Rectángulo 5609" width="15.007" height="2.087" transform="translate(7.92 129.864)" fill="#a34f5d" opacity="0.6" style="mix-blend-mode: multiply;isolation: isolate"/>
        <rect id="Rectángulo_5610" data-name="Rectángulo 5610" width="15.007" height="2.087" transform="translate(7.92 126.56)" fill="#a34f5d" opacity="0.6" style="mix-blend-mode: multiply;isolation: isolate"/>
        <rect id="Rectángulo_5611" data-name="Rectángulo 5611" width="15.007" height="2.087" transform="translate(7.92 123.081)" fill="#a34f5d" opacity="0.6" style="mix-blend-mode: multiply;isolation: isolate"/>
        <rect id="Rectángulo_5612" data-name="Rectángulo 5612" width="15.007" height="2.087" transform="translate(7.92 119.603)" fill="#a34f5d" opacity="0.6" style="mix-blend-mode: multiply;isolation: isolate"/>
      </g>
    </g>
    <g id="Grupo_28718" data-name="Grupo 28718" transform="translate(12057.729 -1333.616)">
      <path id="Trazado_57605" data-name="Trazado 57605" d="M1675.02,385.665h-39.447v94.1h26.458l12.989-12.357Z" transform="translate(-1416.498 -26.167)" fill="#ed5661"/>
      <path id="Trazado_57606" data-name="Trazado 57606" d="M1661.069,465.746l3.367-80.08h-28.864v94.1h26.458l10.866-10.337Z" transform="translate(-1416.498 -26.167)" fill="#c92d40"/>
      <path id="Trazado_57607" data-name="Trazado 57607" d="M1465.249,190.287c-29.69,21.479-56.918,136.434-45.871,154.24s60.017-15.28,64.706-33.141S1479.7,179.834,1465.249,190.287Z" transform="translate(-1416.498 -23.8)" fill="#ffd364"/>
      <path id="Trazado_57608" data-name="Trazado 57608" d="M1481.124,235.047c-.491,4.923-14.942.321-14.4,5.511,5.291,51.09-20.224,98.085-34.637,95.764-9.506-1.531-12.861-29.92-8.116-53.535-7.155,30.425-9.9,58.316-4.986,66.23,11.048,17.805,60.414-19.222,65.1-37.083C1486.582,302.419,1485.172,265.7,1481.124,235.047Z" transform="translate(-1416.498 -24.348)" fill="#ffb850"/>
      <path id="Trazado_57609" data-name="Trazado 57609" d="M1603.341,715.317h7.7S1639.9,572.741,1639.9,558.483s20.2-166.339,17.318-179.646l-58.084-7.616L1554.273,395,1584.1,573.691Z" transform="translate(-1416.498 -25.992)" fill="#ffd364"/>
      <g id="Grupo_28713" data-name="Grupo 28713" transform="translate(130.078 363.709)">
        <path id="Trazado_57610" data-name="Trazado 57610" d="M1614.646,679.186h-7.7l-13.47-147.091-11.545-55.6,13.322-17.535-30.992-69.028-17.688,12.423,34.636,171.567,22.129,141.625h7.7l31.269-151.605-.036-30.762Z" transform="translate(-1546.576 -389.927)" fill="#ffb850"/>
      </g>
      <path id="Trazado_57611" data-name="Trazado 57611" d="M1483.076,378.559s9.38,168.953,10.1,177.507,31.029,116.2,35.358,161.824l6.494,1.426s15.875-148.28,18.04-155.408,8.742-92.129,8.742-92.129l36-14.091,1.443-89.823Z" transform="translate(-1416.498 -25.952)" fill="#ffd364"/>
      <path id="Trazado_57612" data-name="Trazado 57612" d="M1555.957,466.7l-2.165,68.437-20.2,151.011-6.494-1.426c-4.33-45.624-26.153-133.234-26.153-133.234l9.917-169.265-29.944-6.247,10.461,180.545s32.833,115.843,37.162,161.469l6.494,1.426L1557.4,563.65l6.855-89.111,39.687-17.821Z" transform="translate(-1416.498 -26.05)" fill="#ffb850"/>
      <path id="Trazado_57613" data-name="Trazado 57613" d="M1644.232,291.587c1.924-13.783-16.838-101.229-21.167-105.506s-38-33.743-84.186-34.693-72.64,37.544-76.97,42.772,13.951,80.794,13.951,80.794,1.2,78.179,6.975,116.675l173.426-2.437C1662.54,355.318,1642.308,305.37,1644.232,291.587Z" transform="translate(-1416.498 -23.338)" fill="#ffd364"/>
      <path id="Trazado_57614" data-name="Trazado 57614" d="M1612.8,357.108c9.627-8.594,21.206-67.91,4.112-81.013-13.871-10.633-51.986-17.007-53.488-17.587s-20.566,20.742-20.682,25.186S1576.466,338.623,1612.8,357.108Z" transform="translate(-1416.498 -24.631)" fill="#ffb850"/>
      <path id="Trazado_57615" data-name="Trazado 57615" d="M1647.96,290.841c1.839-13.178-45.617-74.938-45.617-73.389,0,48.033-24.8,98.34-69.117,98.339-44.158,0-55.469-52.263-66.747-72.774,3,17.9,6.134,33.922,6.134,33.922s2.164,77.347,7.937,115.843l177.873,9.98C1667.443,360.346,1646.036,304.623,1647.96,290.841Z" transform="translate(-1416.498 -24.135)" fill="#ffb850"/>
      <path id="Trazado_57616" data-name="Trazado 57616" d="M1614.749,168.072c51.131,7.754,72.9,122.287,67.411,144.421s-39.218,8.906-48.031-6.922c-4.069-7.309-24.153-43.028-29.825-73.664C1597.69,196.191,1606.006,166.747,1614.749,168.072Z" transform="translate(-1416.498 -23.539)" fill="#ffd364"/>
      <path id="Trazado_57617" data-name="Trazado 57617" d="M1662.38,217.018c11.429,28.976,16.377,59.281,14.564,69.659-3.67,21.008-28.674,10.42-38.245-4.752-4.295-6.809-28.073-35.193-36.309-63.78A143.837,143.837,0,0,0,1604.3,232.5c5.672,30.636,25.035,69.444,29.1,76.753,8.812,15.829,45.99,27.6,51.473,5.465C1688.155,301.5,1678.986,253.718,1662.38,217.018Z" transform="translate(-1416.498 -24.13)" fill="#ffb850"/>
      <path id="Trazado_57618" data-name="Trazado 57618" d="M1658.423,344.468c-31.4,1.81-69.995-18.415-101.1-54.733l19.417-29.411s71.061,13,95.632,28.3S1674.3,343.553,1658.423,344.468Z" transform="translate(-1416.498 -24.653)" fill="#ffd364"/>
      <path id="Trazado_57619" data-name="Trazado 57619" d="M1632.085,286.106s11.534-6.922,23.265-5.333l-29.038-12.667Z" transform="translate(-1416.498 -24.747)" fill="#ffb850"/>
      <path id="Trazado_57620" data-name="Trazado 57620" d="M1682.416,297.774c5.065,19.337-11.655,23.544-37.776,6.609-7.7-4.99-14.6-26.214-5.792-29.238-28.872-8.738-62.106-14.822-62.106-14.822l-19.417,29.411c31.1,36.317,69.057,60.96,100.454,59.15C1671.495,348.094,1693.285,316.6,1682.416,297.774Z" transform="translate(-1416.498 -24.653)" fill="#ffb850"/>
      <path id="Trazado_57621" data-name="Trazado 57621" d="M1640.563,347.373c-18.146-4.975-46.148-25.993-44.016-36.713a5.063,5.063,0,0,1,.667-1.68,5.312,5.312,0,0,0-1.931,3.106c-2.131,10.721,25.872,31.738,44.018,36.713,13.348,3.659,25.835.172,31.41-6.843C1664.651,348,1652.976,350.776,1640.563,347.373Z" transform="translate(-1416.498 -25.241)" fill="#ff9a3e"/>
      <path id="Trazado_57622" data-name="Trazado 57622" d="M1420.163,352.5c17.185,18.953,55.763,25.3,96.347,11.36l4.81-22.812s-22.426-26.011-47.277-29.5S1411.473,342.913,1420.163,352.5Z" transform="translate(-1416.498 -25.269)" fill="#ffd364"/>
      <path id="Trazado_57623" data-name="Trazado 57623" d="M1474.043,311.549a30.59,30.59,0,0,0-10.061.422c13.321,4.36,10.9,8.756,1.054,16.954-12.084,10.063-28.27,21.254-38.287,5.59-6.6,7.309-9.83,14.4-6.586,17.982,17.185,18.953,58.7,30.493,99.282,16.554l8.67-30.929S1498.894,315.033,1474.043,311.549Z" transform="translate(-1416.498 -25.269)" fill="#ffb850"/>
      <path id="Trazado_57624" data-name="Trazado 57624" d="M1472.613,277.667c4.87,23.347-.9,29.407-.9,29.407,2.526-.179,19.664,12.3,19.664,12.3l2.886-.891C1484.519,314.558,1472.613,277.667,1472.613,277.667Z" transform="translate(-1416.498 -24.863)" fill="#ff9a3e"/>
      <path id="Trazado_57625" data-name="Trazado 57625" d="M1548.019,738.468h-67.108s45.1-25.663,51.955-24.238S1548.019,738.468,1548.019,738.468Z" transform="translate(-1416.498 -30.134)" fill="#ffe6ae"/>
      <path id="Trazado_57626" data-name="Trazado 57626" d="M1632.085,738.451h-44.237s14.367-27.089,18.259-25.663S1632.085,738.451,1632.085,738.451Z" transform="translate(-1416.498 -30.116)" fill="#ffe6ae"/>
      <path id="Trazado_57627" data-name="Trazado 57627" d="M1638.94,409l7.866,84.587,10.174-81.736Z" transform="translate(-1416.498 -26.449)" fill="#ffb850"/>
      <path id="Trazado_57628" data-name="Trazado 57628" d="M1656.979,406.943l-174.265-10.574,1.083,9.149,170.76,17.56Z" transform="translate(-1416.498 -26.296)" fill="#ffb850"/>
      <path id="Trazado_57629" data-name="Trazado 57629" d="M1665.158,401.668,1479.107,392.4l1.082,5.044,184.969,16.343Z" transform="translate(-1416.498 -26.248)" fill="#ed5661"/>
      <path id="Trazado_57630" data-name="Trazado 57630" d="M1569.053,396.881l-89.946-4.481,1.082,5.044,72.837,6.435A67.954,67.954,0,0,1,1569.053,396.881Z" transform="translate(-1416.498 -26.248)" fill="#c92d40"/>
      <path id="Trazado_57631" data-name="Trazado 57631" d="M1648.739,397.024c-15.326,0-79.262-3.327-81.482-4.991s67.589-31.849,83.037-29.941C1656.066,362.805,1654.29,397.024,1648.739,397.024Z" transform="translate(-1416.498 -25.881)" fill="#ffd364"/>
      <path id="Trazado_57632" data-name="Trazado 57632" d="M1583.395,508.269l13.022,40.87,16.527,26.749-21.223-10.18Z" transform="translate(-1416.498 -27.647)" fill="#ffb850"/>
      <path id="Trazado_57633" data-name="Trazado 57633" d="M1495.7,532.029l3.969,18.535,24.174,41.347-24.174-22.1L1493.9,552.7Z" transform="translate(-1416.498 -27.934)" fill="#ffb850"/>
      <path id="Trazado_57634" data-name="Trazado 57634" d="M1549.462,551.78l-9.741,20.317,15.875-16.4,1.444-40.991Z" transform="translate(-1416.498 -27.725)" fill="#ffb850"/>
      <path id="Trazado_57635" data-name="Trazado 57635" d="M1562.451,476.235l-16.6-3.208-23.091-15.684,27.42,7.129h29.946Z" transform="translate(-1416.498 -27.032)" fill="#ffb850"/>
      <path id="Trazado_57636" data-name="Trazado 57636" d="M1622.591,170.027a37.463,37.463,0,0,0-7.842-2.156c-2.562-.388-5.084,1.881-7.207,6.161-14.916-9.866-39.243-22.039-68.663-22.644-39.179-.807-64.155,26.769-73.475,38.344-.051.035-.1.055-.155.093-.737.532-13.2,8.791-24.985,39.17C1456.062,257.18,1590.593,253.567,1622.591,170.027Z" transform="translate(-1416.498 -23.338)" fill="#ff9a3e"/>
      <path id="Trazado_57637" data-name="Trazado 57637" d="M1472.173,172.358c-10.463-39.208-20.126-108.794-18.683-115.566s17.679-24.951,57.367-33.149,68.913,12.831,71.8,19.248,22.73,90.892,22.73,90.892l-1.443,11.406s14.147,8.427,17.034,22.685c1.6,7.894-30.564,56.445-81.8,56.8-36.714.256-76.729-29.7-76.128-38.673C1463.487,179.51,1472.173,172.358,1472.173,172.358Z" transform="translate(-1416.498 -21.773)" fill="#ffd364"/>
      <path id="Trazado_57638" data-name="Trazado 57638" d="M1620.977,168.213a26.7,26.7,0,0,0-.773-2.9,112.379,112.379,0,0,1-23.477,32.965c-18.683,17.617-44.049,24.666-49.845,18.667s3.955-24.279,25.31-38.627c12.529-8.418,26.822-21.274,37.326-28.542a41.4,41.4,0,0,0-5.575-4.251l.74-5.851c-16.014,22.381-52.884,47.154-78.459,50.2-13.529,1.613-36.25-70.939-24.167-112.48-26.957-1.361-45.529-10.232-45.014-23.467a15.182,15.182,0,0,1,.747-4.024c-2.524,2.924-3.925,5.463-4.3,7.223-1.443,6.772,8.22,76.359,18.683,115.566,0,0-8.686,7.152-9.122,13.643-.6,8.97,39.414,38.929,76.128,38.673C1590.413,224.658,1622.575,176.107,1620.977,168.213Z" transform="translate(-1416.498 -22.113)" fill="#ffb850"/>
      <path id="Trazado_57639" data-name="Trazado 57639" d="M1469.125,69.074l15.755,106.575s44.739,40.279,94.889-6.416L1569.667,64.8C1551.868,86.659,1485.481,89.035,1469.125,69.074Z" transform="translate(-1416.498 -22.292)" fill="#7baaba"/>
      <path id="Trazado_57640" data-name="Trazado 57640" d="M1531.3,124.377A133.245,133.245,0,0,1,1525.952,90c-21.3,1.66-43.576-2.069-51.947-11.612l14.84,93.78s32.948,27.667,73.229,5.687C1549.445,166.58,1537.925,147.414,1531.3,124.377Z" transform="translate(-1416.498 -22.456)" fill="#5790a0"/>
      <path id="Trazado_57641" data-name="Trazado 57641" d="M1565.17,76c-2.9,3.557-7.7,6.343-13.467,8.35-2.64,24.222,6.254,47.527,19.119,50.084Z" transform="translate(-1416.498 -22.428)" fill="#a2d1dd"/>
      <g id="Grupo_28714" data-name="Grupo 28714" transform="translate(64.484 115.34)">
        <path id="Trazado_57642" data-name="Trazado 57642" d="M1555.022,158.631c-7.525,11.642-9.221,22.9-6.89,29.508,9.532-3.185,19.688-8.97,30.134-18.578l-3-31.039C1568.894,141.62,1561.309,148.906,1555.022,158.631Z" transform="translate(-1480.982 -138.523)" fill="#5b454b"/>
        <path id="Trazado_57643" data-name="Trazado 57643" d="M1501.817,157.984c-6.756-8.661-14.454-14.958-20.835-17.653l5.249,35.509a70.093,70.093,0,0,0,27.413,13.754C1515.846,182.945,1511.272,170.106,1501.817,157.984Z" transform="translate(-1480.982 -138.545)" fill="#5b454b"/>
      </g>
      <g id="Grupo_28715" data-name="Grupo 28715" transform="translate(50.438 38.878)">
        <path id="Trazado_57644" data-name="Trazado 57644" d="M1528.842,193.055c-26.249,0-44.646-16.135-44.935-16.4l-.38-.343L1466.936,64.093l3.31,4.04c6.634,8.1,23.351,13.117,43.651,13.117h.2c24.132-.04,46.014-7.029,54.451-17.39l2.223-2.733,10.507,108.622-.514.479C1562.14,187.563,1544.153,193.055,1528.842,193.055Zm-42.611-18.171c4.643,3.974,45.531,36.519,92.035-6.257l-9.725-100.533c-12.077,11.713-36.4,15.976-54.445,16.006-18.856.041-34.434-4.029-42.914-11.016Z" transform="translate(-1466.936 -61.126)" fill="#5b454b"/>
      </g>
      <path id="Trazado_57645" data-name="Trazado 57645" d="M1497.463,158.625c-11.38-14.044-25.422-21.621-31.364-16.921-2.9,2.295-11.726,7.882-10.083,13.827,1.72,6.228,14.107,12.927,19.928,20.111,7.376,9.1,12.9,23.249,19.579,25.335,3.627,1.132,9.694-6.761,11.784-8.414C1513.249,187.864,1508.842,172.67,1497.463,158.625Z" transform="translate(-1416.498 -23.204)" fill="#ffb850"/>
      <path id="Trazado_57646" data-name="Trazado 57646" d="M1489.164,166.2c-11.379-14.044-25.421-21.621-31.363-16.921s-1.535,19.893,9.844,33.938,25.422,21.62,31.364,16.921S1500.543,180.247,1489.164,166.2Z" transform="translate(-1416.498 -23.296)" fill="#5b454b"/>
      <path id="Trazado_57647" data-name="Trazado 57647" d="M1560.218,158.372c9.761-15.186,22.883-24.23,29.308-20.2,1.081.679,9.654,4.36,10.229,5.635,2.837,6.3-8.149,16.53-16.268,29.161-7.642,11.89-10.11,25.085-17.046,26.119-1.923.287-7.646-6.006-9.041-6.881C1550.974,188.177,1550.457,173.559,1560.218,158.372Z" transform="translate(-1416.498 -23.167)" fill="#ffd364"/>
      <g id="Grupo_28716" data-name="Grupo 28716" transform="translate(134.193 121.763)">
        <path id="Trazado_57648" data-name="Trazado 57648" d="M1597.5,153.445a28.115,28.115,0,0,0,1.549-2.873Q1598.24,152.012,1597.5,153.445Z" transform="translate(-1550.691 -145.091)" fill="#ffb850"/>
        <path id="Trazado_57649" data-name="Trazado 57649" d="M1571.737,167.361c-4.644-2.913-4.5-11.867-.385-22.337a69.087,69.087,0,0,0-11.133,13.442c-9.762,15.187-12.466,30.765-6.04,34.8,1.4.875,10.339,6.206,12.262,5.92,6.9-1.028,9.385-14.1,16.942-25.95C1580.653,172.716,1573.019,168.165,1571.737,167.361Z" transform="translate(-1550.691 -145.024)" fill="#ffb850"/>
      </g>
      <path id="Trazado_57650" data-name="Trazado 57650" d="M1569.6,163.423c9.761-15.186,22.883-24.23,29.308-20.2s3.722,19.609-6.04,34.8-22.883,24.23-29.308,20.2S1559.838,178.61,1569.6,163.423Z" transform="translate(-1416.498 -23.228)" fill="#5b454b"/>
      <path id="Trazado_57651" data-name="Trazado 57651" d="M1572.07,164.011c6.477-10.078,15.185-16.078,19.448-13.4s2.47,13.012-4.008,23.09-15.184,16.078-19.448,13.4S1565.592,174.088,1572.07,164.011Z" transform="translate(-1416.498 -23.321)" fill="#3d2b31"/>
      <path id="Trazado_57652" data-name="Trazado 57652" d="M1438.7,372.214c0-12.832,40.77-60.239,58.088-57.387s47.625,26.733,49.068,27.446-1.79,29.012-5.051,32.08S1476.942,386.472,1438.7,372.214Z" transform="translate(-1416.498 -25.31)" fill="#ffe6ae"/>
      <path id="Trazado_57653" data-name="Trazado 57653" d="M1545.854,342.276c-1.426-.7-31.014-24.008-48.427-27.319,14.736,5.014,25.179,14.41,24.351,21.443-1.067,9.06-19.314,14.408-40.756,11.944a77.7,77.7,0,0,1-23.73-6.349c-10.5,11.937-18.594,24.507-18.594,30.223,38.244,14.258,98.845,5.206,102.1,2.139S1547.3,342.989,1545.854,342.276Z" transform="translate(-1416.498 -25.313)" fill="#f9d48a"/>
      <path id="Trazado_57654" data-name="Trazado 57654" d="M1574.852,165.286c2.537-3.934,5.953-6.282,7.629-5.246s.976,5.065-1.562,9-5.953,6.283-7.628,5.247S1572.314,169.22,1574.852,165.286Z" transform="translate(-1416.498 -23.439)" fill="#f9d48a"/>
      <path id="Trazado_57655" data-name="Trazado 57655" d="M1486.418,168.4c-6.7-8.265-14.96-12.723-18.456-9.958s-.9,11.707,5.793,19.972,14.96,12.723,18.456,9.957S1493.114,176.66,1486.418,168.4Z" transform="translate(-1416.498 -23.413)" fill="#3d2b31"/>
      <path id="Trazado_57656" data-name="Trazado 57656" d="M1484.289,171.765c-2.666-3.291-5.956-5.066-7.348-3.965s-.36,4.661,2.306,7.952,5.956,5.066,7.349,3.966S1486.955,175.055,1484.289,171.765Z" transform="translate(-1416.498 -23.532)" fill="#f9d48a"/>
      <path id="Trazado_57657" data-name="Trazado 57657" d="M1645.142,310.267c-2.525-4.89,22.37,8.377,23.993,13.723S1654.163,327.733,1645.142,310.267Z" transform="translate(-1416.498 -25.244)" fill="#ffd364"/>
      <g id="Grupo_28717" data-name="Grupo 28717" transform="translate(67.709 168.644)">
        <path id="Trazado_57658" data-name="Trazado 57658" d="M1563.8,232.633l-20.431,36.351c16.113,7.2,33.286,22.708,37.124,26.882l32.079-21.216S1571.513,246.908,1563.8,232.633Z" transform="translate(-1484.208 -192.963)" fill="#ffe6ae"/>
        <path id="Trazado_57659" data-name="Trazado 57659" d="M1574.673,244.735c-10.1-9.1-6.508-14.011-10.868-20.825-7.105-11.1-10.9-29.31-14.019-30.688-4.529-2-9.922.426-10.765,2.711s11.059,27.792,7.358,27.721c-6.1-.118-16.944-6.625-19.883-6.489-6.414.3-17.415,30.819-7.987,36.057,8.161,4.534,18.708,16.873,35.149,18.382C1559.69,272.159,1574.673,244.735,1574.673,244.735Z" transform="translate(-1484.208 -192.478)" fill="#ffe6ae"/>
        <path id="Trazado_57660" data-name="Trazado 57660" d="M1542.221,223.3c-7.63-4.746-18.25-10.826-20.33-13.118s-13.915-15.722-15.941-15.951-8.723,1.075-6.9,4.683,15.038,18.275,18.915,20.928,15.915,11.965,17.38,12.051S1546.485,225.953,1542.221,223.3Z" transform="translate(-1484.208 -192.499)" fill="#ffe6ae"/>
        <path id="Trazado_57661" data-name="Trazado 57661" d="M1534.862,233.916c-8.015-3.89-19.111-8.775-21.408-10.84s-15.4-14.2-17.412-14.2-8.442,2.092-6.258,5.512,16.786,16.642,20.886,18.86,16.945,10.192,18.393,10.109S1539.34,236.09,1534.862,233.916Z" transform="translate(-1484.208 -192.676)" fill="#ffe6ae"/>
        <path id="Trazado_57662" data-name="Trazado 57662" d="M1531.156,246.078c-8.29-2.979-19.7-6.594-22.2-8.41s-16.808-12.545-18.762-12.3-7.922,3.136-5.354,6.34,18.473,14.848,22.743,16.605,17.785,8.291,19.179,8.032S1535.789,247.743,1531.156,246.078Z" transform="translate(-1484.208 -192.875)" fill="#ffe6ae"/>
      </g>
      <path id="Trazado_57663" data-name="Trazado 57663" d="M1618.095,344.841c9.627-8.594,21.206-67.91,4.111-81.013-13.871-10.633-51.985-17.007-53.487-17.588s-20.566,20.742-20.682,25.187S1581.758,326.355,1618.095,344.841Z" transform="translate(-1416.498 -24.483)" fill="#ffe6ae"/>
      <path id="Trazado_57664" data-name="Trazado 57664" d="M1548.037,271.73c-.115,4.445,33.881,56.287,70.217,74.772,4.73-1.968,13.23-27.327,12.382-45.176C1596.088,283.453,1548.115,268.719,1548.037,271.73Z" transform="translate(-1416.498 -24.786)" fill="#f9d48a"/>
      <path id="Trazado_57665" data-name="Trazado 57665" d="M1566.095,266.029l79.445,8L1621.147,365.2l-73.7-7.418Z" transform="translate(-1416.498 -24.722)" fill="#684c4c"/>
      <path id="Trazado_57666" data-name="Trazado 57666" d="M1532.324,332.785c6.495.178,7.682-6.36,21.43-5.319l-1.581,7.779s.356,5.2,7.211,3.778,16.6-12.12,18.581-13.01,6.016,5.551,4.393,9.116-13.954,11.32-14.315,12.745-.458,2.457,1.083,2.5c2.345.059,13.7-10.785,14.7-10.991,2.275-.466,5.509,5.176,3.879,9-1.443,3.386-15.7,11.792-15.515,13.4s.662,1.011,1.564.832,11.7-9.732,13.364-9.75c2.03-.022,4.929,6.721,3.383,8.8-3.7,4.976-14.793,10.961-18.581,12.03s-37.793,3.119-37.793,3.119Z" transform="translate(-1416.498 -25.446)" fill="#f9d48a"/>
    </g>
    <g id="Grupo_28731" data-name="Grupo 28731" transform="translate(11647.134 -1320.115)">
      <path id="Trazado_57667" data-name="Trazado 57667" d="M1271.44,212.053c25.946,25.234,54.955,115.3,77.391,136.582,14.583,13.831-45.36,38.707-54.394,21.731-8.815-16.564-51.186-58.277-53.96-73.068C1233.224,258.611,1261.636,202.518,1271.44,212.053Z" transform="translate(-1005.903 -37.558)" fill="#ffd364"/>
      <path id="Trazado_57668" data-name="Trazado 57668" d="M1288.267,267.266c-19.106-38.554-55.043-8.191-47.79,30.5,2.774,14.791,45.145,56.5,53.96,73.068,5.666,10.646,24.493,4.412,39.264-4.816C1320.083,357.683,1302.475,295.936,1288.267,267.266Z" transform="translate(-1005.903 -38.023)" fill="#ffb850"/>
      <path id="Trazado_57669" data-name="Trazado 57669" d="M1289.637,365.273c11.317,27.789,48.412,64.465,91.863,77.89l17.247-21.988s-33.226-62.831-56.408-81.743S1283.915,351.222,1289.637,365.273Z" transform="translate(-1005.903 -39.037)" fill="#ffd364"/>
      <path id="Trazado_57670" data-name="Trazado 57670" d="M1391.479,422.981c-50.85-22.443-75.839-86.117-82.346-100.3-15,5.9-22.993,33.877-19.5,42.465,11.317,27.789,48.412,64.464,91.863,77.89l17.247-21.989s-.709-1.336-1.958-3.624Z" transform="translate(-1005.903 -38.907)" fill="#ffb850"/>
      <path id="Trazado_57671" data-name="Trazado 57671" d="M1303.748,396.688c6.48-10.112,55.6-38.387,67.81-27.6s38.435,61.24,39.213,62.513-20.8,15.826-24.922,16.636S1326.691,426.778,1303.748,396.688Z" transform="translate(-1005.903 -39.438)" fill="#ffe6ae"/>
      <g id="Grupo_28719" data-name="Grupo 28719" transform="translate(297.845 345.366)">
        <path id="Trazado_57672" data-name="Trazado 57672" d="M1318.056,385.026c-7.034,4.556-12.442,8.973-14.308,11.884,22.943,30.089,77.982,52.357,82.1,51.547,1.508-.3,12.578-7.211,16.814-9.866C1394.392,428.718,1336.954,399.681,1318.056,385.026Z" transform="translate(-1303.748 -385.026)" fill="#f9d48a"/>
      </g>
      <g id="Grupo_28720" data-name="Grupo 28720" transform="translate(349.001 372.958)">
        <path id="Trazado_57673" data-name="Trazado 57673" d="M1400.338,416.032s-.211-4.825,4.507-2.392c7.26,3.745,13.638,9.334,23.336,17.617,2.842,2.426,2.417,24.163,1.382,31.833-4.014-1.8-37.2,6.7-37.2,6.7s-12.091-10.218-15.924-22.333c-1.166-3.682-15.078-21.587-21.539-28.815,19.593,6.4,45.375,12.955,50.482,9.7C1414.606,422.453,1400.338,416.032,1400.338,416.032Z" transform="translate(-1354.904 -412.955)" fill="#f9d48a"/>
      </g>
      <path id="Trazado_57674" data-name="Trazado 57674" d="M1261.6,159.317c-7.964-17.164-24.18-26.441-36.219-20.72s-15.343,24.273-7.379,41.437,24.179,26.441,36.219,20.72S1269.566,176.481,1261.6,159.317Z" transform="translate(-1005.903 -36.664)" fill="#ffd364"/>
      <g id="Grupo_28721" data-name="Grupo 28721" transform="translate(53.736 398.811)">
        <path id="Trazado_57675" data-name="Trazado 57675" d="M1231.951,724.175c-60.939,0-70.487-69.54-78.91-130.891-7.7-56.109-14.98-109.107-55.709-109.107-25.624,0-26.924,28.315-26.924,74.512h-10.769c0-43.666,0-84.909,37.693-84.909,50.166,0,58.411,60.057,66.385,118.139,8.226,59.909,16.732,121.86,68.234,121.86,46.246,0,66.147-71.994,85.393-141.618,18.912-68.416,36.776-133.036,80.638-133.036,49.229,0,81.771,37.036,99.488,113.227l-10.51,2.279c-16.445-70.727-45.551-105.109-88.978-105.109-35.591,0-53.2,63.709-70.233,125.319C1307.454,648.259,1286.468,724.175,1231.951,724.175Z" transform="translate(-1059.639 -439.124)" fill="#ed5661"/>
        <path id="Trazado_57676" data-name="Trazado 57676" d="M1384.631,441.389c-34.375,11.842-50.422,69.79-67.287,130.8-19.246,69.624-39.147,141.618-85.392,141.618-51.5,0-60.009-61.951-68.234-121.86-7.975-58.082-16.22-118.139-66.385-118.139-37.694,0-37.694,41.243-37.694,84.909h10.77c0-46.2,1.3-74.512,26.924-74.512,40.728,0,48.005,53,55.708,109.107,8.423,61.351,17.971,130.891,78.911,130.891,54.516,0,75.5-75.916,95.8-149.335,5.609-20.288,11.284-40.789,17.639-59.181A110.589,110.589,0,0,1,1384.631,441.389Z" transform="translate(-1059.639 -439.151)" fill="#ce3043"/>
      </g>
      <path id="Trazado_57677" data-name="Trazado 57677" d="M1335.16,723.495h7.179l-13.013-169.123s-24.734-195.26-30.289-208.136l-54.521,21.945-24.052,45.379,60.082,155.526Z" transform="translate(-1005.903 -39.191)" fill="#ffd364"/>
      <path id="Trazado_57678" data-name="Trazado 57678" d="M1329.326,554.737s-15.237-120.288-24.479-178.262c8.586,60.273,18.2,136.147,18.2,136.147l13.013,169.124h-7.18l-65.364-204.339-42.892-66.968-5.777,10.9,63.888,150.578L1335.16,723.86h7.179Z" transform="translate(-1005.903 -39.557)" fill="#ffb850"/>
      <path id="Trazado_57679" data-name="Trazado 57679" d="M1146.917,396.721,1161.389,560.3l7.215,162.034,5.911,1.438,35.9-156.933,26.027-85.559,31.635-15.738,2.693-96.2Z" transform="translate(-1005.903 -39.471)" fill="#ffd364"/>
      <path id="Trazado_57680" data-name="Trazado 57680" d="M1227.523,477.581l-33.265,133.879-16.379,85.116-7.4-1.33,6.282-163.139,2.531-97.956L1311.06,418.3l-2.936-25.282-167.265,3.657,16.154,166.242,11.59,159.706,5.911,1.438,35.9-156.933,30.065-82.345,37.357-11.637Z" transform="translate(-1005.903 -39.756)" fill="#ffb850"/>
      <path id="Trazado_57681" data-name="Trazado 57681" d="M1296.12,307.513l-24.68-95.756s-40.835-24.382-83.913-25.269-72.694,26.6-72.694,26.6l10.321,88.662,19.295,112.158,163.974-16.3Z" transform="translate(-1005.903 -37.262)" fill="#ffd364"/>
      <path id="Trazado_57682" data-name="Trazado 57682" d="M1296.305,309.942c-.111,38.458-4.538,71.408-30.25,77.33-54.857,12.634-88.536-14.975-109.49-69.379-23.346-60.613-41.284-39.011-41.284-39.011l29.168,136.1,163.974-16.3-2.88-35.124Z" transform="translate(-1005.903 -38.333)" fill="#ffb850"/>
      <path id="Trazado_57683" data-name="Trazado 57683" d="M1187.976,736.388h-57.887s38.9-21.072,44.816-19.9S1187.976,736.388,1187.976,736.388Z" transform="translate(-1005.903 -43.662)" fill="#ffe6ae"/>
      <path id="Trazado_57684" data-name="Trazado 57684" d="M1377.34,736.434h-51.155s6.877-14.208,10.321-15.959C1341.085,718.148,1377.34,736.434,1377.34,736.434Z" transform="translate(-1005.903 -43.708)" fill="#ffe6ae"/>
      <path id="Trazado_57685" data-name="Trazado 57685" d="M1120.133,209.074c-27.581,15.985-102.315,98.868-99.982,118.212s39.915,33.1,51.155,19.949c10.968-12.831,56.138-40.073,65.851-50.205C1161.276,271.873,1130.555,203.034,1120.133,209.074Z" transform="translate(-1005.903 -37.531)" fill="#ffd364"/>
      <path id="Trazado_57686" data-name="Trazado 57686" d="M1174.065,253.109s-22.885-33.249-20.641-46.1c.65-3.725-4.745-7.186-12.711-10.229a118.049,118.049,0,0,0-20.58,12.155c-7.947,4.606-19.813,14.777-32.616,27.369C1117.751,225.291,1160.595,239.019,1174.065,253.109Z" transform="translate(-1005.903 -37.387)" fill="#ffb850"/>
      <path id="Trazado_57687" data-name="Trazado 57687" d="M1037.587,331.191c-10.185-11.178,30.882-71.977,64.884-108.518-33.222,29.05-84.254,88.742-82.32,104.782,2.332,19.344,39.915,33.1,51.155,19.949,10.968-12.83,61.95-34.913,69.217-46.88,3.665-6.037,8.4-13.86,9.086-19.949C1113.93,318.634,1051.142,346.069,1037.587,331.191Z" transform="translate(-1005.903 -37.699)" fill="#ffb850"/>
      <path id="Trazado_57688" data-name="Trazado 57688" d="M1137.269,206.83c-13.527-4.094-9.111-10.843-4.038-13.3s-14.921-104.179-9.872-120.139c4.8-15.19,26.25-35.465,66.3-37.792,19.5-1.133,50.482,3.658,42.611,15.676-4.152,6.341,25.829,131.606,27.054,131.814,9.311,1.574,11.714,19.742,6.641,23.835S1137.269,206.83,1137.269,206.83Z" transform="translate(-1005.903 -35.439)" fill="#ffd364"/>
      <path id="Trazado_57689" data-name="Trazado 57689" d="M1226.118,203.986c-.672-4.991,17.052-18.619,38.438-17.571a8.681,8.681,0,0,0-5.232-3.287,9.04,9.04,0,0,1-.792-2.251c-2.592.734-23.038-9.679-26.132-9.252-26.349,3.631-35.287,18.241-52.165-4.655-29.319-39.774-36.224-119.295-10.872-128.421-30.044,6.887-52.143,23.812-56.1,36.323-5.048,15.959,15.506,116.906,10.433,119.362s-7.018,11.288,6.058,16.624c15.481,6.318,99.955,17.955,136.212-3.894a4.207,4.207,0,0,0,1.329-1.743C1249.228,213.074,1226.793,209,1226.118,203.986Z" transform="translate(-1005.903 -35.476)" fill="#ffb850"/>
      <path id="Trazado_57690" data-name="Trazado 57690" d="M1183.657,133.752c.422-1.638-12.083-69.986-12.083-69.986l60.7-12.3s26.631,63.041,27.054,131.814l-55.415-4.03Z" transform="translate(-1005.903 -35.632)" fill="#7baaba"/>
      <path id="Trazado_57691" data-name="Trazado 57691" d="M1214.695,58l-39.283,8.022s11.78,64.9,11.382,66.451l19.079,43.2,47.73,3.5C1237.568,153.98,1218.374,97.189,1214.695,58Z" transform="translate(-1005.903 -35.711)" fill="#5790a0"/>
      <path id="Trazado_57692" data-name="Trazado 57692" d="M1259.38,181.681l-55.842-4.6-18.582-43.734c-.42-5.489-6.508-39.485-11.822-68.559l58.308-11.814.1.24,2.467-1.066c-.291-.725-.472-1.164-.493-1.211l-.427-1.01-63.07,12.777.234,1.278c4.835,26.422,11.99,66.48,12.073,69.543l-.083.323L1203,180.5l56.77,3.839Z" transform="translate(-1005.903 -35.614)" fill="#5b454b"/>
      <path id="Trazado_57693" data-name="Trazado 57693" d="M1184.05,132.547l7.964,48.689,32.963.84a50.359,50.359,0,0,0-5.307-23.968C1211.528,141.315,1196.577,131.006,1184.05,132.547Z" transform="translate(-1005.903 -36.609)" fill="#5b454b"/>
      <path id="Trazado_57694" data-name="Trazado 57694" d="M1216.136,160.979c-9.4-19.33-29.04-29.521-43.877-22.765s-19.248,27.9-9.853,47.234,29.04,29.521,43.877,22.764S1225.531,180.308,1216.136,160.979Z" transform="translate(-1005.903 -36.654)" fill="#ffd364"/>
      <path id="Trazado_57695" data-name="Trazado 57695" d="M1205.863,169.171c-11.968-19.926-31.581-31.037-43.807-24.816s-12.434,27.42-.467,47.346,31.581,31.038,43.807,24.816S1217.83,189.1,1205.863,169.171Z" transform="translate(-1005.903 -36.733)" fill="#ffb850"/>
      <path id="Trazado_57738" data-name="Trazado 57738" d="M24.131.113c13.327.062,24.2,14.247,24.28,31.683S37.757,63.315,24.429,63.252.232,49.005.149,31.57,10.8.051,24.131.113Z" transform="matrix(0.903, -0.429, 0.429, 0.903, 147.895, 117.914)" fill="#4f3b40"/>
      <path id="Trazado_57696" data-name="Trazado 57696" d="M1204.011,165.917c-4.939-10.214-15.3-15.482-23.131-11.766s-10.183,15.008-5.243,25.221,15.3,15.481,23.131,11.766S1208.951,176.13,1204.011,165.917Z" transform="translate(-1005.903 -36.858)" fill="#3d2b31"/>
      <path id="Trazado_57697" data-name="Trazado 57697" d="M1196.943,168.7c-2.166-4.475-6.707-6.782-10.142-5.152s-4.464,6.579-2.3,11.053,6.708,6.782,10.143,5.152S1199.109,173.176,1196.943,168.7Z" transform="translate(-1005.903 -36.979)" fill="#f9d48a"/>
      <path id="Trazado_57698" data-name="Trazado 57698" d="M1081.626,500.6H1052.01l-6.731,23.939h43.078Z" transform="translate(-1005.903 -41.055)" fill="#ffd364"/>
      <path id="Trazado_57699" data-name="Trazado 57699" d="M1123.807,529.454a13.844,13.844,0,0,0-14.078-13.6h-81.617a13.855,13.855,0,0,0-14.075,13.32L1009.83,729.09h113.977Z" transform="translate(-1005.903 -41.24)" fill="#b9bf47"/>
      <path id="Trazado_57700" data-name="Trazado 57700" d="M1054.87,710.471a13.844,13.844,0,0,1-14.078-13.6V515.857h-12.68a13.855,13.855,0,0,0-14.075,13.32L1009.83,729.09h113.977V710.471Z" transform="translate(-1005.903 -41.24)" fill="#a0a033"/>
      <g id="Grupo_28722" data-name="Grupo 28722" transform="translate(78.414 481.936)">
        <rect id="Rectángulo_5613" data-name="Rectángulo 5613" width="33.208" height="27.676" transform="translate(0 109.525)" fill="#e0e04f"/>
        <path id="Trazado_57701" data-name="Trazado 57701" d="M1117.525,622V538.111c0-8.2-4.24-14.846-9.471-14.846H1094.6c-5.678,0-10.282,6.266-10.282,13.995V622Z" transform="translate(-1084.317 -523.265)" fill="#e0e04f"/>
      </g>
      <rect id="Rectángulo_5614" data-name="Rectángulo 5614" width="121.83" height="10.196" transform="translate(0 682.531)" fill="#ffd364"/>
      <path id="Trazado_57702" data-name="Trazado 57702" d="M1141.756,419.092l-2.243-10.2,169.62-13.3,1.346,9.753Z" transform="translate(-1005.903 -39.787)" fill="#ed5661"/>
      <g id="Grupo_28723" data-name="Grupo 28723" transform="translate(133.61 355.81)">
        <path id="Trazado_57703" data-name="Trazado 57703" d="M1298.812,403.576a7.214,7.214,0,0,1-.64,2.776l12.307-1-1.346-9.753-14.034,1.1C1297.47,398.828,1298.812,401.144,1298.812,403.576Z" transform="translate(-1139.513 -395.597)" fill="#e52e44"/>
        <path id="Trazado_57704" data-name="Trazado 57704" d="M1194.845,404.668l-55.332,4.338,2.244,10.2,61.963-5.047C1198.521,411.425,1195.358,408.173,1194.845,404.668Z" transform="translate(-1139.513 -395.707)" fill="#e52e44"/>
      </g>
      <path id="Trazado_57705" data-name="Trazado 57705" d="M1024.862,330.287c13.094,27.017,48.569,64.254,92.8,74.9l15.787-23.033s-23.874-46.876-48.232-64.283S1018.242,316.626,1024.862,330.287Z" transform="translate(-1005.903 -38.757)" fill="#ffd364"/>
      <path id="Trazado_57706" data-name="Trazado 57706" d="M1091.05,319.2c.653,6.952-11.744,29.7-30.289,29.7-18.351,0-26.571-18.69-20.188-38.883-12.956,4.438-22.8,16.7-19.63,23.245,13.093,27.017,52.488,61.272,96.719,71.922l15.787-23.033S1113.577,338.841,1091.05,319.2Z" transform="translate(-1005.903 -38.754)" fill="#ffb850"/>
      <path id="Trazado_57707" data-name="Trazado 57707" d="M1045.945,371.624c5.618-10.6,50.153-39.836,62.942-37.841,10.77,9.642,45.737,62.757,46.617,63.962s-19.418,17.458-23.456,18.6S1071.308,399.754,1045.945,371.624Z" transform="translate(-1005.903 -39.04)" fill="#ffe6ae"/>
      <path id="Trazado_57708" data-name="Trazado 57708" d="M1066.437,353.677c-9.993,6.922-21.3,15.064-23.513,19.248,25.363,28.129,85.087,44.8,89.124,43.661C1134.021,416.028,1085.187,380.607,1066.437,353.677Z" transform="translate(-1005.903 -39.281)" fill="#f9d48a"/>
      <path id="Trazado_57709" data-name="Trazado 57709" d="M1206.374,473l18.847,10.64,15.481,1.108,7.4-6.65-21.314.886Z" transform="translate(-1005.903 -40.722)" fill="#ffb850"/>
      <path id="Trazado_57710" data-name="Trazado 57710" d="M1173.841,325.146c19.3,44.44,34.154,70.061,71.363,68.6C1222.392,384.895,1201.745,369.506,1173.841,325.146Z" transform="translate(-1005.903 -38.937)" fill="#ffb850"/>
      <path id="Trazado_57711" data-name="Trazado 57711" d="M1065.024,603.359c-22.305,0-40.386,17.863-40.386,39.9s18.081,39.9,40.386,39.9,40.385-17.864,40.385-39.9S1087.328,603.359,1065.024,603.359Zm0,68.108a28.211,28.211,0,1,1,28.553-28.209A28.383,28.383,0,0,1,1065.024,671.467Z" transform="translate(-1005.903 -42.296)" fill="#fffcf6" style="mix-blend-mode: overlay;isolation: isolate"/>
      <path id="Trazado_57712" data-name="Trazado 57712" d="M1168.595,209.276l-16.293,8.3c36.054,18.792,85.629,18.532,103.657,8.644C1255.959,226.218,1202.57,230.974,1168.595,209.276Z" transform="translate(-1005.903 -37.538)" fill="#ffb850"/>
      <path id="Trazado_57713" data-name="Trazado 57713" d="M1249.748,123.152a332.243,332.243,0,0,0-18.356-65.714l-7.223,1.464C1227.282,89.608,1238.234,118.211,1249.748,123.152Z" transform="translate(-1005.903 -35.704)" fill="#a2d1dd"/>
      <g id="Grupo_28729" data-name="Grupo 28729" transform="translate(159.412 230.131)">
        <g id="Grupo_28728" data-name="Grupo 28728" transform="translate(7.842 10.758)">
          <path id="Trazado_57714" data-name="Trazado 57714" d="M1195.812,299.453c-1.053,5.254-5.883,6.623-7.992,5.278-2.16-1.378-3.069-5.039-.446-8.52C1192.558,289.334,1197.906,289.016,1195.812,299.453Z" transform="translate(-1173.157 -279.417)" fill="#4f3b40"/>
          <path id="Trazado_57715" data-name="Trazado 57715" d="M1196.977,291.089c-6.5-6.316,2.761-13.277,6.832-6.789S1203.271,297.2,1196.977,291.089Z" transform="translate(-1173.157 -279.301)" fill="#4f3b40"/>
          <path id="Trazado_57716" data-name="Trazado 57716" d="M1197.612,290.514c-5.232-5.085,2.222-10.686,5.5-5.463S1202.677,295.436,1197.612,290.514Z" transform="translate(-1173.157 -279.316)" fill="#ffd364"/>
          <path id="Trazado_57717" data-name="Trazado 57717" d="M1194.973,295.74c-8.185-4.772-.591-14.115,5.18-8.565S1202.9,300.36,1194.973,295.74Z" transform="translate(-1173.157 -279.346)" fill="#4f3b40"/>
          <path id="Trazado_57718" data-name="Trazado 57718" d="M1195.454,294.6c-6.514-3.8-.47-11.232,4.122-6.815S1201.76,298.272,1195.454,294.6Z" transform="translate(-1173.157 -279.358)" fill="#ffd364"/>
          <path id="Trazado_57719" data-name="Trazado 57719" d="M1187.966,293.614c-8.955,3.887-17.177,2.16-14.181-3.216S1187.966,293.614,1187.966,293.614Z" transform="translate(-1173.157 -279.384)" fill="#4f3b40"/>
          <path id="Trazado_57720" data-name="Trazado 57720" d="M1189.483,292.27c-8.7-4.419-12.535-11.832-6.425-12.937S1189.483,292.27,1189.483,292.27Z" transform="translate(-1173.157 -279.271)" fill="#4f3b40"/>
          <g id="Grupo_28724" data-name="Grupo 28724" transform="translate(16.292 23.027)">
            <path id="Trazado_57721" data-name="Trazado 57721" d="M1193.38,308.35l-3.931-5.533.669-.237,3.931,5.533Z" transform="translate(-1189.449 -302.58)" fill="#4f3b40"/>
          </g>
          <g id="Grupo_28725" data-name="Grupo 28725" transform="translate(19.264 22.8)">
            <path id="Trazado_57722" data-name="Trazado 57722" d="M1196.108,308.154l-3.686-5.615.7-.189,3.687,5.615Z" transform="translate(-1192.422 -302.35)" fill="#4f3b40"/>
          </g>
          <g id="Grupo_28726" data-name="Grupo 28726" transform="translate(20.809 20.509)">
            <path id="Trazado_57723" data-name="Trazado 57723" d="M1197.652,305.836l-3.687-5.615.7-.189,3.687,5.615Z" transform="translate(-1193.966 -300.032)" fill="#4f3b40"/>
          </g>
          <g id="Grupo_28727" data-name="Grupo 28727" transform="translate(21.714 18.126)">
            <path id="Trazado_57724" data-name="Trazado 57724" d="M1198.558,303.422l-3.687-5.615.7-.189,3.686,5.615Z" transform="translate(-1194.871 -297.618)" fill="#4f3b40"/>
          </g>
        </g>
        <path id="Trazado_57725" data-name="Trazado 57725" d="M1190.668,268.382a25.049,25.049,0,1,0,25.354,25.047A25.2,25.2,0,0,0,1190.668,268.382Zm0,46.659a21.613,21.613,0,1,1,21.876-21.612A21.745,21.745,0,0,1,1190.668,315.041Z" transform="translate(-1165.315 -268.382)" fill="#ed5661"/>
        <path id="Trazado_57726" data-name="Trazado 57726" d="M1213.908,297.448l-.056-4-47.281-.214.055,4Z" transform="translate(-1165.315 -268.682)" fill="#ed5661"/>
      </g>
      <g id="Grupo_28730" data-name="Grupo 28730" transform="translate(103.878 332.171)">
        <path id="Trazado_57727" data-name="Trazado 57727" d="M1150.684,390.431c15.364-1.478,23.113-2.222,27.842,2.214s8.981,23.245,7.529,28.105-17.115,1.13-20.028.7-4.871-8.447-2.662-10.381,10.544-3.867,10.384-5.551a10.113,10.113,0,0,0-1.45-3.67S1151.147,402.321,1150.684,390.431Z" transform="translate(-1109.781 -371.883)" fill="#ffe6ae"/>
        <path id="Trazado_57728" data-name="Trazado 57728" d="M1167.933,421.1c.7-5.342,9.267-7.21,10.621-4.653s11.589,16.3,9.544,19.711-8.777,6.941-10.642,5.238S1167.364,425.419,1167.933,421.1Z" transform="translate(-1109.781 -372.197)" fill="#ffe6ae"/>
        <path id="Trazado_57729" data-name="Trazado 57729" d="M1155.216,425.143c.7-5.342,9.267-7.209,10.621-4.653s11.59,16.3,9.545,19.711-8.777,6.94-10.643,5.238S1154.647,429.464,1155.216,425.143Z" transform="translate(-1109.781 -372.246)" fill="#ffe6ae"/>
        <path id="Trazado_57730" data-name="Trazado 57730" d="M1143.287,430.755c.829-5.144,9.08-7.5,10.3-5.156s10.617,14.77,8.56,18.162-8.6,7.214-10.339,5.715S1142.617,434.914,1143.287,430.755Z" transform="translate(-1109.781 -372.31)" fill="#ffe6ae"/>
        <path id="Trazado_57731" data-name="Trazado 57731" d="M1135.354,371.67s12.415,15.741,17.478,17.362c7.792,2.495,15.025,6.952,25.987,13.519,3.212,1.924,6.467,23.426,6.744,31.157-4.263-1.108-35.543,12.738-35.543,12.738s-12.932-11.924-18.76-23.237c-1.771-3.439-12.359-19.435-19.952-25.5C1102.4,390.6,1135.354,371.67,1135.354,371.67Z" transform="translate(-1109.781 -371.67)" fill="#ffe6ae"/>
      </g>
      <path id="Trazado_57732" data-name="Trazado 57732" d="M1393.293,408.3c11.443,8.423,30.827,8.611,34.74,13.765s4.925,24.4,2.672,28.953-17.066-1.709-19.865-2.614-3.375-9.132-.87-10.675,11.049-2.074,11.176-3.761a3.707,3.707,0,0,0-.952-2.751S1385.739,434.818,1393.293,408.3Z" transform="translate(-1005.903 -39.941)" fill="#ffe6ae"/>
      <path id="Trazado_57733" data-name="Trazado 57733" d="M1412.158,446.921c1.6-5.151,10.356-5.58,11.259-2.836s8.671,17.982,6.078,21.009-11.378,3.408-12.93,1.421S1410.867,451.087,1412.158,446.921Z" transform="translate(-1005.903 -40.353)" fill="#ffe6ae"/>
      <path id="Trazado_57734" data-name="Trazado 57734" d="M1395.747,448.28c1.6-5.151,10.356-5.58,11.259-2.836s9.05,19.3,6.457,22.33-12.079,2.652-13.63.665S1394.457,452.445,1395.747,448.28Z" transform="translate(-1005.903 -40.369)" fill="#ffe6ae"/>
      <path id="Trazado_57735" data-name="Trazado 57735" d="M1380.075,451.764c1.687-4.935,10.222-5.9,11.029-3.384s9.816,18.755,7.214,21.76-11.546,3.252-13,1.489S1378.712,455.754,1380.075,451.764Z" transform="translate(-1005.903 -40.409)" fill="#ffe6ae"/>
      <path id="Trazado_57736" data-name="Trazado 57736" d="M1484.475,557.543,1465.964,508l24.9-9.31,9.423,56.19Z" transform="translate(-1005.903 -41.032)" fill="#ffe6ae"/>
      <path id="Trazado_57737" data-name="Trazado 57737" d="M1483.865,544.367l-10.119-27.083,13.615-5.09,5.152,30.719Z" transform="translate(-1005.903 -41.195)" fill="#b9bf47"/>
    </g>
  </g>
</svg>
