<svg xmlns="http://www.w3.org/2000/svg" width="1214" height="585.74" viewBox="0 0 1214 585.74">
  <g id="Grupo_28739" data-name="Grupo 28739" transform="translate(-351 -1027.26)">
    <rect id="Rectángulo_5378" data-name="Rectángulo 5378" width="1214" height="133.28" transform="translate(351 1479.72)" fill="#d87b61"/>
    <path id="Trazado_49702" data-name="Trazado 49702" d="M584.338,417.066H27.958a5.308,5.308,0,0,0-5.292,5.293v8.425a5.308,5.308,0,0,0,5.292,5.293h556.38a5.309,5.309,0,0,0,5.293-5.293v-8.425A5.31,5.31,0,0,0,584.338,417.066Z" transform="translate(655.415 1093.391)" fill="#bc5c46"/>
    <rect id="Rectángulo_5379" data-name="Rectángulo 5379" width="43.914" height="3.584" transform="translate(680.521 1423.215)" fill="#fbcc02"/>
    <path id="Trazado_49703" data-name="Trazado 49703" d="M61.536,349.469H54.5V362.91l5.323,3.812Z" transform="translate(667.938 1069.609)" fill="#333"/>
    <rect id="Rectángulo_5380" data-name="Rectángulo 5380" width="33.078" height="80.699" transform="translate(726.432 1442.505)" fill="#fbcc02"/>
    <rect id="Rectángulo_5381" data-name="Rectángulo 5381" width="3.707" height="8.078" transform="translate(718.732 1421.536)" fill="#f9ae06"/>
    <rect id="Rectángulo_5382" data-name="Rectángulo 5382" width="11.943" height="80.699" transform="translate(747.636 1442.495) rotate(0.098)" fill="#f9ae06"/>
    <rect id="Rectángulo_5383" data-name="Rectángulo 5383" width="3.994" height="80.699" transform="translate(755.516 1442.505)" fill="#fbcc02"/>
    <rect id="Rectángulo_5384" data-name="Rectángulo 5384" width="3.422" height="80.699" transform="translate(731.084 1442.505)" fill="#fff"/>
    <rect id="Rectángulo_5385" data-name="Rectángulo 5385" width="4.6" height="40.729" transform="translate(737.801 1447.31)" fill="#f23812"/>
    <path id="Trazado_49704" data-name="Trazado 49704" d="M61.781,417.971l21.151,12a2.005,2.005,0,0,0,2.936-1.775V404.226a2,2,0,0,0-2.933-1.776L61.784,414.418A2,2,0,0,0,61.781,417.971Z" transform="translate(670.378 1090.357)" fill="#fbcc02"/>
    <path id="Trazado_49705" data-name="Trazado 49705" d="M84.2,431.72a3.175,3.175,0,0,1-1.478-.366L61.547,419.339a3.187,3.187,0,0,1,.022-5.636l21.117-11.948a3.184,3.184,0,0,1,4.694,2.8v23.972A3.193,3.193,0,0,1,84.2,431.72Zm0-27.988a.815.815,0,0,0-.379.1L62.7,415.777a.825.825,0,0,0-.475.748.806.806,0,0,0,.44.733l.035.018,21.151,12a.79.79,0,0,0,.775-.043.812.812,0,0,0,.4-.706V404.558a.811.811,0,0,0-.4-.7A.834.834,0,0,0,84.193,403.732Z" transform="translate(670.045 1090.024)" fill="#f23812"/>
    <g id="Grupo_22827" data-name="Grupo 22827" transform="translate(736.703 1495.798)">
      <path id="Trazado_49706" data-name="Trazado 49706" d="M79.185,420.833a10.678,10.678,0,0,0-1.843-1.474l-.014.017c-.067-.343-.17-.754-.231-.992a3.806,3.806,0,0,0,.858-.237,3.527,3.527,0,0,0,0-5.945,3.835,3.835,0,0,0-.864-.238c.052-.2.138-.545.206-.862a12.576,12.576,0,0,0,1.888-1.548c.747-.851,3.312-1.559,4.127-2.328s.424-.862-.451-.3-3.028,1.229-3.772,1.894c-.536.478-1.325,1.052-1.793,1.424-.088-.068-.238,0-.443.269a7.906,7.906,0,0,0-.736,1.375c-.266,0-.535,0-.81.022.04-.241.093-.527.159-.8.056-.238.2-.66.28-1.021a8.548,8.548,0,0,1,.538-1.52,10.64,10.64,0,0,1,1.8-1.774c.935-.854,1.246-1.182,1.251-1.76,0-.418-.56.378-1.264,1.03a20.631,20.631,0,0,0-2.278,2.086,13.1,13.1,0,0,0-.8,1.9l.008.007a4.4,4.4,0,0,0-.265.655,5.528,5.528,0,0,0-.234,1.065c-.01.091-.011.164-.014.238-.227.036-.447.071-.669.118-.266-.378-.8-1.136-1.11-1.524a2.472,2.472,0,0,0-.32-.343c-.23-.4-.591-1.006-.9-1.459-.492-.73-1.7-3.582-2.227-4.1s-.412.209,0,1.044,1.416,3.008,1.721,3.635a14.436,14.436,0,0,0,.878,1.436,8.575,8.575,0,0,0,.666,1.262c.1.169.178.28.178.28h.164c-.224.063-.428.131-.634.2a9.586,9.586,0,0,0-1.548-1.006c-.407-.355-1.214-1.052-1.705-1.413a26.358,26.358,0,0,0-2.647-1.758c-.534-.293-1.007-.752-1.308-.885-.6-.266-.139.4.259.741.256.221,2.288,1.772,2.886,2.19.418.293,1.434,1.176,2.011,1.686a1.051,1.051,0,0,0,.166.263,2.724,2.724,0,0,0,.606.51c.074.047.145.088.212.125a2.31,2.31,0,0,0-1.048,1.173,2.284,2.284,0,0,0-.967-.12c-.663.1-.326.523.1.523a4.118,4.118,0,0,1,.748.1,3.637,3.637,0,0,0-.033.479,3.185,3.185,0,0,0,.054.623,4.225,4.225,0,0,1-.769.107c-.425,0-.762.417-.1.521a2.361,2.361,0,0,0,1.028-.138,2.326,2.326,0,0,0,.967,1.03c-.063.036-.125.072-.192.114a2.753,2.753,0,0,0-.606.509.885.885,0,0,0-.2.426l-.007-.007a24.973,24.973,0,0,1-1.965,1.77c-.6.417-2.629,1.969-2.886,2.19-.4.346-.858,1.006-.259.741.3-.132.775-.592,1.308-.885a26.355,26.355,0,0,0,2.647-1.76,14.591,14.591,0,0,0,1.682-1.639,9.1,9.1,0,0,0,1.549-1c.188.063.378.125.581.184h-.089s-.074.11-.178.279a8.7,8.7,0,0,0-.66,1.247,16.151,16.151,0,0,0-1.119,1.733c-.305.627-1.31,2.8-1.721,3.635s-.527,1.565,0,1.042,1.735-3.373,2.227-4.1c.361-.535.8-1.283,1-1.648a1.935,1.935,0,0,0,.447-.435c.3-.383.826-1.122,1.1-1.5.229.049.453.086.686.124,0,.068,0,.132.013.213a5.529,5.529,0,0,0,.234,1.064,4.363,4.363,0,0,0,.262.648l-.006,0a13.036,13.036,0,0,0,.8,1.9,20.63,20.63,0,0,0,2.278,2.086c.7.652,1.268,1.448,1.264,1.031-.006-.58-.316-.906-1.251-1.761a10.585,10.585,0,0,1-1.8-1.774,8.6,8.6,0,0,1-.546-1.547c-.026-.125-.06-.252-.1-.38v-.007h0c-.067-.231-.138-.451-.173-.6-.063-.262-.114-.536-.153-.772a7.984,7.984,0,0,0,.814.015,7.74,7.74,0,0,0,.726,1.354c.17.227.3.307.392.29.461.369,1.29.97,1.845,1.464.744.663,2.9,1.329,3.772,1.894s1.268.47.451-.3S79.932,421.683,79.185,420.833Z" transform="translate(-64.739 -404.531)" fill="#424242"/>
    </g>
    <path id="Trazado_49707" data-name="Trazado 49707" d="M77.148,349.13H59.078c-1.464,5.809-1.711,23.9-1.711,23.9H86.451c-.362-4.374-1.152-12.965-1.977-15.707C83.351,353.589,80.466,349.13,77.148,349.13Z" transform="translate(669.064 1069.475)" fill="#424242"/>
    <path id="Trazado_49708" data-name="Trazado 49708" d="M89.013,363.068C86.4,351.9,83.261,346.674,78.936,346.674H62.017c-1.882,0-3.125,2.249-3.422,3.422h18.07c3.318,0,6.2,4.459,7.326,8.193.825,2.742,1.615,11.333,1.977,15.707h3.995S89.645,365.775,89.013,363.068Z" transform="translate(669.547 1068.51)" fill="#6d6d6d"/>
    <path id="Trazado_49709" data-name="Trazado 49709" d="M427.873,396.379c-3.16-4.5-10.667-12.041-10.667-12.041H404.433s-7.507,7.538-10.667,12.041-3.074,8.633-3.074,14.329c0,4.911,0,20.177,0,24.294h40.246c0-4.117,0-19.383,0-24.294C430.945,405.012,431.033,400.882,427.873,396.379Z" transform="translate(800.172 1082.409)" fill="#f23812"/>
    <rect id="Rectángulo_5386" data-name="Rectángulo 5386" width="19.155" height="3.066" transform="translate(1201.248 1466.855)" fill="#db2305"/>
    <path id="Trazado_49710" data-name="Trazado 49710" d="M417.3,373.551A3.565,3.565,0,0,0,413.745,370H401.7a3.565,3.565,0,0,0-3.554,3.554v16.4H401.7V375.976a.987.987,0,1,1,1.974,0v13.977h3.262V375.976a.987.987,0,1,1,1.974,0v13.977h3.26V375.976a.988.988,0,0,1,1.976,0v13.977H417.3Z" transform="translate(803.104 1076.768)" fill="#fbcc02"/>
    <path id="Trazado_49711" data-name="Trazado 49711" d="M401.682,373.579a.991.991,0,0,0-.988.988v13.977h1.974V374.567A.989.989,0,0,0,401.682,373.579Z" transform="translate(804.106 1078.177)" fill="#f9ae06"/>
    <path id="Trazado_49712" data-name="Trazado 49712" d="M405.438,373.579a.989.989,0,0,0-.987.988v13.977h1.974V374.567A.991.991,0,0,0,405.438,373.579Z" transform="translate(805.585 1078.177)" fill="#f9ae06"/>
    <path id="Trazado_49713" data-name="Trazado 49713" d="M409.2,373.579a.991.991,0,0,0-.988.988v13.977h1.976V374.567A.991.991,0,0,0,409.2,373.579Z" transform="translate(807.063 1078.177)" fill="#f9ae06"/>
    <circle id="Elipse_1350" data-name="Elipse 1350" cx="13.21" cy="13.21" r="13.21" transform="translate(1197.653 1486.12)" fill="#fbcc02"/>
    <path id="Trazado_49714" data-name="Trazado 49714" d="M408.959,425.5a13.86,13.86,0,1,1,13.859-13.861A13.876,13.876,0,0,1,408.959,425.5Zm0-26.422a12.561,12.561,0,1,0,12.561,12.561A12.576,12.576,0,0,0,408.959,399.075Z" transform="translate(801.906 1087.695)" fill="#424242"/>
    <g id="Grupo_22853" data-name="Grupo 22853" transform="translate(1201.132 1490.762)">
      <path id="Trazado_49715" data-name="Trazado 49715" d="M402.783,414.589a9.616,9.616,0,0,0,1.328-1.661l-.014-.013c.308-.06.679-.153.893-.208a3.429,3.429,0,0,0,.213.773,3.179,3.179,0,0,0,5.357,0,3.532,3.532,0,0,0,.215-.779c.181.047.49.124.776.185a11.381,11.381,0,0,0,1.4,1.7c.766.673,1.4,2.984,2.1,3.719s.778.38.269-.407-1.108-2.728-1.705-3.4c-.432-.483-.949-1.194-1.285-1.616.063-.079,0-.213-.241-.4a7.1,7.1,0,0,0-1.24-.663c0-.24,0-.482-.02-.729.217.036.474.084.72.142.215.05.595.184.921.252a7.82,7.82,0,0,1,1.37.485,9.561,9.561,0,0,1,1.6,1.622c.77.843,1.064,1.122,1.587,1.127.375,0-.341-.5-.928-1.138a18.4,18.4,0,0,0-1.881-2.052,11.655,11.655,0,0,0-1.714-.725l-.006.008a3.981,3.981,0,0,0-.591-.24,5.014,5.014,0,0,0-.959-.21c-.082-.008-.148-.01-.216-.013-.032-.2-.063-.4-.106-.6.34-.24,1.023-.723,1.374-1a2.306,2.306,0,0,0,.309-.287c.357-.208.906-.532,1.314-.808.658-.443,3.227-1.531,3.7-2.006s-.188-.371-.94,0-2.71,1.275-3.274,1.551a12.407,12.407,0,0,0-1.294.791,7.708,7.708,0,0,0-1.138.6c-.152.095-.251.16-.251.16v.148c-.057-.2-.12-.385-.181-.57a8.692,8.692,0,0,0,.907-1.395c.32-.366.947-1.094,1.272-1.537A24.006,24.006,0,0,0,414,403.012c.263-.481.677-.907.8-1.179.238-.541-.357-.125-.667.234-.2.231-1.6,2.061-1.974,2.6-.263.378-1.06,1.292-1.519,1.813a.926.926,0,0,0-.238.149,2.464,2.464,0,0,0-.458.546c-.042.067-.079.13-.113.191a2.077,2.077,0,0,0-1.058-.945,2.054,2.054,0,0,0,.107-.871c-.093-.6-.47-.294-.47.089a3.75,3.75,0,0,1-.092.674,3.4,3.4,0,0,0-.432-.031,2.984,2.984,0,0,0-.562.049,3.817,3.817,0,0,1-.1-.693c0-.383-.376-.687-.47-.089a2.131,2.131,0,0,0,.124.927,2.09,2.09,0,0,0-.928.871c-.032-.056-.064-.113-.1-.173a2.466,2.466,0,0,0-.458-.546.785.785,0,0,0-.383-.184l.006-.007a22.359,22.359,0,0,1-1.594-1.771c-.376-.538-1.774-2.367-1.974-2.6-.311-.359-.906-.775-.667-.234.12.272.534.7.8,1.179a24.017,24.017,0,0,0,1.586,2.385,13.178,13.178,0,0,0,1.477,1.516,8.235,8.235,0,0,0,.9,1.395c-.057.17-.113.34-.166.524v-.081s-.1-.065-.251-.16A7.788,7.788,0,0,0,404,408a14.768,14.768,0,0,0-1.562-1.009c-.564-.275-2.522-1.179-3.274-1.549s-1.41-.475-.939,0,3.039,1.562,3.7,2.006c.482.325,1.158.718,1.485.906a1.759,1.759,0,0,0,.392.4c.346.273,1.01.745,1.356.988-.043.2-.078.408-.11.617-.063,0-.12,0-.194.011a5.012,5.012,0,0,0-.959.21,3.954,3.954,0,0,0-.584.237l0-.006a11.655,11.655,0,0,0-1.714.725,18.26,18.26,0,0,0-1.88,2.052c-.588.634-1.3,1.143-.929,1.138.523-.006.816-.284,1.587-1.127a9.5,9.5,0,0,1,1.6-1.622,7.753,7.753,0,0,1,1.393-.492q.169-.038.343-.088h.006c.208-.061.407-.124.539-.156.237-.056.483-.1.7-.138-.021.249-.017.492-.014.733a7.01,7.01,0,0,0-1.221.655c-.2.153-.276.272-.261.352-.333.417-.874,1.162-1.319,1.662-.6.67-1.2,2.61-1.705,3.4s-.424,1.141.269.407S402.017,415.262,402.783,414.589Z" transform="translate(-398.061 -401.574)" fill="#f23812"/>
    </g>
    <rect id="Rectángulo_5387" data-name="Rectángulo 5387" width="27.065" height="1.366" transform="translate(1201.025 1508.656) rotate(-45)" fill="#424242"/>
    <rect id="Rectángulo_5388" data-name="Rectángulo 5388" width="40.25" height="3.333" transform="translate(1190.869 1517.411)" fill="#db2305"/>
    <rect id="Rectángulo_5389" data-name="Rectángulo 5389" width="25.78" height="2.15" transform="translate(1197.973 1480.805)" fill="#fbcc02"/>
    <rect id="Rectángulo_5390" data-name="Rectángulo 5390" width="10.274" height="6.735" transform="translate(1087.607 1391.097)" fill="#f23812"/>
    <path id="Trazado_49716" data-name="Trazado 49716" d="M336.481,338.324a8.473,8.473,0,0,0-8.32-7.077h-8.6a8.473,8.473,0,0,0-8.32,7.077Z" transform="translate(768.923 1063.987)" fill="#333"/>
    <g id="Grupo_22869" data-name="Grupo 22869" transform="translate(1069.189 1424.854)">
      <g id="Grupo_22868" data-name="Grupo 22868">
        <rect id="Rectángulo_5391" data-name="Rectángulo 5391" width="36.901" height="84.877" fill="#f23812"/>
      </g>
    </g>
    <g id="Grupo_22871" data-name="Grupo 22871" transform="translate(1069.189 1509.731)">
      <g id="Grupo_22870" data-name="Grupo 22870">
        <path id="Trazado_49717" data-name="Trazado 49717" d="M303.366,413.421v14.5h36.9v-14.5Z" transform="translate(-303.366 -413.421)" fill="#424242"/>
      </g>
    </g>
    <g id="Grupo_22873" data-name="Grupo 22873" transform="translate(1106.091 1424.854)">
      <g id="Grupo_22872" data-name="Grupo 22872">
        <rect id="Rectángulo_5392" data-name="Rectángulo 5392" width="10.413" height="84.877" fill="#db2305"/>
      </g>
    </g>
    <g id="Grupo_22875" data-name="Grupo 22875" transform="translate(1106.091 1509.731)">
      <g id="Grupo_22874" data-name="Grupo 22874">
        <path id="Trazado_49718" data-name="Trazado 49718" d="M329.85,413.421v14.5h10.413v-14.5Z" transform="translate(-329.85 -413.421)" fill="#333"/>
      </g>
    </g>
    <g id="Grupo_22878" data-name="Grupo 22878" transform="translate(1069.124 1401.887)">
      <g id="Grupo_22877" data-name="Grupo 22877">
        <path id="Trazado_49719" data-name="Trazado 49719" d="M336.558,336.022H317.524c-16.549,0-14.074,24.765-14.074,24.765h36.836V336.519A13.8,13.8,0,0,0,336.558,336.022Z" transform="translate(-303.319 -336.022)" fill="#424242"/>
      </g>
    </g>
    <g id="Grupo_22880" data-name="Grupo 22880" transform="translate(1116.505 1420.856)">
      <g id="Grupo_22879" data-name="Grupo 22879">
        <path id="Trazado_49720" data-name="Trazado 49720" d="M337.324,349.636v4.874A45.974,45.974,0,0,0,337.324,349.636Z" transform="translate(-337.324 -349.636)" fill="#424242"/>
      </g>
    </g>
    <g id="Grupo_22882" data-name="Grupo 22882" transform="translate(1106.091 1402.385)">
      <g id="Grupo_22881" data-name="Grupo 22881">
        <path id="Trazado_49721" data-name="Trazado 49721" d="M340.264,359.724V354.85c-.343-6.433-2.249-16.2-10.414-18.471v24.268H340.2S340.23,360.305,340.264,359.724Z" transform="translate(-329.85 -336.379)" fill="#333"/>
      </g>
    </g>
    <rect id="Rectángulo_5393" data-name="Rectángulo 5393" width="30.171" height="2.898" transform="translate(1075.92 1430.393)" fill="#fff"/>
    <rect id="Rectángulo_5394" data-name="Rectángulo 5394" width="30.171" height="2.898" transform="translate(1075.92 1438.263)" fill="#fff"/>
    <g id="Grupo_22889" data-name="Grupo 22889" transform="translate(1072.461 1365.966)">
      <path id="Trazado_49722" data-name="Trazado 49722" d="M337.887,335.644H314.106a8.4,8.4,0,0,1-8.392-8.392v-8.616a8.4,8.4,0,0,1,8.392-8.395h23.781a8.4,8.4,0,0,1,8.393,8.395v8.616A8.4,8.4,0,0,1,337.887,335.644Zm-23.781-20.213a3.208,3.208,0,0,0-3.2,3.2v8.616a3.207,3.207,0,0,0,3.2,3.2h23.781a3.206,3.206,0,0,0,3.2-3.2v-8.616a3.208,3.208,0,0,0-3.2-3.2Z" transform="translate(-305.714 -310.241)" fill="#f23812"/>
    </g>
    <path id="Trazado_49723" data-name="Trazado 49723" d="M340.963,402.25a16.881,16.881,0,1,1-16.88-16.827A16.854,16.854,0,0,1,340.963,402.25Z" transform="translate(767.332 1085.296)" fill="#424242"/>
    <path id="Trazado_49724" data-name="Trazado 49724" d="M329.493,403.6a5.31,5.31,0,0,1-1.7-1.607c.113-.411-.028-.783-.327-.779a4.945,4.945,0,0,0-.9.2c-.015-.085-.026-.166-.043-.252a19.585,19.585,0,0,0-.609-2.374,1.53,1.53,0,0,0,.468-.314,11.016,11.016,0,0,0,1.825,1.914c1.166.9,2.626.708,2.663.134.031-.483-1.361-.483-2.443-1.018a5.33,5.33,0,0,1-1.7-1.607c.113-.412-.026-.784-.326-.78a5.545,5.545,0,0,0-1.007.229c-.341-.851-.616-1.378-.637-1.418l.013-.007a6.321,6.321,0,0,0-.233-.948,5.514,5.514,0,0,0-.58-1.262,4.75,4.75,0,0,1,.865-.745,5.238,5.238,0,0,0,2.112-2.266,10.189,10.189,0,0,0,.634-2.727c.018-.822-.5-.759-.5,0a6.039,6.039,0,0,1-1.073,3.173,7.327,7.327,0,0,1-2.75,1.768,2.217,2.217,0,0,0-1.407-.489,2.445,2.445,0,0,0-.924.17,2.146,2.146,0,0,0-.437.244,7.325,7.325,0,0,1-2.546-1.693,6.052,6.052,0,0,1-1.073-3.173c0-.759-.516-.822-.5,0A10.2,10.2,0,0,0,317,390.7a5.238,5.238,0,0,0,2.112,2.266,4.79,4.79,0,0,1,.7.575,5.228,5.228,0,0,0-.7,2.38s-.293.555-.654,1.457a6.358,6.358,0,0,0-1.117-.261c-.3,0-.44.368-.327.78a5.317,5.317,0,0,1-1.7,1.607c-1.081.535-2.473.535-2.443,1.018.036.574,1.5.764,2.663-.134a10.966,10.966,0,0,0,1.825-1.914,1.577,1.577,0,0,0,.577.361,19.42,19.42,0,0,0-.594,2.327c-.018.1-.032.19-.049.286a5.593,5.593,0,0,0-1.021-.231c-.3,0-.439.368-.327.779a5.3,5.3,0,0,1-1.7,1.607c-1.081.536-2.473.536-2.444,1.02.036.574,1.5.764,2.663-.134a11.028,11.028,0,0,0,1.827-1.914,1.585,1.585,0,0,0,.577.361,1.328,1.328,0,0,0,.194.054q-.125,1.041-.169,1.987l0-.006v.05a5.9,5.9,0,0,0-1.076.155c-.281.1-.277.5-.024.846a5.3,5.3,0,0,1-1.007,2.111c-.815.89-2.114,1.392-1.91,1.832.241.523,1.672.173,2.434-1.085a11.036,11.036,0,0,0,1.013-2.444,1.566,1.566,0,0,0,.555.124,23.2,23.2,0,0,0,.159,2.349h0a4.442,4.442,0,0,0,.153,1.058c.123.737.268,1.4.407,2a7.153,7.153,0,0,0,1.1,2.288,4.4,4.4,0,0,0,3.15,2.1v0l.032,0,.059,0,.06,0,.032,0v0c2.3-.121,3.924-3,4.248-4.383.153-.651.311-1.385.44-2.2a4.742,4.742,0,0,0,.135-.971h0c.079-.685.13-1.434.143-2.235a1.525,1.525,0,0,0,.431-.117,11.03,11.03,0,0,0,1.013,2.444c.764,1.258,2.195,1.608,2.436,1.085.2-.44-1.1-.942-1.912-1.832a5.3,5.3,0,0,1-1.006-2.111c.254-.344.258-.741-.025-.846a5.13,5.13,0,0,0-.943-.143l.006-.061-.014.033c-.029-.648-.088-1.332-.176-2.048.026-.007.049-.011.077-.021a1.578,1.578,0,0,0,.575-.361,11.083,11.083,0,0,0,1.827,1.914c1.165.9,2.626.708,2.663.134C331.968,404.139,330.576,404.139,329.493,403.6Z" transform="translate(769.139 1086.066)" fill="#f23812"/>
    <path id="Trazado_49725" data-name="Trazado 49725" d="M324.361,420.2a17.905,17.905,0,1,1,17.9-17.906A17.926,17.926,0,0,1,324.361,420.2Zm0-34.081A16.176,16.176,0,1,0,340.535,402.3,16.193,16.193,0,0,0,324.361,386.123Z" transform="translate(767.039 1084.892)" fill="#fff"/>
    <rect id="Rectángulo_5395" data-name="Rectángulo 5395" width="34.072" height="1.73" transform="matrix(0.713, -0.701, 0.701, 0.713, 1078.78, 1498.658)" fill="#fff"/>
    <path id="Trazado_49726" data-name="Trazado 49726" d="M130.8,324.932l-13,1.877v5.837l12.178,2.222Z" transform="translate(692.835 1061.026)" fill="#fbcc02"/>
    <rect id="Rectángulo_5396" data-name="Rectángulo 5396" width="6.142" height="14.066" transform="translate(834.458 1395.186)" fill="#fbcc02"/>
    <g id="Grupo_22908" data-name="Grupo 22908" transform="translate(819.023 1428.422)">
      <path id="Trazado_49727" data-name="Trazado 49727" d="M160.63,438.841c0-4.747.451-45.363,0-58.163-.316-8.915-5.976-19.6-9.385-25.27H133.406c-3.408,5.669-9.069,16.355-9.384,25.27-.453,12.8,0,53.416,0,58.163a11.753,11.753,0,0,0,.13,1.719H160.5A11.753,11.753,0,0,0,160.63,438.841Z" transform="translate(-123.821 -355.408)" fill="#fbcc02"/>
    </g>
    <g id="Grupo_22910" data-name="Grupo 22910" transform="translate(819.354 1513.574)">
      <path id="Trazado_49728" data-name="Trazado 49728" d="M134.168,424.786H150.3c6.487,0,9.484-4.055,10.11-8.264H124.058C124.684,420.731,127.681,424.786,134.168,424.786Z" transform="translate(-124.058 -416.522)" fill="#f9ae06"/>
    </g>
    <rect id="Rectángulo_5397" data-name="Rectángulo 5397" width="12.283" height="7.711" transform="translate(831.387 1408.164)" fill="#f9ae06"/>
    <rect id="Rectángulo_5398" data-name="Rectángulo 5398" width="17.695" height="13.353" transform="translate(828.681 1415.069)" fill="#f9ae06"/>
    <g id="Grupo_22917" data-name="Grupo 22917" transform="translate(802.254 1381.381)">
      <path id="Trazado_49729" data-name="Trazado 49729" d="M161.781,330.217c-3.284-5.2-8.937-9.7-20.793-8.318s-13.209,14.362-16.7,23.967-7.262,11.508-10.725,14.567a8.555,8.555,0,0,0-1.776,3.543c2.342-.718,6.776-2.339,9.865-5.094,4.369-3.9,8.5-12.874,11.515-18.425s7.5-11.817,16.478-8.864,9.685,8.038,7.088,14.3a23.148,23.148,0,0,1-3.616,6.022l-.085,3.423h2.879s3.17-1.758,6.308-9.469C163.837,341.881,164.45,334.446,161.781,330.217Z" transform="translate(-111.785 -321.647)" fill="#f9ae06"/>
    </g>
    <g id="Grupo_22919" data-name="Grupo 22919" transform="translate(802.135 1390.57)">
      <path id="Trazado_49730" data-name="Trazado 49730" d="M149.675,329c-8.976-2.952-13.465,3.313-16.478,8.864s-7.145,14.528-11.515,18.425c-3.089,2.755-7.523,4.376-9.865,5.094-.075.266-.118.439-.118.439s5.827.387,12.671-5.389,9.957-19.553,14.92-22.192c5.477-2.913,13.019-1.074,14.938,2.185,2.377,4.038-.993,9.411-.993,9.411l-.088,3.482a23.148,23.148,0,0,0,3.616-6.022C159.36,337.037,158.653,331.952,149.675,329Z" transform="translate(-111.7 -328.242)" fill="#f78f08"/>
    </g>
    <rect id="Rectángulo_5399" data-name="Rectángulo 5399" width="30.71" height="42.918" transform="translate(822.512 1457.417)" fill="#fff"/>
    <path id="Trazado_49731" data-name="Trazado 49731" d="M153.488,396.668c-.7-1.143-2.39-1.665-3.639-2.041-1.275-.383-2.532-.822-3.783-1.279a23.376,23.376,0,0,1-2.87-1.184l-.046-.047a3.754,3.754,0,0,0,.031-.612c.2-.173.46-.4.733-.607a13.972,13.972,0,0,0,2.174-2.4c.315-.475.334-.751.3-.9.415-.676.056-.959,1.051-2.188a1.15,1.15,0,0,0,.326-.652c.493-.366,1.662-1.044,2.487-1.535a15.871,15.871,0,0,0,3.457-2.348c.44-.573.015-.517-.777.137a32.469,32.469,0,0,1-3.922,2.392,3.051,3.051,0,0,0-1.287,1.2l-.006,0a7.941,7.941,0,0,0-.966,1.126,3.106,3.106,0,0,0-.449,1.732,13.077,13.077,0,0,1-2.194,2.663,6.811,6.811,0,0,0-.946,1.131.8.8,0,0,0-.171-.456c-.04-.038-.085-.07-.128-.1a2.625,2.625,0,0,0-.995-.472,1.557,1.557,0,0,0,.431-.329v0s.961-.49.895-1.35-1.18-.975-1.18-.975h0a1.456,1.456,0,0,0-.184-.1,20.05,20.05,0,0,1,1.736-2.723c.925-1.169,1.064-1.53.27-1a8.756,8.756,0,0,0-2.09,3.684,1.572,1.572,0,0,0-.3-.086l-.17-7.63-.387,7.629a1.532,1.532,0,0,0-.3.086,8.755,8.755,0,0,0-2.089-3.683c-.8-.527-.656-.166.27,1a20,20,0,0,1,1.733,2.72,1.67,1.67,0,0,0-.2.106c-.135.018-1.09.171-1.152.973a1.533,1.533,0,0,0,.847,1.325v-.008a1.543,1.543,0,0,0,.438.348,2.618,2.618,0,0,0-.681.274,2.477,2.477,0,0,0-.424.311.967.967,0,0,0-.184.581,6.6,6.6,0,0,0-1.027-1.257,13.035,13.035,0,0,1-2.193-2.663,3.121,3.121,0,0,0-.45-1.732,7.831,7.831,0,0,0-.966-1.126l0,0a3.056,3.056,0,0,0-1.289-1.2,32.437,32.437,0,0,1-3.921-2.392c-.793-.654-1.218-.709-.779-.137a15.881,15.881,0,0,0,3.458,2.348c.823.492,1.992,1.169,2.487,1.535a1.144,1.144,0,0,0,.325.652c.995,1.229.635,1.512,1.052,2.188-.038.151-.017.426.3.9a13.911,13.911,0,0,0,2.172,2.4c.319.245.626.511.826.69a3.78,3.78,0,0,0,.035.561,23.245,23.245,0,0,1-2.9,1.2c-1.251.457-2.509.9-3.784,1.279-1.248.376-2.943.9-3.639,2.041a1.629,1.629,0,0,0-.2.538,1.252,1.252,0,0,0-.022.142v.008a.884.884,0,0,0,.025.272,1.054,1.054,0,0,0,.079.2c.017.031.035.059.054.088l.021.029c.7,1.006,3.358.982,6.021-.4a11.832,11.832,0,0,0,1.63-1.034c-.106.224-.235.52-.383.9-.311.8-1.347,2.867-1.686,3.536a2.729,2.729,0,0,0-.886,1.85,22.4,22.4,0,0,0-.444,4.778c.177.709.387.975.414.626.032-.432-.052-1.151-.014-1.807a14.858,14.858,0,0,1,.458-3.407c.224-.9.383-1.5.472-1.829.121-.046.353-.223.752-.84a17.849,17.849,0,0,0,1.2-2.647,5.018,5.018,0,0,0,.392-1.368,11.254,11.254,0,0,0,2.358-2.543c.135-.206.256-.41.366-.61l.01.02c-.523.881-1.542,2.624-1.843,3.322a2.106,2.106,0,0,0-.13,1.208,12.43,12.43,0,0,0-.116,1.255c-.042.883-.387,3.263-.488,3.942a2.681,2.681,0,0,0-.712,1.662,52.68,52.68,0,0,0,.263,8.087c.177.709.387.975.414.626.032-.432-.052-1.151-.014-1.807.1-1.767-.528-5.591-.249-6.716.222-.9.38-1.492.47-1.821a3.019,3.019,0,0,0,.35-.92,17.875,17.875,0,0,0,.305-2.893,4.8,4.8,0,0,0-.072-1.46,9.34,9.34,0,0,1,.662-1.485c.458-.849,1.14-1.906,1.432-2.572a1.107,1.107,0,0,0,.777.428c.081.006.215.008.366.011a1.368,1.368,0,0,0-1.138.529,5.485,5.485,0,0,0-.472,1.5l-.01.024.007,0a10.447,10.447,0,0,0-.171,1.533l-.007.014.007,0a12.77,12.77,0,0,0,.042,1.717l0,0h0c.029.322.067.653.123,1,.028.167.064.312.1.47l-.008.015.013,0a12.115,12.115,0,0,0,.319,1.269l-.006.008.008,0a8.354,8.354,0,0,0,1.35,2.728,7.655,7.655,0,0,0,1.6-2.806l.013-.007-.008-.008a10.01,10.01,0,0,0,.425-1.675,13.448,13.448,0,0,0,.164-2.72l.007,0-.007-.011a10.652,10.652,0,0,0-.148-1.4l.008.011s-.006-.024-.017-.065a5.694,5.694,0,0,0-.49-1.593,1.367,1.367,0,0,0-1.138-.529c.152,0,.286-.006.366-.011a1.105,1.105,0,0,0,.782-.432c.291.666.975,1.726,1.434,2.576a9.443,9.443,0,0,1,.663,1.485,4.8,4.8,0,0,0-.072,1.46,17.858,17.858,0,0,0,.3,2.893,3.1,3.1,0,0,0,.35.92c.091.329.248.925.471,1.821.277,1.124-.35,4.949-.249,6.716.038.656-.047,1.375-.014,1.807.025.35.235.084.414-.626a52.856,52.856,0,0,0,.263-8.087,2.681,2.681,0,0,0-.712-1.662c-.1-.679-.446-3.058-.488-3.942a12.357,12.357,0,0,0-.116-1.254,2.122,2.122,0,0,0-.13-1.209c-.3-.7-1.326-2.449-1.848-3.327l.015-.032c.114.208.237.417.378.628a11.345,11.345,0,0,0,2.709,2.808,6.445,6.445,0,0,0,.353,1.1,17.871,17.871,0,0,0,1.205,2.647c.4.617.63.794.751.84.089.329.249.928.472,1.829a14.924,14.924,0,0,1,.46,3.407c.038.656-.047,1.375-.015,1.807.026.35.237.084.415-.626a22.417,22.417,0,0,0-.446-4.778,2.723,2.723,0,0,0-.886-1.85c-.339-.669-1.375-2.734-1.686-3.536-.084-.217-.162-.4-.233-.568a11.881,11.881,0,0,0,1.168.7c2.661,1.382,5.317,1.406,6.019.4l.022-.029c.018-.029.038-.057.053-.088a1.053,1.053,0,0,0,.079-.2.884.884,0,0,0,.025-.272v-.008a1.255,1.255,0,0,0-.022-.142A1.6,1.6,0,0,0,153.488,396.668Z" transform="translate(696.982 1082.572)" fill="#873217"/>
    <rect id="Rectángulo_5400" data-name="Rectángulo 5400" width="30.71" height="2.793" transform="translate(822.512 1503.983)" fill="#fff"/>
    <g id="Grupo_22929" data-name="Grupo 22929" transform="translate(771.167 1440.414)">
      <ellipse id="Elipse_1351" data-name="Elipse 1351" cx="15.871" cy="15.514" rx="15.871" ry="15.514" fill="#d8d8d8"/>
    </g>
    <g id="Grupo_22931" data-name="Grupo 22931" transform="translate(771.167 1455.928)">
      <path id="Trazado_49732" data-name="Trazado 49732" d="M121.215,441.059l-31.742.312v-65.91l31.742-.312Z" transform="translate(-89.473 -375.149)" fill="#f23812"/>
    </g>
    <g id="Grupo_22933" data-name="Grupo 22933" transform="translate(779.129 1429.754)">
      <path id="Trazado_49733" data-name="Trazado 49733" d="M99.87,356.365l-4.681,1.44v2.113l4.681,1.469Z" transform="translate(-95.189 -356.365)" fill="#f23812"/>
    </g>
    <g id="Grupo_22935" data-name="Grupo 22935" transform="translate(783.045 1428.955)">
      <rect id="Rectángulo_5401" data-name="Rectángulo 5401" width="6.469" height="8.927" fill="#d8d8d8"/>
    </g>
    <g id="Grupo_22937" data-name="Grupo 22937" transform="translate(780.615 1437.332)">
      <rect id="Rectángulo_5402" data-name="Rectángulo 5402" width="11.329" height="4.259" fill="#f23812"/>
    </g>
    <rect id="Rectángulo_5403" data-name="Rectángulo 5403" width="6.777" height="65.91" transform="translate(796.131 1455.928)" fill="#db2305"/>
    <path id="Trazado_49734" data-name="Trazado 49734" d="M103.046,379.663l-9.505,14.1a2.381,2.381,0,0,0,1.974,3.712h19.011a2.381,2.381,0,0,0,1.974-3.712l-9.505-14.1A2.381,2.381,0,0,0,103.046,379.663Z" transform="translate(683.131 1082.141)" fill="#f9ae06"/>
    <path id="Trazado_49735" data-name="Trazado 49735" d="M112.1,390.676c-.007-.017-.013-.033-.021-.05-.02-.045-.033-.095-.056-.134a4.111,4.111,0,0,0-2.36-1.322c-.826-.249-1.641-.534-2.452-.83a15.143,15.143,0,0,1-1.861-.768l-.032-.033a2.268,2.268,0,0,0,.021-.392c.128-.113.3-.259.478-.4a9.024,9.024,0,0,0,1.409-1.555c.2-.311.215-.482.189-.58.274-.442.038-.623.684-1.423a.725.725,0,0,0,.21-.422c.32-.238,1.078-.677,1.613-1a10.353,10.353,0,0,0,2.242-1.522c.284-.372.008-.336-.5.088a21.082,21.082,0,0,1-2.543,1.551,1.98,1.98,0,0,0-.835.779l0,0a5.224,5.224,0,0,0-.627.73,2.036,2.036,0,0,0-.291,1.123,8.431,8.431,0,0,1-1.421,1.726,4.313,4.313,0,0,0-.619.743.574.574,0,0,0-.106-.305c-.026-.024-.056-.045-.084-.067a1.711,1.711,0,0,0-.655-.308,1,1,0,0,0,.288-.217v.01s.624-.318.58-.876-.765-.633-.765-.633l0,.024a.967.967,0,0,0-.124-.084,13.237,13.237,0,0,1,1.127-1.77c.6-.757.691-.991.176-.649a5.649,5.649,0,0,0-1.352,2.39,1.028,1.028,0,0,0-.2-.04l-.11-4.963-.252,4.963a1.1,1.1,0,0,0-.2.039,5.642,5.642,0,0,0-1.352-2.388c-.516-.341-.425-.107.176.649a13.032,13.032,0,0,1,1.126,1.767,1.016,1.016,0,0,0-.114.077l0-.014s-.722.075-.765.633a.992.992,0,0,0,.549.858l0-.015a1,1,0,0,0,.294.234,1.681,1.681,0,0,0-.454.181,1.565,1.565,0,0,0-.274.2.65.65,0,0,0-.117.382,4.185,4.185,0,0,0-.667-.819,8.371,8.371,0,0,1-1.421-1.726,2.027,2.027,0,0,0-.293-1.123,5.172,5.172,0,0,0-.626-.73l0,0a1.979,1.979,0,0,0-.835-.779,20.971,20.971,0,0,1-2.543-1.551c-.514-.424-.789-.46-.5-.088a10.319,10.319,0,0,0,2.242,1.522c.535.319,1.293.758,1.613,1a.729.729,0,0,0,.209.422c.648.8.411.981.684,1.423-.024.1-.015.269.191.58a9.024,9.024,0,0,0,1.409,1.555c.213.164.41.334.538.45a2.521,2.521,0,0,0,.024.359,14.918,14.918,0,0,1-1.884.779c-.812.3-1.626.581-2.454.83a4.108,4.108,0,0,0-2.359,1.322,1.17,1.17,0,0,0-.056.134.384.384,0,0,0-.021.05.9.9,0,0,0-.05.181.5.5,0,0,0-.02.075.628.628,0,0,0,.017.183.485.485,0,0,0,.123.223c.479.631,2.172.61,3.879-.277a7.635,7.635,0,0,0,1.067-.686c-.071.146-.156.337-.258.6-.2.525-.878,1.868-1.094,2.293a1.766,1.766,0,0,0-.574,1.2,14.575,14.575,0,0,0-.288,3.1c.116.46.252.633.269.406.021-.279-.033-.745-.01-1.17a9.669,9.669,0,0,1,.3-2.21c.149-.6.249-.977.307-1.184.078-.031.229-.146.486-.546a11.575,11.575,0,0,0,.782-1.717,3.154,3.154,0,0,0,.255-.906,7.323,7.323,0,0,0,1.526-1.629c.093-.141.159-.276.233-.412l.015.025c-.339.568-1,1.7-1.2,2.158a1.33,1.33,0,0,0-.082.773,7.458,7.458,0,0,0-.077.823c-.028.574-.252,2.121-.316,2.555a1.736,1.736,0,0,0-.461,1.077,34.162,34.162,0,0,0,.17,5.242c.116.46.252.633.269.405.021-.279-.033-.745-.01-1.17.065-1.145-.341-3.625-.162-4.354.149-.6.248-.973.305-1.182a1.928,1.928,0,0,0,.226-.595,11.363,11.363,0,0,0,.2-1.875,3.126,3.126,0,0,0-.046-.942,5.7,5.7,0,0,1,.429-.967c.3-.552.741-1.24.929-1.672a.714.714,0,0,0,.5.281c.056,0,.157.006.266.007a.9.9,0,0,0-.766.344,3.52,3.52,0,0,0-.307.97l-.007.015,0,0a6.745,6.745,0,0,0-.11.993l-.006.008h.006a8.241,8.241,0,0,0,.026,1.112v0h0c.02.209.043.424.079.648.018.109.042.2.063.3l-.006.011h.008a7.974,7.974,0,0,0,.206.823l0,0,.006,0a5.407,5.407,0,0,0,.875,1.768,4.971,4.971,0,0,0,1.034-1.82l.008,0-.006,0a6.635,6.635,0,0,0,.276-1.087,8.716,8.716,0,0,0,.106-1.763l.006,0-.006-.007a6.963,6.963,0,0,0-.095-.91l.006.006-.013-.042a3.611,3.611,0,0,0-.318-1.032.9.9,0,0,0-.766-.344c.109,0,.21,0,.266-.007a.718.718,0,0,0,.506-.284c.187.432.633,1.122.931,1.675a5.817,5.817,0,0,1,.429.967,3.078,3.078,0,0,0-.046.942,11.5,11.5,0,0,0,.2,1.875,1.938,1.938,0,0,0,.227.595c.057.209.156.582.305,1.182.18.729-.227,3.209-.162,4.354.024.425-.031.892-.01,1.17.017.227.153.054.269-.405a33.986,33.986,0,0,0,.17-5.242,1.737,1.737,0,0,0-.461-1.077c-.064-.433-.288-1.981-.316-2.555a7.463,7.463,0,0,0-.077-.823,1.33,1.33,0,0,0-.082-.773c-.2-.456-.862-1.594-1.2-2.161.006-.011.013-.021.018-.033.077.141.144.28.238.424a7.406,7.406,0,0,0,1.754,1.811,4.226,4.226,0,0,0,.231.723,11.416,11.416,0,0,0,.78,1.717c.259.4.408.516.488.546.056.208.156.581.305,1.184a9.591,9.591,0,0,1,.3,2.21c.025.425-.031.892-.01,1.17.018.227.153.054.269-.406a14.483,14.483,0,0,0-.288-3.1,1.76,1.76,0,0,0-.574-1.2c-.215-.425-.89-1.768-1.092-2.293-.057-.145-.107-.266-.156-.376a7.518,7.518,0,0,0,.761.463c1.707.888,3.4.908,3.879.277a.5.5,0,0,0,.124-.223.629.629,0,0,0,.017-.183.76.76,0,0,0-.021-.075A.808.808,0,0,0,112.1,390.676Z" transform="translate(684.151 1082.49)" fill="#fff"/>
    <rect id="Rectángulo_5404" data-name="Rectángulo 5404" width="23.258" height="2.048" transform="translate(776.261 1486.834)" fill="#fff"/>
    <rect id="Rectángulo_5405" data-name="Rectángulo 5405" width="23.258" height="2.048" transform="translate(776.261 1501.14)" fill="#fff"/>
    <rect id="Rectángulo_5406" data-name="Rectángulo 5406" width="23.258" height="2.048" transform="translate(776.261 1506.132)" fill="#fff"/>
    <rect id="Rectángulo_5407" data-name="Rectángulo 5407" width="23.258" height="2.048" transform="translate(776.261 1511.125)" fill="#fff"/>
    <rect id="Rectángulo_5408" data-name="Rectángulo 5408" width="23.258" height="6.529" transform="translate(776.261 1491.558)" fill="#f9ae06"/>
    <rect id="Rectángulo_5409" data-name="Rectángulo 5409" width="1.623" height="8.149" transform="translate(787.891 1428.955)" fill="#c1c1c1"/>
    <path id="Trazado_49736" data-name="Trazado 49736" d="M361.669,344.429l-6.514-.072a15.033,15.033,0,0,0,1.63,7.308c1.919,3.281,4.34,3.906,4.34,3.906l5.972,1.4Z" transform="translate(786.191 1067.754)" fill="#333"/>
    <rect id="Rectángulo_5410" data-name="Rectángulo 5410" width="10.453" height="1.878" transform="translate(1147.318 1423.325)" fill="#424242"/>
    <rect id="Rectángulo_5411" data-name="Rectángulo 5411" width="8.913" height="5.282" transform="translate(1185.913 1414.901)" fill="#424242"/>
    <rect id="Rectángulo_5412" data-name="Rectángulo 5412" width="2.971" height="7.976" transform="translate(1184.427 1413.584)" fill="#6d6d6d"/>
    <rect id="Rectángulo_5413" data-name="Rectángulo 5413" width="24.016" height="7.611" transform="translate(1155.295 1413.949)" fill="#333"/>
    <path id="Trazado_49737" data-name="Trazado 49737" d="M373.274,350.164a7.448,7.448,0,1,1-7.447-7.447A7.448,7.448,0,0,1,373.274,350.164Z" transform="translate(787.462 1067.109)" fill="#4d4d4d"/>
    <rect id="Rectángulo_5414" data-name="Rectángulo 5414" width="3.219" height="11.142" transform="translate(1172.13 1412.183)" fill="#6d6d6d"/>
    <rect id="Rectángulo_5415" data-name="Rectángulo 5415" width="9.904" height="14.897" transform="translate(1175.349 1410.306)" fill="#333"/>
    <rect id="Rectángulo_5416" data-name="Rectángulo 5416" width="9.904" height="1.473" transform="translate(1175.349 1412.111)" fill="#4d4d4d"/>
    <rect id="Rectángulo_5417" data-name="Rectángulo 5417" width="9.904" height="1.473" transform="translate(1175.349 1417.018)" fill="#4d4d4d"/>
    <rect id="Rectángulo_5418" data-name="Rectángulo 5418" width="9.904" height="1.473" transform="translate(1175.349 1421.559)" fill="#4d4d4d"/>
    <rect id="Rectángulo_5419" data-name="Rectángulo 5419" width="1.609" height="11.214" transform="translate(1173.74 1412.111)" fill="#424242"/>
    <circle id="Elipse_1352" data-name="Elipse 1352" cx="5.339" cy="5.339" r="5.339" transform="translate(1147.949 1411.719)" fill="#6d6d6d"/>
    <rect id="Rectángulo_5420" data-name="Rectángulo 5420" width="2.971" height="7.976" transform="translate(1191.855 1413.584)" fill="#6d6d6d"/>
    <path id="Trazado_49738" data-name="Trazado 49738" d="M359.856,353.753l-1.478,2.522h6.7v-2.522Z" transform="translate(787.462 1071.45)" fill="#333"/>
    <path id="Trazado_49739" data-name="Trazado 49739" d="M368.416,353.753l1.478,2.522h-6.7v-2.522Z" transform="translate(789.354 1071.45)" fill="#333"/>
    <rect id="Rectángulo_5421" data-name="Rectángulo 5421" width="13.408" height="2.613" transform="translate(1145.84 1427.725)" fill="#4d4d4d"/>
    <rect id="Rectángulo_5422" data-name="Rectángulo 5422" width="16.584" height="8.712" transform="translate(1144.153 1430.338)" fill="#333"/>
    <rect id="Rectángulo_5423" data-name="Rectángulo 5423" width="1.331" height="6.711" transform="translate(1145.84 1430.338)" fill="#5b5b5b"/>
    <rect id="Rectángulo_5424" data-name="Rectángulo 5424" width="1.331" height="6.711" transform="translate(1157.917 1430.338)" fill="#5b5b5b"/>
    <rect id="Rectángulo_5425" data-name="Rectángulo 5425" width="1.331" height="6.711" transform="translate(1148.859 1430.338)" fill="#5b5b5b"/>
    <rect id="Rectángulo_5426" data-name="Rectángulo 5426" width="1.331" height="6.711" transform="translate(1151.883 1430.338)" fill="#5b5b5b"/>
    <rect id="Rectángulo_5427" data-name="Rectángulo 5427" width="1.331" height="6.711" transform="translate(1154.898 1430.338)" fill="#5b5b5b"/>
    <path id="Trazado_49740" data-name="Trazado 49740" d="M354.661,425.577h39.048a2.979,2.979,0,0,0,2.971-2.971v-.372H351.692l0,.372A2.98,2.98,0,0,0,354.661,425.577Z" transform="translate(784.831 1098.385)" fill="#333"/>
    <g id="Grupo_23008" data-name="Grupo 23008" transform="translate(1136.523 1439.05)">
      <path id="Trazado_49741" data-name="Trazado 49741" d="M393.653,397.478c-.164-6.767-.989-8.254-4.744-11.225-3.547-2.806-7.546-4.539-10.44-7.015-4.052-3.465-.166-8.087-1.485-10.744a22.582,22.582,0,0,0-4.045-4.8H359.321s-1.276,1.512-2.462,2.98c-1.767,2.188.4,4.29,1.313,7.445s-1.651,6-2.9,9.149-3.377,5.706-3.377,11.469c0,5.919-.183,46.264-.2,50.528h41.983C393.713,432,393.781,402.682,393.653,397.478Z" transform="translate(-351.691 -363.691)" fill="#424242"/>
    </g>
    <g id="Grupo_23010" data-name="Grupo 23010" transform="translate(1157.77 1439.05)">
      <path id="Trazado_49742" data-name="Trazado 49742" d="M390.461,397.973c-.495-6.685-1.31-9.3-3.3-11.719-2.447-2.975-9.48-5.87-12.214-8.021-1.391-1.094-2.717-4.441-1.815-6.669.934-2.31.907-2.724-.412-4.952a9.967,9.967,0,0,0-2.812-2.92H366.94a22.582,22.582,0,0,1,4.045,4.8c1.32,2.657-2.567,7.279,1.485,10.744,2.894,2.476,6.893,4.209,10.44,7.015,3.755,2.971,4.58,4.457,4.744,11.225.128,5.2.06,34.521.021,47.783h3.007C390.691,441.064,390.756,401.956,390.461,397.973Z" transform="translate(-366.94 -363.691)" fill="#6d6d6d"/>
    </g>
    <rect id="Rectángulo_5428" data-name="Rectángulo 5428" width="32.929" height="17.331" rx="2.132" transform="translate(1142.42 1470.525)" fill="#333"/>
    <rect id="Rectángulo_5429" data-name="Rectángulo 5429" width="32.929" height="17.331" rx="2.132" transform="translate(1142.42 1498.007)" fill="#333"/>
    <rect id="Rectángulo_5430" data-name="Rectángulo 5430" width="32.929" height="36.84" rx="2.132" transform="translate(1142.42 1474.702)" fill="#fbcc02"/>
    <rect id="Rectángulo_5431" data-name="Rectángulo 5431" width="10.223" height="1.715" transform="translate(1147.438 1445.43)" fill="#333"/>
    <rect id="Rectángulo_5432" data-name="Rectángulo 5432" width="10.223" height="1.715" transform="translate(1147.438 1449.137)" fill="#333"/>
    <path id="Trazado_49743" data-name="Trazado 49743" d="M378.64,405.409a.92.92,0,0,0-.7-.265,7.484,7.484,0,0,0-2.28.24,2.741,2.741,0,0,0-.861.422.357.357,0,0,0-.322.032,12.877,12.877,0,0,0-1.012.892l-.987-.063a13.443,13.443,0,0,0-1.384.06,2.976,2.976,0,0,0-.2-.665,1.126,1.126,0,0,0,.078-.425,9.972,9.972,0,0,0,1.718-.613.567.567,0,0,0,.276-.405.742.742,0,0,0,.556-.509c.184-.479.326-.847.386-1a.988.988,0,0,0,.369-.135c.2-.127.516-.348.9-.574a11.852,11.852,0,0,1,1.633-.8c.465-.173.55-.365.429-.468a.91.91,0,0,0-.745.029,7.5,7.5,0,0,0-2.005,1.112,2.528,2.528,0,0,0-.658.786,1.184,1.184,0,0,0-.541.651c-.176.4-.312.694-.375.833a.534.534,0,0,0-.322.1,10.629,10.629,0,0,1-1.676.488c-.02-.077-.039-.151-.063-.216a2.06,2.06,0,0,0-.256-.5.672.672,0,0,0-.263-.4,2.427,2.427,0,0,0,1.307-.329,6.082,6.082,0,0,0,.425-2.295,2.184,2.184,0,0,0-.431-1.647,3.773,3.773,0,0,0,.818-.706,11.389,11.389,0,0,0,1.353-3.177c.226-.723-.2-1.152-.525-.131a21.388,21.388,0,0,1-1.106,2.813,3.631,3.631,0,0,1-.908.975c-.019,0-.038-.014-.057-.018a5.111,5.111,0,0,0,.167-2.238c-.291-.744-.811-.621-.811-.621a.956.956,0,0,1,.4.867c-.07.329-.482.329-.482.329s.493.252.334.546a.721.721,0,0,1-.447.3,1.026,1.026,0,0,1,.233.818h-1.29a1.026,1.026,0,0,1,.233-.818.721.721,0,0,1-.447-.3c-.159-.294.334-.546.334-.546s-.414,0-.482-.329a.956.956,0,0,1,.4-.867s-.52-.123-.811.621a5.094,5.094,0,0,0,.167,2.238h-.013a3.639,3.639,0,0,1-.882-.957,21.38,21.38,0,0,1-1.106-2.813c-.322-1.021-.751-.592-.525.131a11.389,11.389,0,0,0,1.353,3.177,3.713,3.713,0,0,0,.755.665l-.008.007a2.14,2.14,0,0,0-.463,1.682,6.075,6.075,0,0,0,.426,2.295,2.344,2.344,0,0,0,1.247.327.671.671,0,0,0-.262.392h0a2.083,2.083,0,0,0-.323.694,9.5,9.5,0,0,1-1.542-.456.528.528,0,0,0-.32-.1c-.063-.139-.2-.436-.375-.833a1.189,1.189,0,0,0-.541-.651,2.551,2.551,0,0,0-.658-.786,7.5,7.5,0,0,0-2.005-1.112.914.914,0,0,0-.747-.029c-.12.1-.035.3.429.468a11.8,11.8,0,0,1,1.634.8c.382.226.7.447.9.574a.991.991,0,0,0,.368.135c.061.157.2.525.387,1a.74.74,0,0,0,.556.509.562.562,0,0,0,.276.405,9.211,9.211,0,0,0,1.574.574,1.539,1.539,0,0,0,.015.233.848.848,0,0,0,.1.3,2.89,2.89,0,0,0-.171.594,12.486,12.486,0,0,0-1.308-.054l-.987.063a12.866,12.866,0,0,0-1.012-.892.357.357,0,0,0-.322-.032,2.742,2.742,0,0,0-.861-.422,7.483,7.483,0,0,0-2.279-.24.92.92,0,0,0-.7.265c-.071.142.082.286.578.263a11.942,11.942,0,0,1,1.816.1c.439.059.815.141,1.051.178a.965.965,0,0,0,.291,0c.153.145.63.588,1,.879a.422.422,0,0,0,.4,0,1.479,1.479,0,0,0,.879.262,8.2,8.2,0,0,1,1.423.143,1.9,1.9,0,0,0,.07.482c.013.038.026.074.042.11-.371.124-1.685.568-2.022.718a.786.786,0,0,0-.41.559,2.734,2.734,0,0,0-1,.966,1.076,1.076,0,0,0-.134.72c-.117.16-.422.587-.846,1.239a10,10,0,0,1-1.86,2.111c-.4.3-.29.447.116.373.9-.164,2.247-2.206,2.452-2.6a1.517,1.517,0,0,0,.247-1.083c.089-.117.254-.326.5-.613.591-.673.648-.961.626-1.076a4.523,4.523,0,0,1,.988-.464,16.278,16.278,0,0,1,1.633-.465.866.866,0,0,0,.114.07h-.006l-.053.362v0a2.017,2.017,0,0,0-.751.826,5.544,5.544,0,0,0-.359,1.4c-.022.139-.054.405-.078.63h0c0,.042-.007.088-.011.131l-.013.12h0a7.921,7.921,0,0,0,.04,1.87,3.3,3.3,0,0,0,.174.665,1.748,1.748,0,0,0,.248.449,2.151,2.151,0,0,0,1.357.942l.031,0s.64,0,1.389-.945c.929-1.172.343-4.615,0-5.26a2.085,2.085,0,0,0-.691-.794h0v-.35h0a.859.859,0,0,0,.221-.127,16.445,16.445,0,0,1,1.676.475,4.524,4.524,0,0,1,.988.464c-.022.114.033.4.626,1.076.251.287.415.5.5.613a1.516,1.516,0,0,0,.247,1.083c.2.394,1.547,2.436,2.452,2.6.405.074.517-.078.116-.373a9.959,9.959,0,0,1-1.86-2.111c-.424-.652-.73-1.078-.846-1.239a1.076,1.076,0,0,0-.134-.72,2.734,2.734,0,0,0-1-.966.793.793,0,0,0-.41-.559c-.359-.16-1.832-.655-2.082-.738a1.666,1.666,0,0,0,.1-.559,8.573,8.573,0,0,1,1.5-.156,1.483,1.483,0,0,0,.879-.262.422.422,0,0,0,.4,0c.368-.291.844-.734,1-.879a.965.965,0,0,0,.291,0c.234-.038.612-.12,1.051-.178a11.942,11.942,0,0,1,1.816-.1C378.557,405.7,378.711,405.552,378.64,405.409Zm-8.536,9.051a.932.932,0,0,0-.077-.059A.932.932,0,0,1,370.1,414.461Zm-.116-.088a1.126,1.126,0,0,0-.148-.085A1.126,1.126,0,0,1,369.989,414.373Zm-.077,1.207.014-.014-.01.008Zm.039-.039.026-.026Zm.355-.613c0-.017,0-.033,0-.052C370.308,414.894,370.308,414.911,370.307,414.927Zm-.3.557.028-.031Zm.056-.063.029-.035Zm.056-.07.029-.039Zm.054-.077.025-.042Zm.047-.081.022-.046Zm.04-.086.018-.047A.489.489,0,0,1,370.259,415.108Zm.031-.089c0-.017.007-.033.01-.049C370.3,414.986,370.294,415,370.29,415.019Zm-.149-.523c.018.018.036.036.052.054C370.177,414.533,370.159,414.515,370.141,414.5Zm.078.095a.564.564,0,0,1,.035.053A.564.564,0,0,0,370.219,414.592Zm.052.095a.406.406,0,0,1,.021.053A.406.406,0,0,0,370.271,414.686Zm.029.095a.344.344,0,0,1,.008.053A.344.344,0,0,0,370.3,414.781Z" transform="translate(788.608 1087.724)" fill="#873217"/>
    <path id="Trazado_49744" data-name="Trazado 49744" d="M371.686,421.686a14.748,14.748,0,1,1,14.75-14.748A14.765,14.765,0,0,1,371.686,421.686Zm0-27.864A13.115,13.115,0,1,0,384.8,406.937,13.13,13.13,0,0,0,371.686,393.822Z" transform="translate(786.896 1086.568)" fill="#fff"/>
    <rect id="Rectángulo_5433" data-name="Rectángulo 5433" width="32.929" height="2.307" transform="translate(1142.42 1465.685)" fill="#fff"/>
    <path id="Trazado_49745" data-name="Trazado 49745" d="M246.172,56.612c-16.3.273-37.823,11.225-35.215,46.027,2.271,30.3,20.471,36.094,18.346,39.764s-9.682,7.87-15.956,9.239-22.058,11.109-29.628,15.155c-12.227,6.538-19.693,48.723-16.813,70.074,2.111,15.636,9.94,24.779,25.067,30.386s50.341-3.1,61.02-5.19c2.383.966,32.044,11.5,48.882,11.616,18.523.123,29.416-20.577,29.646-43.2.29-28.6-10.4-56.728-21.792-66.5-3.977-3.411-14.145-8.03-20.051-12.52-8.955-6.806-13.118-13.539-10.627-17.075,4.134-5.871,11.057-11.276,11.436-32.838C291.018,71.322,274.773,56.131,246.172,56.612Z" transform="translate(711.906 970.659)" fill="#c9c9c9"/>
    <path id="Trazado_49746" data-name="Trazado 49746" d="M211.432,113.884a137.54,137.54,0,0,0,9.862,18.034c5.306,7.817,9.856,23.478,9.856,23.478s4.657-15.788,8.388-22.947c2.738-5.254,10.653-19.983,10.653-19.983Z" transform="translate(729.663 992.633)" fill="#adadad"/>
    <path id="Trazado_49747" data-name="Trazado 49747" d="M206.211,85.069c-.472-.791,4.76-18.159,27-17.705s26.4,9.859,29.65,19.344S206.211,85.069,206.211,85.069Z" transform="translate(727.599 974.889)" fill="#adadad"/>
    <path id="Trazado_49748" data-name="Trazado 49748" d="M229.247,74.153c-12.346,2.206-17.863-.273-19.964,12.665s-3.235,25.589,2.851,33.358,12.9,12.9,21.82,12.8,14.744-2.473,18.947-9.914,7-20.556,7.514-31.748S241,72.053,229.247,74.153Z" transform="translate(728.158 977.432)" fill="#ffc397"/>
    <path id="Trazado_49749" data-name="Trazado 49749" d="M213.617,117.061s4.347-16.712,9.755-22.141c5.083-5.1,14.5-4.711,18.52,3.655,4.144,8.634,8.335,20.8,8.335,20.8Z" transform="translate(730.523 984.418)" fill="#424242"/>
    <path id="Trazado_49750" data-name="Trazado 49750" d="M255.57,79.721c-4.6-5.473-17.308-4.4-21.041-3.949-3.731-.449-16.434-1.524-21.041,3.949-5.424,6.447-9.819,23.061-5.605,31.241s14.275,19.367,14.275,19.367l1.193-5.615s-8-5.2-8.963-14.372-3.552-23.667,3.719-28.513c2.151-1.434,6.287-2,9.994-2.21,2.065-.114,10.415-.114,12.249-.031,3.855.176,8.335.727,10.6,2.24,7.269,4.846,4.68,19.339,3.719,28.513s-8.965,14.372-8.965,14.372l1.193,5.615s10.063-11.186,14.276-19.367S261,86.168,255.57,79.721Z" transform="translate(727.606 978.045)" fill="#333"/>
    <g id="Grupo_23041" data-name="Grupo 23041" transform="translate(931.475 1048.531)">
      <path id="Trazado_49751" data-name="Trazado 49751" d="M241.316,71.867H228.149c-14.063,0-24.1,7.219-23.6,19.668s-.162,26.471,6.375,35.109,16.522,14.094,23.347,14.147c7.025.054,17.745-5.508,24.282-14.147s5.876-22.661,6.375-35.109S255.379,71.867,241.316,71.867Zm14.506,46.175c-3.357,8.083-15.7,15.261-15.7,15.261l-4.96.4v.043l-.258-.021-.256.021V133.7l-4.96-.4s-12.344-7.178-15.7-15.261-2.886-28.088-.946-31.779c3.974-7.56,12.249-7.355,21.861-7.351s17.889-.209,21.861,7.351C258.708,89.954,259.179,109.958,255.822,118.042Z" transform="translate(-204.527 -71.867)" fill="#424242"/>
    </g>
    <path id="Trazado_49752" data-name="Trazado 49752" d="M241.1,106.657c-2.243-3.995-3.364-11.6-11.09-11.6s-8.462,7.608-10.7,11.6-5.042,12.5,0,17.353a15.633,15.633,0,0,0,10.7,4.581,16.28,16.28,0,0,0,11.09-4.581C246.143,119.153,243.343,110.653,241.1,106.657Z" transform="translate(731.649 985.784)" fill="#fbcc02"/>
    <ellipse id="Elipse_1353" data-name="Elipse 1353" cx="10.729" cy="10.65" rx="10.729" ry="10.65" transform="translate(950.958 1094.448)" fill="#f9ae06"/>
    <path id="Trazado_49753" data-name="Trazado 49753" d="M196.711,110.707l4.192-4.382,20.072,23.4-7.908,4.609Z" transform="translate(723.873 990.217)" fill="#f9ae06"/>
    <g id="Grupo_23051" data-name="Grupo 23051" transform="translate(920.291 1094.448)">
      <g id="Grupo_23050" data-name="Grupo 23050">
        <path id="Trazado_49754" data-name="Trazado 49754" d="M220.35,111.853c5.1,6.875,4.715,15.976.708,18.463-5.923,3.674-15.9,3.439-20.989-3.436s-4.684-15.814.917-19.964S215.255,104.977,220.35,111.853Z" transform="translate(-196.5 -104.822)" fill="#f9ae06"/>
      </g>
    </g>
    <g id="Grupo_23054" data-name="Grupo 23054" transform="translate(915.685 1099.533)">
      <g id="Grupo_23053" data-name="Grupo 23053">
        <path id="Trazado_49755" data-name="Trazado 49755" d="M215.3,114.987c4.722,6.372,4.342,14.656-.85,18.5s-13.226,1.8-17.948-4.576-4.342-14.655.85-18.5S210.577,108.614,215.3,114.987Z" transform="translate(-193.195 -108.471)" fill="#fbcc02"/>
      </g>
    </g>
    <g id="Grupo_23057" data-name="Grupo 23057" transform="translate(918.336 1102.345)">
      <g id="Grupo_23056" data-name="Grupo 23056">
        <path id="Trazado_49756" data-name="Trazado 49756" d="M212.59,115.645c3.736,5.044,3.435,11.6-.673,14.643s-10.467,1.423-14.2-3.62-3.435-11.6.673-14.643S208.853,110.6,212.59,115.645Z" transform="translate(-195.097 -110.49)" fill="#ffe36c"/>
      </g>
    </g>
    <g id="Grupo_23060" data-name="Grupo 23060" transform="translate(921.291 1105.502)">
      <g id="Grupo_23059" data-name="Grupo 23059">
        <path id="Trazado_49757" data-name="Trazado 49757" d="M205.629,127.768a8.446,8.446,0,0,1-6.589-3.592,8.868,8.868,0,0,1-1.814-5.633,5.8,5.8,0,0,1,7.507-5.564,8.872,8.872,0,0,1,4.861,3.376h0a8.859,8.859,0,0,1,1.814,5.633,6.017,6.017,0,0,1-2.345,4.683A5.708,5.708,0,0,1,205.629,127.768Zm-2.621-14.2a4.905,4.905,0,0,0-2.954.943,5.217,5.217,0,0,0-2.02,4.069,8.063,8.063,0,0,0,1.655,5.115c2.353,3.174,6.342,4.216,8.892,2.327a5.218,5.218,0,0,0,2.019-4.069,8.071,8.071,0,0,0-1.655-5.115h0a8.055,8.055,0,0,0-4.411-3.072A6.1,6.1,0,0,0,203.009,113.567Z" transform="translate(-197.218 -112.756)" fill="#fff"/>
      </g>
    </g>
    <g id="Grupo_23063" data-name="Grupo 23063" transform="translate(932.716 1098.017)">
      <g id="Grupo_23062" data-name="Grupo 23062">
        <path id="Trazado_49758" data-name="Trazado 49758" d="M205.418,107.384a21.563,21.563,0,0,1,8.38,8.5c2.125,3.928,3.493,10.674,0,15.611,1.62-.939,3.752-2.186,3.752-2.186a15.513,15.513,0,0,0-1.019-14.843C212.007,107.181,205.418,107.384,205.418,107.384Z" transform="translate(-205.418 -107.384)" fill="#424242"/>
      </g>
    </g>
    <g id="Grupo_23067" data-name="Grupo 23067" transform="translate(975.776 1094.448)">
      <g id="Grupo_23066" data-name="Grupo 23066">
        <path id="Trazado_49759" data-name="Trazado 49759" d="M240.089,111.853c-5.094,6.875-4.714,15.976-.706,18.463,5.923,3.674,15.894,3.439,20.989-3.436s4.684-15.814-.917-19.964S245.185,104.977,240.089,111.853Z" transform="translate(-236.322 -104.822)" fill="#f9ae06"/>
      </g>
    </g>
    <g id="Grupo_23069" data-name="Grupo 23069" transform="translate(978.836 1096.542)">
      <path id="Trazado_49760" data-name="Trazado 49760" d="M263.525,111.257l-4.934-4.932-20.072,23.4,7.908,4.609Z" transform="translate(-238.519 -106.325)" fill="#f9ae06"/>
    </g>
    <g id="Grupo_23072" data-name="Grupo 23072" transform="translate(982.588 1099.533)">
      <g id="Grupo_23071" data-name="Grupo 23071">
        <path id="Trazado_49761" data-name="Trazado 49761" d="M244.519,114.987c-4.722,6.372-4.342,14.656.849,18.5s13.227,1.8,17.949-4.576,4.34-14.655-.85-18.5S249.241,108.614,244.519,114.987Z" transform="translate(-241.212 -108.471)" fill="#fbcc02"/>
      </g>
    </g>
    <g id="Grupo_23075" data-name="Grupo 23075" transform="translate(985.239 1102.345)">
      <g id="Grupo_23074" data-name="Grupo 23074">
        <path id="Trazado_49762" data-name="Trazado 49762" d="M245.731,115.645c-3.737,5.044-3.436,11.6.673,14.643s10.467,1.423,14.2-3.62,3.436-11.6-.672-14.643S249.468,110.6,245.731,115.645Z" transform="translate(-243.114 -110.49)" fill="#ffe36c"/>
      </g>
    </g>
    <g id="Grupo_23078" data-name="Grupo 23078" transform="translate(988.194 1105.502)">
      <g id="Grupo_23077" data-name="Grupo 23077">
        <path id="Trazado_49763" data-name="Trazado 49763" d="M251.023,127.768a8.448,8.448,0,0,0,6.589-3.592,8.868,8.868,0,0,0,1.814-5.633,5.8,5.8,0,0,0-7.507-5.564,8.872,8.872,0,0,0-4.861,3.376h0a8.859,8.859,0,0,0-1.814,5.633,6.017,6.017,0,0,0,2.345,4.683A5.708,5.708,0,0,0,251.023,127.768Zm2.619-14.2a4.91,4.91,0,0,1,2.955.943,5.222,5.222,0,0,1,2.02,4.069,8.063,8.063,0,0,1-1.655,5.115c-2.353,3.174-6.344,4.216-8.892,2.327a5.214,5.214,0,0,1-2.019-4.069,8.055,8.055,0,0,1,1.655-5.115h0a8.055,8.055,0,0,1,4.411-3.072A6.1,6.1,0,0,1,253.642,113.567Z" transform="translate(-245.235 -112.756)" fill="#fff"/>
      </g>
    </g>
    <g id="Grupo_23081" data-name="Grupo 23081" transform="translate(977.415 1098.017)">
      <g id="Grupo_23080" data-name="Grupo 23080">
        <path id="Trazado_49764" data-name="Trazado 49764" d="M251.052,107.384a21.563,21.563,0,0,0-8.38,8.5c-2.125,3.928-3.493,10.674,0,15.611-1.62-.939-3.752-2.186-3.752-2.186a15.513,15.513,0,0,1,1.019-14.843C244.463,107.181,251.052,107.384,251.052,107.384Z" transform="translate(-237.499 -107.384)" fill="#424242"/>
      </g>
    </g>
    <path id="Trazado_49765" data-name="Trazado 49765" d="M187.059,432.216c11.8-2.186,16.988-10.972,20.883-16.115,3.6-4.751,6.033-12.767,7.375-18.23l-22.7-.047S186.434,410.1,177.3,414.284c-10.9,4.994-14.074,6.356-15.407,11.084a20.371,20.371,0,0,0-.555,5.07C165.858,431.444,178.251,433.848,187.059,432.216Z" transform="translate(709.959 1104.873)" fill="#fbcc02"/>
    <path id="Trazado_49766" data-name="Trazado 49766" d="M161.478,434.018s14.464,5.176,23.439,3.846,13.879-6.319,16.9-8.385a18.334,18.334,0,0,0,6.129-7.945l-.171,5.491s8.57-1.177,9.933-5.32c1.921-5.842,6.117-23.83,6.117-23.83l-8.5-.018c-1.342,5.463-3.777,13.479-7.375,18.23-3.9,5.143-9.079,13.929-20.883,16.115-8.809,1.632-21.2-.772-25.722-1.778C161.326,432.414,161.478,434.018,161.478,434.018Z" transform="translate(709.959 1104.886)" fill="#f9ae06"/>
    <path id="Trazado_49767" data-name="Trazado 49767" d="M218.379,413.383l-1.357,5.449a32.435,32.435,0,0,1-9.25,2.086c-1.661,1.425-8.621,10.45-15.193,12.1-8.583,2.157-19.592,1.434-25.04.567a26,26,0,0,1-6.2-1.611l.028-5.086a57.37,57.37,0,0,0,25.7,1.817c10.594-1.7,20.883-13.28,20.883-13.28A22,22,0,0,0,218.379,413.383Z" transform="translate(709.958 1110.993)" fill="#424242"/>
    <path id="Trazado_49768" data-name="Trazado 49768" d="M281.225,432.216c-11.8-2.186-16.987-10.972-20.883-16.115-3.6-4.751-6.033-12.767-7.375-18.23l22.7-.047s6.182,12.274,15.317,16.461c10.9,4.994,14.073,6.356,15.408,11.084a20.372,20.372,0,0,1,.555,5.07C302.426,431.444,290.034,433.848,281.225,432.216Z" transform="translate(746 1104.873)" fill="#fbcc02"/>
    <path id="Trazado_49769" data-name="Trazado 49769" d="M309.207,434.018s-14.464,5.176-23.439,3.846-13.879-6.319-16.9-8.385a18.333,18.333,0,0,1-6.129-7.945l.171,5.491s-8.57-1.177-9.933-5.32c-1.921-5.842-6.117-23.83-6.117-23.83l8.5-.018c1.342,5.463,3.777,13.479,7.375,18.23,3.9,5.143,9.079,13.929,20.883,16.115,8.809,1.632,21.2-.772,25.722-1.778C309.359,432.414,309.207,434.018,309.207,434.018Z" transform="translate(743.6 1104.886)" fill="#f9ae06"/>
    <path id="Trazado_49770" data-name="Trazado 49770" d="M250.77,413.383l1.356,5.449a32.453,32.453,0,0,0,9.252,2.086c1.661,1.425,8.621,10.45,15.193,12.1,8.583,2.157,19.592,1.434,25.04.567a25.971,25.971,0,0,0,6.2-1.611l-.026-5.086a57.37,57.37,0,0,1-25.7,1.817c-10.595-1.7-20.883-13.28-20.883-13.28A22,22,0,0,1,250.77,413.383Z" transform="translate(745.136 1110.993)" fill="#424242"/>
    <path id="Trazado_49771" data-name="Trazado 49771" d="M211.831,473.093c13.666-5.518,8.8-53.046,10.054-68.434s6.922-59.519,7.824-81.375.461-45.561,0-47.574c-.265-1.156-3.28-11.166-5.173-16.713,9.039,7.832,19.169,11.332,28.233,11.466,1.325.02,9.235-4.91,10.527-5-.677,3.949-7.01,12.746-6.8,17.251.358,7.514,5.675,63.1,7.69,79.318s7.518,55.969,7.445,74.134,2.8,41.76,17.153,40.28c7.166-.74,15.816-3.531,22.685-6.143.035-22.137-5.338-58.138-5.943-75.764-.907-26.489-2.045-93.374-3.861-130.21-1.91-38.737-5.218-62.419-5.218-62.419L188.4,197.925v42.41c0,29.424.424,50.8-2.426,82.3-2.721,30.1-4.838,92.735-6.653,105.729-1.566,11.2-1.247,29.022-1.009,42.164C187.8,473.319,202.931,476.686,211.831,473.093Z" transform="translate(716.559 1026.246)" fill="#c9c9c9"/>
    <path id="Trazado_49772" data-name="Trazado 49772" d="M217.4,465.494c6.809-10.581,11.379-36.753,12.353-44.367.782-6.111,13.067-146.845,13.067-146.845l2.515-.18s10.075,134.124,13.618,148.33c5.686,22.806,8.892,37.509,16.1,47.109,11.136,1.322,25.2,1.08,35.41-4.048a65.2,65.2,0,0,0,.949-12.429c-6.869,2.612-15.519,5.4-22.685,6.143-14.355,1.48-17.227-22.114-17.153-40.28s-5.431-57.918-7.445-74.134-7.332-71.8-7.69-79.318c-.215-4.5,6.118-13.3,6.8-17.251-1.292.086-9.2,5.016-10.527,5-9.064-.134-19.195-3.634-28.233-11.466,1.894,5.547,4.909,15.557,5.173,16.713.461,2.013.9,25.72,0,47.574s-6.575,65.987-7.824,81.375,3.612,62.916-10.054,68.434c-8.9,3.593-24.036.226-33.515-2.561.038,2.1.074,4.1.1,5.918C181.084,466.174,204.692,471.474,217.4,465.494Z" transform="translate(716.615 1043.487)" fill="#adadad"/>
    <path id="Trazado_49773" data-name="Trazado 49773" d="M312.636,190.538c-7.042-5.373-15.793-4.47-15.793-4.47s-1.5-14.135.233-24.169c2.724-15.761,6.811-20.619,6.811-20.619-14.3,3.455-18.836,33.345-20.586,38.873-3.18,10.045-37.116,6.34-50.076,5.289-10.638-.862-23.852-7.073-26.741-16.2-1.75-5.527-5.775-24.507-20.075-27.963,0,0,5.958,5.576,8.682,21.337a65.693,65.693,0,0,1,.794,17.535,18.255,18.255,0,0,0-17.024,6.584c-3.38,4.074-2.27,13.251-2.27,13.251s10.215-9.806,15.663-10.454,19.785.97,23.333,2.2c3.85,1.331,45.789,5.686,55.134,6.469,6.758.566,15.016-1.572,18.866-2.9,3.547-1.226,9.535-1.632,14.983-.984s13.352,5.675,13.352,5.675S315.376,192.628,312.636,190.538Z" transform="translate(715.89 1003.966)" fill="#adadad"/>
    <path id="Trazado_49774" data-name="Trazado 49774" d="M260.375,182.608c-1.5-.871-3.2-.486-4.824-.387-3.634.219-7.138-.673-10.606-1.648a20.227,20.227,0,0,1-6.627-3.015,60.794,60.794,0,0,0-6.479,4.867,82.3,82.3,0,0,1,10.809,2.536c6.544,1.859,16.259.085,16.259.085s5.448,4.6,7.746,8.512c2.128,3.624,4.534,3.89,5.235,1.863C268.515,195.6,262.589,183.89,260.375,182.608Z" transform="translate(737.69 1018.235)" fill="#f9ae06"/>
    <path id="Trazado_49775" data-name="Trazado 49775" d="M276.231,181.866a26.925,26.925,0,0,1,5.618,4.322,9.558,9.558,0,0,0,5.442,3.039,3.139,3.139,0,0,0-.553-3.681c-4.548-5.3-11.5-11.572-26.168-13.383-8.831-1.092-18.1,3.639-24.08,7.578a20.226,20.226,0,0,0,6.627,3.015c3.468.975,6.972,1.867,10.606,1.648,1.625-.1,3.319-.483,4.824.387,2.214,1.282,8.14,12.99,11.513,12.812a5.863,5.863,0,0,0-.042-3.226c-.936-3.83-4.994-9.744-4.994-9.744a1.9,1.9,0,0,1,2.61.17c1.533,1.233,3.235,2.594,6.3,7.106,1.742,2.565,3.082,3.992,4.776,3.826.641-.6.879-1.809.33-3.571a40.3,40.3,0,0,0-4.852-9.788A1.418,1.418,0,0,1,276.231,181.866Z" transform="translate(739.519 1016.051)" fill="#fbcc02"/>
    <path id="Trazado_49776" data-name="Trazado 49776" d="M276.649,186.512a9.558,9.558,0,0,1-5.442-3.039,26.924,26.924,0,0,0-5.618-4.322,1.418,1.418,0,0,0-2.043.511s5.636,4.138,9.041,6.873C274.417,188.006,275.966,187.611,276.649,186.512Z" transform="translate(750.161 1018.766)" fill="#f9ae06"/>
    <path id="Trazado_49777" data-name="Trazado 49777" d="M266.5,188.2c-3.064-4.512-4.767-6.072-6.3-7.305s-3.234.426-3.234.426a117.434,117.434,0,0,1,9.352,9.618c1.549,1.955,3.384,2.377,4.333,1.484C268.96,192.586,268.244,190.76,266.5,188.2Z" transform="translate(747.574 1019.367)" fill="#f9ae06"/>
    <path id="Trazado_49778" data-name="Trazado 49778" d="M286,218.048s-18.965.977-38.006-5.063c-13.652-4.332-21.849-9.692-29.522-14.938a128.258,128.258,0,0,1-11.836,6.649c6.26,6.787,20.276,15.654,37.509,20.035,25.877,6.579,42.336.846,42.336.846Z" transform="translate(727.778 1026.294)" fill="#adadad"/>
    <path id="Trazado_49779" data-name="Trazado 49779" d="M205.681,192.522c5.438,2.759,10.991,5.009,13.724,6.074l5.477-17.216s-14.335-8.855-23.808-9.353c-6.415-.339-11.912,3.139-14.8,5.423A59.264,59.264,0,0,0,205.681,192.522Z" transform="translate(719.769 1016.051)" fill="#fbcc02"/>
    <path id="Trazado_49780" data-name="Trazado 49780" d="M184.722,177.821s2.384,5.448,12.257,12.6a83.112,83.112,0,0,0,21.737,10.726l1.3-4.085c-2.734-1.065-8.286-3.315-13.724-6.074a59.264,59.264,0,0,1-19.4-15.073A23.669,23.669,0,0,0,184.722,177.821Z" transform="translate(719.157 1017.588)" fill="#f9ae06"/>
    <path id="Trazado_49781" data-name="Trazado 49781" d="M172.136,200.039s4.036-2.207,10.846.177,8.9,7.321,18.5,7.321,30.568-9.49,30.568-9.49l5.541,6.425a51.836,51.836,0,0,1-31.623,10.215C177.686,213.914,172.136,200.039,172.136,200.039Z" transform="translate(714.207 1026.294)" fill="#adadad"/>
    <path id="Trazado_49782" data-name="Trazado 49782" d="M216,320.787a41.762,41.762,0,0,1-9.7,3.18,65.411,65.411,0,0,0-9.353,2.537s6.529,3.823,11.733,1.845S216,320.787,216,320.787Z" transform="translate(723.965 1074.572)" fill="#adadad"/>
    <path id="Trazado_49783" data-name="Trazado 49783" d="M213.792,325.942s-6.245,4.948-8.853,7.16a45.913,45.913,0,0,0-5.958,7.139s3.234.511,8-3.405S213.792,325.942,213.792,325.942Z" transform="translate(724.766 1076.6)" fill="#adadad"/>
    <path id="Trazado_49784" data-name="Trazado 49784" d="M241.948,320.787a41.763,41.763,0,0,0,9.7,3.18A65.339,65.339,0,0,1,261,326.5s-6.529,3.823-11.732,1.845S241.948,320.787,241.948,320.787Z" transform="translate(741.666 1074.572)" fill="#adadad"/>
    <path id="Trazado_49785" data-name="Trazado 49785" d="M242.96,325.942s6.246,4.948,8.853,7.16a45.912,45.912,0,0,1,5.958,7.139s-3.234.511-8-3.405S242.96,325.942,242.96,325.942Z" transform="translate(742.064 1076.6)" fill="#adadad"/>
    <path id="Trazado_49786" data-name="Trazado 49786" d="M236,261.7s3.174-8.852,8.283-11.349,8.816-4.767,8.816-4.767-.984,6.128-5.523,8.625S236,261.7,236,261.7Z" transform="translate(739.328 1044.993)" fill="#adadad"/>
    <path id="Trazado_49787" data-name="Trazado 49787" d="M219.217,261.7s-3.175-8.852-8.285-11.349-8.816-4.767-8.816-4.767.984,6.128,5.523,8.625S219.217,261.7,219.217,261.7Z" transform="translate(726 1044.993)" fill="#adadad"/>
    <path id="Trazado_49788" data-name="Trazado 49788" d="M263.944,173.12s.729-4.257,3.967-5.278,8.955,0,8.955,0A37.627,37.627,0,0,0,263.944,173.12Z" transform="translate(750.318 1014.235)" fill="#adadad"/>
    <path id="Trazado_49789" data-name="Trazado 49789" d="M192.071,169.006s-.729-4.255-3.967-5.277-8.955,0-8.955,0A37.642,37.642,0,0,1,192.071,169.006Z" transform="translate(716.965 1012.617)" fill="#adadad"/>
    <path id="Trazado_49790" data-name="Trazado 49790" d="M189.35,167.687s-2.945-2.383-9.755,0-6.639,7.775-6.639,7.775a31.28,31.28,0,0,1,7.191-5.618A19.447,19.447,0,0,1,189.35,167.687Z" transform="translate(714.529 1013.936)" fill="#adadad"/>
    <path id="Trazado_49791" data-name="Trazado 49791" d="M267.067,171.475s2.946-2.384,9.755,0,6.639,7.775,6.639,7.775a31.238,31.238,0,0,0-7.191-5.618A19.43,19.43,0,0,0,267.067,171.475Z" transform="translate(751.546 1015.426)" fill="#adadad"/>
    <path id="Trazado_49792" data-name="Trazado 49792" d="M257.487,135.878a58.356,58.356,0,0,0-6.5,17.252c-1.816,9.533.681,25.593.681,25.593s1.066-19.238,2.235-25.593S257.487,135.878,257.487,135.878Z" transform="translate(744.963 1001.841)" fill="#adadad"/>
    <path id="Trazado_49793" data-name="Trazado 49793" d="M190.672,134.5a58.368,58.368,0,0,1,9.635,15.715c3.582,9.019,4.162,25.261,4.162,25.261s-4.677-18.69-7.027-24.711S190.672,134.5,190.672,134.5Z" transform="translate(721.498 1001.3)" fill="#adadad"/>
    <path id="Trazado_49794" data-name="Trazado 49794" d="M214.39,192.64s4.92,6.276,11.275,9.267,15.923,2.763,15.923,2.763-5.371-2.493-13.6-6.014S214.39,192.64,214.39,192.64Z" transform="translate(730.827 1024.168)" fill="#adadad"/>
    <path id="Trazado_49795" data-name="Trazado 49795" d="M187.455,200.248s8.366-.932,13.6-1.942a112.642,112.642,0,0,1,13.127-1.347s-9.519,5.787-16.082,5.105A71.438,71.438,0,0,1,187.455,200.248Z" transform="translate(720.232 1025.866)" fill="#adadad"/>
  </g>
</svg>
