<svg xmlns="http://www.w3.org/2000/svg" width="901.718" height="508.996" viewBox="0 0 901.718 508.996">
  <g id="Grupo_28746" data-name="Grupo 28746" transform="translate(-10577.282 449.996)">
    <g id="Trazado_58092" data-name="Trazado 58092" transform="translate(10623 -454)" fill="#fed97b">
      <path d="M292.535,6a4,4,0,0,1,6.929,0L588.539,507a4,4,0,0,1-3.465,6H6.926a4,4,0,0,1-3.465-6Z" stroke="none"/>
      <path d="M 295.9999084472656 5.003631591796875 C 294.9150085449219 5.003631591796875 293.943603515625 5.56463623046875 293.4014587402344 6.50433349609375 L 4.32763671875 507.5006408691406 C 3.78564453125 508.43994140625 3.78582763671875 509.5613403320313 4.3282470703125 510.5003356933594 C 4.87054443359375 511.4394226074219 5.8416748046875 512 6.92608642578125 512 L 585.0739135742188 512 C 586.1583251953125 512 587.1294555664063 511.4394226074219 587.6717529296875 510.5003356933594 C 588.2141723632813 509.5612487792969 588.2142944335938 508.4398803710938 587.67236328125 507.5006408691406 L 298.5984497070313 6.50433349609375 C 298.0563049316406 5.56463623046875 297.0848388671875 5.003631591796875 295.9999084472656 5.003631591796875 M 295.9999694824219 4.00360107421875 C 297.3474426269531 4.00360107421875 298.6949157714844 4.67059326171875 299.4646301269531 6.00457763671875 L 588.5385131835938 507.0008850097656 C 590.0772094726563 509.6675720214844 588.152587890625 513 585.0739135742188 513 L 6.92608642578125 513 C 3.8472900390625 513 1.92279052734375 509.6675720214844 3.46148681640625 507.0008850097656 L 292.5353088378906 6.00457763671875 C 293.3049926757813 4.67059326171875 294.6524658203125 4.00360107421875 295.9999694824219 4.00360107421875 Z" stroke="none" fill="rgba(112,112,112,0)"/>
    </g>
    <path id="Trazado_58093" data-name="Trazado 58093" d="M20,0H374a20,20,0,0,1,20,20V43a20,20,0,0,1-20,20H20A20,20,0,0,1,0,43V20A20,20,0,0,1,20,0Z" transform="translate(10860 -416)" fill="#2b4e6a"/>
    <path id="Trazado_58094" data-name="Trazado 58094" d="M8.465,5.478a4.671,4.671,0,0,1,3.577,1.445A5.026,5.026,0,0,1,13.4,10.494a4.9,4.9,0,0,1-1.343,3.55,4.756,4.756,0,0,1-3.588,1.391H5.231V21H2.009V5.478Zm-.537,7.262A2.368,2.368,0,0,0,9.7,12.132a2.308,2.308,0,0,0,.591-1.681,2.289,2.289,0,0,0-.6-1.66,2.347,2.347,0,0,0-1.767-.618h-2.7v4.565Zm10.731-1.031a3.585,3.585,0,0,1,1.45-1.327,4.425,4.425,0,0,1,2.159-.553v2.761a4.183,4.183,0,0,0-2.643.666,2.908,2.908,0,0,0-.816,2.363V21H15.694V9.957h2.965Zm15.748,3.609-.032.741H26.189a2.859,2.859,0,0,0,.881,2.02,2.817,2.817,0,0,0,1.944.7A2.715,2.715,0,0,0,30.47,18.4a2.344,2.344,0,0,0,.929-1.112l2.836.419A4.821,4.821,0,0,1,32.3,20.291a5.749,5.749,0,0,1-3.266.924,5.978,5.978,0,0,1-4.3-1.52,5.546,5.546,0,0,1-1.6-4.216,5.579,5.579,0,0,1,1.6-4.216,5.8,5.8,0,0,1,4.2-1.542A5.544,5.544,0,0,1,32.9,11.128,5.52,5.52,0,0,1,34.407,15.317Zm-5.446-3.405a2.445,2.445,0,0,0-2.686,2.127h5.07a2.326,2.326,0,0,0-.763-1.579A2.417,2.417,0,0,0,28.961,11.912ZM43.506,9.957h3.276L42.077,21H39.392L34.74,9.957H38l2.75,7.552Zm14.846,5.36-.032.741H50.134a2.859,2.859,0,0,0,.881,2.02,2.817,2.817,0,0,0,1.944.7,2.715,2.715,0,0,0,1.456-.381,2.344,2.344,0,0,0,.929-1.112l2.836.419a4.821,4.821,0,0,1-1.934,2.589,5.749,5.749,0,0,1-3.266.924,5.978,5.978,0,0,1-4.3-1.52,5.546,5.546,0,0,1-1.6-4.216,5.579,5.579,0,0,1,1.6-4.216,5.8,5.8,0,0,1,4.2-1.542,5.544,5.544,0,0,1,3.964,1.407A5.52,5.52,0,0,1,58.352,15.317Zm-5.446-3.405a2.445,2.445,0,0,0-2.686,2.127h5.07a2.326,2.326,0,0,0-.763-1.579A2.417,2.417,0,0,0,52.905,11.912Zm14.319-2.17a4.3,4.3,0,0,1,3.051.994,3.684,3.684,0,0,1,1.063,2.831V21h-3.1V14.232a1.924,1.924,0,0,0-.553-1.525,2.084,2.084,0,0,0-1.423-.483,2.908,2.908,0,0,0-.924.14,2.373,2.373,0,0,0-.773.435,1.923,1.923,0,0,0-.553.833,3.85,3.85,0,0,0-.209,1.278V21H60.7V9.957H63.8v1.225A4.255,4.255,0,0,1,67.225,9.742ZM79.331,21.2a5.9,5.9,0,0,1-4.265-1.59,5.491,5.491,0,0,1-1.654-4.146,5.479,5.479,0,0,1,1.649-4.146,6.556,6.556,0,0,1,7.847-.516,4.748,4.748,0,0,1,1.848,3l-2.857.312a2.448,2.448,0,0,0-.924-1.45,2.809,2.809,0,0,0-1.676-.483,2.533,2.533,0,0,0-2.02.9,3.538,3.538,0,0,0-.773,2.385,3.542,3.542,0,0,0,.773,2.379,2.526,2.526,0,0,0,2.02.908,2.785,2.785,0,0,0,1.67-.483,2.505,2.505,0,0,0,.929-1.45l2.857.312a4.761,4.761,0,0,1-1.864,3A5.86,5.86,0,0,1,79.331,21.2ZM88.537,8.3a1.737,1.737,0,0,1-1.268-.521,1.71,1.71,0,0,1-.526-1.262,1.69,1.69,0,0,1,.532-1.251,1.742,1.742,0,0,1,1.262-.521A1.788,1.788,0,0,1,90.31,6.52,1.788,1.788,0,0,1,88.537,8.3ZM86.958,21V9.957h3.115V21ZM97.464,8.453,100.278,4.5,101.8,5.574,99.365,8.453Zm.956,12.762a6.944,6.944,0,0,1-3.126-.677,5.058,5.058,0,0,1-2.143-1.987,5.922,5.922,0,0,1-.779-3.083,5.4,5.4,0,0,1,1.676-4.189,7.005,7.005,0,0,1,8.755,0,5.4,5.4,0,0,1,1.676,4.189,5.432,5.432,0,0,1-1.676,4.206A6.219,6.219,0,0,1,98.42,21.215Zm-.032-2.46a2.835,2.835,0,0,0,2.186-.9,3.378,3.378,0,0,0,.833-2.385,3.378,3.378,0,0,0-.833-2.385,2.835,2.835,0,0,0-2.186-.9,2.731,2.731,0,0,0-2.122.908,3.409,3.409,0,0,0-.822,2.379,3.409,3.409,0,0,0,.822,2.379A2.731,2.731,0,0,0,98.388,18.755ZM113.3,9.742a4.3,4.3,0,0,1,3.051.994,3.684,3.684,0,0,1,1.063,2.831V21h-3.1V14.232a1.924,1.924,0,0,0-.553-1.525,2.084,2.084,0,0,0-1.423-.483,2.908,2.908,0,0,0-.924.14,2.373,2.373,0,0,0-.773.435,1.923,1.923,0,0,0-.553.833,3.85,3.85,0,0,0-.209,1.278V21h-3.094V9.957h3.094v1.225A4.255,4.255,0,0,1,113.3,9.742Z" transform="translate(10998 -398)" fill="#fff"/>
    <path id="Trazado_58095" data-name="Trazado 58095" d="M20,0H374a20,20,0,0,1,20,20V43a20,20,0,0,1-20,20H20A20,20,0,0,1,0,43V20A20,20,0,0,1,20,0Z" transform="translate(10908 -317)" fill="#2b4e6a"/>
    <path id="Trazado_58096" data-name="Trazado 58096" d="M19.8,21H16.586L15.565,9.3,11.634,21H9.55L5.618,9.3,4.587,21H1.364l1.3-15.522h4.6l3.309,9.743,3.352-9.743h4.6Zm8.046.215a6.944,6.944,0,0,1-3.126-.677,5.058,5.058,0,0,1-2.143-1.987,5.922,5.922,0,0,1-.779-3.083,5.4,5.4,0,0,1,1.676-4.189,6.217,6.217,0,0,1,4.372-1.536,6.232,6.232,0,0,1,4.383,1.536A5.4,5.4,0,0,1,33.9,15.468a5.432,5.432,0,0,1-1.676,4.206A6.219,6.219,0,0,1,27.844,21.215Zm-.032-2.46a2.835,2.835,0,0,0,2.186-.9,3.378,3.378,0,0,0,.833-2.385A3.378,3.378,0,0,0,30,13.083a2.835,2.835,0,0,0-2.186-.9,2.731,2.731,0,0,0-2.122.908,3.409,3.409,0,0,0-.822,2.379,3.409,3.409,0,0,0,.822,2.379A2.731,2.731,0,0,0,27.812,18.755Zm14.91-9.013a4.3,4.3,0,0,1,3.051.994,3.684,3.684,0,0,1,1.063,2.831V21h-3.1V14.232a1.923,1.923,0,0,0-.553-1.525,2.084,2.084,0,0,0-1.423-.483,2.908,2.908,0,0,0-.924.14,2.373,2.373,0,0,0-.773.435,1.923,1.923,0,0,0-.553.833,3.85,3.85,0,0,0-.209,1.278V21H36.2V9.957h3.094v1.225A4.255,4.255,0,0,1,42.722,9.742ZM51.412,8.3a1.737,1.737,0,0,1-1.268-.521,1.71,1.71,0,0,1-.526-1.262,1.69,1.69,0,0,1,.532-1.251,1.742,1.742,0,0,1,1.262-.521A1.788,1.788,0,0,1,53.185,6.52,1.788,1.788,0,0,1,51.412,8.3ZM49.833,21V9.957h3.115V21Zm10.431,0a3.335,3.335,0,0,1-2.492-.9,3.489,3.489,0,0,1-.881-2.551V12.331h-2.17V9.957h.7A1.822,1.822,0,0,0,56.794,9.5a2.378,2.378,0,0,0,.44-1.644V6.391h2.793V9.957H62.3v2.374H60.027v4.888q0,1.429,1.278,1.429h1V21Zm9.539.215a6.944,6.944,0,0,1-3.126-.677,5.058,5.058,0,0,1-2.143-1.987,5.922,5.922,0,0,1-.779-3.083,5.4,5.4,0,0,1,1.676-4.189,7.005,7.005,0,0,1,8.755,0,5.4,5.4,0,0,1,1.676,4.189,5.432,5.432,0,0,1-1.676,4.206A6.219,6.219,0,0,1,69.8,21.215Zm-.032-2.46a2.835,2.835,0,0,0,2.186-.9,3.378,3.378,0,0,0,.833-2.385,3.378,3.378,0,0,0-.833-2.385,2.835,2.835,0,0,0-2.186-.9,2.731,2.731,0,0,0-2.122.908,3.409,3.409,0,0,0-.822,2.379,3.409,3.409,0,0,0,.822,2.379A2.731,2.731,0,0,0,69.771,18.755Zm11.354-7.047a3.585,3.585,0,0,1,1.45-1.327,4.425,4.425,0,0,1,2.159-.553v2.761a4.183,4.183,0,0,0-2.643.666,2.908,2.908,0,0,0-.816,2.363V21H78.16V9.957h2.965Zm15.748,3.609-.032.741H88.655a2.859,2.859,0,0,0,.881,2.02,2.817,2.817,0,0,0,1.944.7,2.715,2.715,0,0,0,1.456-.381,2.344,2.344,0,0,0,.929-1.112L96.7,17.7a4.821,4.821,0,0,1-1.934,2.589,5.749,5.749,0,0,1-3.266.924,5.978,5.978,0,0,1-4.3-1.52,5.546,5.546,0,0,1-1.6-4.216,5.579,5.579,0,0,1,1.6-4.216,5.8,5.8,0,0,1,4.2-1.542,5.544,5.544,0,0,1,3.964,1.407A5.52,5.52,0,0,1,96.873,15.317Zm-5.446-3.405a2.445,2.445,0,0,0-2.686,2.127h5.07a2.326,2.326,0,0,0-.763-1.579A2.417,2.417,0,0,0,91.427,11.912Zm12.944,9.3a6.944,6.944,0,0,1-3.126-.677A5.058,5.058,0,0,1,99.1,18.551a5.922,5.922,0,0,1-.779-3.083A5.4,5.4,0,0,1,100,11.278a7.005,7.005,0,0,1,8.755,0,5.4,5.4,0,0,1,1.676,4.189,5.432,5.432,0,0,1-1.676,4.206A6.219,6.219,0,0,1,104.371,21.215Zm-.032-2.46a2.835,2.835,0,0,0,2.186-.9,3.378,3.378,0,0,0,.833-2.385,3.378,3.378,0,0,0-.833-2.385,2.835,2.835,0,0,0-2.186-.9,2.731,2.731,0,0,0-2.122.908,3.409,3.409,0,0,0-.822,2.379,3.409,3.409,0,0,0,.822,2.379A2.731,2.731,0,0,0,104.339,18.755Z" transform="translate(11046 -299)" fill="#fff"/>
    <path id="Trazado_58097" data-name="Trazado 58097" d="M20,0H374a20,20,0,0,1,20,20V43a20,20,0,0,1-20,20H20A20,20,0,0,1,0,43V20A20,20,0,0,1,20,0Z" transform="translate(10971 -218)" fill="#2b4e6a"/>
    <path id="Trazado_58098" data-name="Trazado 58098" d="M11.011,5.478V8.313H7.326V21H4.136V8.313H.43V5.478Zm5.414,15.737a6.944,6.944,0,0,1-3.126-.677,5.058,5.058,0,0,1-2.143-1.987,5.922,5.922,0,0,1-.779-3.083,5.4,5.4,0,0,1,1.676-4.189,6.217,6.217,0,0,1,4.372-1.536,6.232,6.232,0,0,1,4.383,1.536,5.4,5.4,0,0,1,1.676,4.189,5.432,5.432,0,0,1-1.676,4.206A6.219,6.219,0,0,1,16.425,21.215Zm-.032-2.46a2.835,2.835,0,0,0,2.186-.9,3.378,3.378,0,0,0,.833-2.385,3.378,3.378,0,0,0-.833-2.385,2.835,2.835,0,0,0-2.186-.9,2.731,2.731,0,0,0-2.122.908,3.409,3.409,0,0,0-.822,2.379,3.409,3.409,0,0,0,.822,2.379A2.731,2.731,0,0,0,16.393,18.755ZM37.866,9.742a4.219,4.219,0,0,1,2.847.9,3.209,3.209,0,0,1,1.042,2.573V21H38.661V14.093a1.845,1.845,0,0,0-.494-1.4,1.731,1.731,0,0,0-1.246-.473,2,2,0,0,0-1.5.6,2.732,2.732,0,0,0-.58,1.944V21H31.711V14.125a1.894,1.894,0,0,0-.494-1.423,1.762,1.762,0,0,0-1.278-.478,1.932,1.932,0,0,0-1.493.634,3.027,3.027,0,0,0-.58,2.073V21H24.782V9.957h3.083v1.3a3.755,3.755,0,0,1,3.2-1.515,4.722,4.722,0,0,1,2.079.424A2.829,2.829,0,0,1,34.45,11.4,3.9,3.9,0,0,1,37.866,9.742ZM53.818,18a10.331,10.331,0,0,0,.269,2.7V21H51.2l-.247-1.2A3.591,3.591,0,0,1,49.4,20.86a5.7,5.7,0,0,1-2,.354,5.254,5.254,0,0,1-1.031-.1,3.506,3.506,0,0,1-.929-.328,2.82,2.82,0,0,1-.768-.575,2.52,2.52,0,0,1-.516-.875,3.488,3.488,0,0,1-.193-1.2,3.322,3.322,0,0,1,.2-1.2,2.807,2.807,0,0,1,.537-.9,3.258,3.258,0,0,1,.87-.655,6.658,6.658,0,0,1,1.1-.473,13.092,13.092,0,0,1,1.311-.344l1.815-.408a2,2,0,0,0,.822-.349.7.7,0,0,0,.242-.553,1.14,1.14,0,0,0-.542-1.063,2.533,2.533,0,0,0-1.316-.322,1.894,1.894,0,0,0-2.159,1.687l-2.739-.494a3.708,3.708,0,0,1,1.6-2.519,6.362,6.362,0,0,1,3.47-.811q4.641,0,4.641,3.985ZM48.372,19.12a2.488,2.488,0,0,0,1.912-.8,3.372,3.372,0,0,0,.741-2.369l-2.621.741a3.1,3.1,0,0,0-1.1.451.927.927,0,0,0-.381.795,1.029,1.029,0,0,0,.408.875A1.689,1.689,0,0,0,48.372,19.12Zm22-14.62h3.094V21H70.533l-.075-1.439a3.154,3.154,0,0,1-1.4,1.251,4.719,4.719,0,0,1-2.068.446,5.371,5.371,0,0,1-2.062-.4,4.967,4.967,0,0,1-2.836-2.943,6.717,6.717,0,0,1-.419-2.417,6.278,6.278,0,0,1,.73-3.078,5.005,5.005,0,0,1,1.928-2,5.31,5.31,0,0,1,2.659-.677,4.837,4.837,0,0,1,2,.4,3.128,3.128,0,0,1,1.38,1.144ZM67.7,18.69a2.754,2.754,0,0,0,2.089-.881,3.225,3.225,0,0,0,.833-2.31,3.232,3.232,0,0,0-.838-2.315A2.751,2.751,0,0,0,67.7,12.3a2.783,2.783,0,0,0-2.1.87,3.231,3.231,0,0,0-.833,2.331,3.216,3.216,0,0,0,.833,2.32A2.783,2.783,0,0,0,67.7,18.69Zm19.357-3.373-.032.741H78.837a2.859,2.859,0,0,0,.881,2.02,2.817,2.817,0,0,0,1.944.7,2.715,2.715,0,0,0,1.456-.381,2.344,2.344,0,0,0,.929-1.112l2.836.419a4.821,4.821,0,0,1-1.934,2.589,5.749,5.749,0,0,1-3.266.924,5.978,5.978,0,0,1-4.3-1.52,5.546,5.546,0,0,1-1.6-4.216,5.579,5.579,0,0,1,1.6-4.216,5.8,5.8,0,0,1,4.2-1.542,5.544,5.544,0,0,1,3.964,1.407A5.52,5.52,0,0,1,87.055,15.317Zm-5.446-3.405a2.445,2.445,0,0,0-2.686,2.127h5.07a2.326,2.326,0,0,0-.763-1.579A2.417,2.417,0,0,0,81.608,11.912ZM102.953,4.5h3.094V21h-2.933l-.075-1.439a3.154,3.154,0,0,1-1.4,1.251,4.719,4.719,0,0,1-2.068.446,5.371,5.371,0,0,1-2.062-.4,4.967,4.967,0,0,1-2.836-2.943,6.717,6.717,0,0,1-.419-2.417,6.278,6.278,0,0,1,.73-3.078,5.005,5.005,0,0,1,1.928-2,5.31,5.31,0,0,1,2.659-.677,4.837,4.837,0,0,1,2,.4,3.128,3.128,0,0,1,1.38,1.144Zm-2.675,14.19a2.754,2.754,0,0,0,2.089-.881,3.225,3.225,0,0,0,.833-2.31,3.232,3.232,0,0,0-.838-2.315,2.751,2.751,0,0,0-2.084-.886,2.783,2.783,0,0,0-2.1.87,3.231,3.231,0,0,0-.833,2.331,3.216,3.216,0,0,0,.833,2.32A2.783,2.783,0,0,0,100.278,18.69Zm19.357-3.373-.032.741h-8.186a2.859,2.859,0,0,0,.881,2.02,2.817,2.817,0,0,0,1.944.7A2.715,2.715,0,0,0,115.7,18.4a2.344,2.344,0,0,0,.929-1.112l2.836.419a4.821,4.821,0,0,1-1.934,2.589,5.749,5.749,0,0,1-3.266.924,5.978,5.978,0,0,1-4.3-1.52,5.546,5.546,0,0,1-1.6-4.216,5.579,5.579,0,0,1,1.6-4.216,5.8,5.8,0,0,1,4.2-1.542,5.544,5.544,0,0,1,3.964,1.407A5.52,5.52,0,0,1,119.636,15.317Zm-5.446-3.405a2.445,2.445,0,0,0-2.686,2.127h5.07a2.326,2.326,0,0,0-.763-1.579A2.417,2.417,0,0,0,114.189,11.912ZM126.983,21.2a5.9,5.9,0,0,1-4.265-1.59,5.491,5.491,0,0,1-1.654-4.146,5.479,5.479,0,0,1,1.649-4.146,6.556,6.556,0,0,1,7.847-.516,4.748,4.748,0,0,1,1.848,3l-2.857.312a2.448,2.448,0,0,0-.924-1.45,2.809,2.809,0,0,0-1.676-.483,2.533,2.533,0,0,0-2.02.9,3.538,3.538,0,0,0-.773,2.385,3.542,3.542,0,0,0,.773,2.379,2.526,2.526,0,0,0,2.02.908,2.785,2.785,0,0,0,1.67-.483,2.505,2.505,0,0,0,.929-1.45l2.857.312a4.761,4.761,0,0,1-1.864,3A5.86,5.86,0,0,1,126.983,21.2Zm9.206-12.9a1.737,1.737,0,0,1-1.268-.521A1.71,1.71,0,0,1,134.4,6.52a1.69,1.69,0,0,1,.532-1.251,1.742,1.742,0,0,1,1.262-.521,1.788,1.788,0,0,1,1.772,1.772A1.788,1.788,0,0,1,136.189,8.3ZM134.61,21V9.957h3.115V21Zm10.205.215a6.171,6.171,0,0,1-3.223-.773,3.269,3.269,0,0,1-1.579-2.3l2.589-.73a2.08,2.08,0,0,0,2.213,1.644,2.285,2.285,0,0,0,1.128-.252.879.879,0,0,0,.44-.854.9.9,0,0,0-.183-.569,1.446,1.446,0,0,0-.564-.408,7.026,7.026,0,0,0-.752-.29q-.371-.118-.983-.285t-1.021-.317a6.836,6.836,0,0,1-.972-.414,4.147,4.147,0,0,1-.806-.569,2.3,2.3,0,0,1-.6-.865,3.12,3.12,0,0,1-.209-1.182,2.821,2.821,0,0,1,1.2-2.471,5.352,5.352,0,0,1,3.131-.838,5.487,5.487,0,0,1,2.89.709,3.209,3.209,0,0,1,1.482,2.213l-2.4.537a1.876,1.876,0,0,0-1.966-1.4,2.153,2.153,0,0,0-1.085.247.794.794,0,0,0-.43.73.837.837,0,0,0,.064.333.659.659,0,0,0,.226.269,3.289,3.289,0,0,0,.312.2,2.35,2.35,0,0,0,.44.177q.29.091.483.14l.564.145.575.15q.591.161,1.037.322a6.072,6.072,0,0,1,.951.451,3.412,3.412,0,0,1,.833.65,2.9,2.9,0,0,1,.542.913,3.372,3.372,0,0,1,.215,1.23,3.322,3.322,0,0,1-.371,1.6,2.782,2.782,0,0,1-1.015,1.08,4.941,4.941,0,0,1-1.434.58A7.439,7.439,0,0,1,144.815,21.215ZM153.162,8.3a1.737,1.737,0,0,1-1.268-.521,1.71,1.71,0,0,1-.526-1.262,1.69,1.69,0,0,1,.532-1.251,1.742,1.742,0,0,1,1.262-.521,1.788,1.788,0,0,1,1.772,1.772A1.788,1.788,0,0,1,153.162,8.3ZM151.583,21V9.957H154.7V21Zm11.462.215a6.944,6.944,0,0,1-3.126-.677,5.058,5.058,0,0,1-2.143-1.987A5.922,5.922,0,0,1,157,15.468a5.4,5.4,0,0,1,1.676-4.189,7.005,7.005,0,0,1,8.755,0,5.4,5.4,0,0,1,1.676,4.189,5.432,5.432,0,0,1-1.676,4.206A6.219,6.219,0,0,1,163.045,21.215Zm-.032-2.46a2.835,2.835,0,0,0,2.186-.9,3.378,3.378,0,0,0,.833-2.385,3.378,3.378,0,0,0-.833-2.385,2.835,2.835,0,0,0-2.186-.9,2.731,2.731,0,0,0-2.122.908,3.409,3.409,0,0,0-.822,2.379,3.409,3.409,0,0,0,.822,2.379A2.731,2.731,0,0,0,163.013,18.755Zm14.91-9.013a4.3,4.3,0,0,1,3.051.994,3.684,3.684,0,0,1,1.063,2.831V21h-3.1V14.232a1.923,1.923,0,0,0-.553-1.525,2.084,2.084,0,0,0-1.423-.483,2.908,2.908,0,0,0-.924.14,2.373,2.373,0,0,0-.773.435,1.923,1.923,0,0,0-.553.833,3.85,3.85,0,0,0-.209,1.278V21H171.4V9.957H174.5v1.225A4.255,4.255,0,0,1,177.923,9.742Zm17.5,5.575-.032.741H187.2a2.859,2.859,0,0,0,.881,2.02,2.817,2.817,0,0,0,1.944.7,2.715,2.715,0,0,0,1.456-.381,2.344,2.344,0,0,0,.929-1.112l2.836.419a4.821,4.821,0,0,1-1.934,2.589,5.749,5.749,0,0,1-3.266.924,5.978,5.978,0,0,1-4.3-1.52,5.546,5.546,0,0,1-1.6-4.216,5.579,5.579,0,0,1,1.6-4.216,5.8,5.8,0,0,1,4.2-1.542,5.543,5.543,0,0,1,3.964,1.407A5.52,5.52,0,0,1,195.422,15.317Zm-5.446-3.405a2.445,2.445,0,0,0-2.686,2.127h5.07a2.326,2.326,0,0,0-.763-1.579A2.417,2.417,0,0,0,189.976,11.912Zm11.688,9.3a6.171,6.171,0,0,1-3.223-.773,3.269,3.269,0,0,1-1.579-2.3l2.589-.73a2.08,2.08,0,0,0,2.213,1.644,2.285,2.285,0,0,0,1.128-.252.879.879,0,0,0,.44-.854.9.9,0,0,0-.183-.569,1.446,1.446,0,0,0-.564-.408,7.026,7.026,0,0,0-.752-.29q-.371-.118-.983-.285t-1.021-.317a6.836,6.836,0,0,1-.972-.414,4.147,4.147,0,0,1-.806-.569,2.3,2.3,0,0,1-.6-.865,3.12,3.12,0,0,1-.209-1.182,2.821,2.821,0,0,1,1.2-2.471,5.352,5.352,0,0,1,3.131-.838,5.487,5.487,0,0,1,2.89.709,3.209,3.209,0,0,1,1.482,2.213l-2.4.537a1.876,1.876,0,0,0-1.966-1.4,2.153,2.153,0,0,0-1.085.247.794.794,0,0,0-.43.73.837.837,0,0,0,.064.333.659.659,0,0,0,.226.269,3.289,3.289,0,0,0,.312.2,2.35,2.35,0,0,0,.44.177q.29.091.483.14l.564.145.575.15q.591.161,1.037.322a6.072,6.072,0,0,1,.951.451,3.412,3.412,0,0,1,.833.65,2.9,2.9,0,0,1,.542.913,3.372,3.372,0,0,1,.215,1.23,3.322,3.322,0,0,1-.371,1.6,2.782,2.782,0,0,1-1.015,1.08,4.941,4.941,0,0,1-1.434.58A7.439,7.439,0,0,1,201.663,21.215Z" transform="translate(11062 -200)" fill="#fff"/>
    <path id="Trazado_58099" data-name="Trazado 58099" d="M20,0H374a20,20,0,0,1,20,20V43a20,20,0,0,1-20,20H20A20,20,0,0,1,0,43V20A20,20,0,0,1,20,0Z" transform="translate(11026 -119)" fill="#2b4e6a"/>
    <path id="Trazado_58100" data-name="Trazado 58100" d="M2.009,21V5.478H5.231V21ZM15.351,9.742a4.3,4.3,0,0,1,3.051.994,3.684,3.684,0,0,1,1.063,2.831V21h-3.1V14.232a1.924,1.924,0,0,0-.553-1.525,2.084,2.084,0,0,0-1.423-.483,2.908,2.908,0,0,0-.924.14,2.373,2.373,0,0,0-.773.435,1.923,1.923,0,0,0-.553.833,3.85,3.85,0,0,0-.209,1.278V21H8.83V9.957h3.094v1.225A4.255,4.255,0,0,1,15.351,9.742ZM26.576,21a3.335,3.335,0,0,1-2.492-.9,3.489,3.489,0,0,1-.881-2.551V12.331h-2.17V9.957h.7A1.822,1.822,0,0,0,23.106,9.5a2.378,2.378,0,0,0,.44-1.644V6.391H26.34V9.957h2.277v2.374H26.34v4.888q0,1.429,1.278,1.429h1V21Zm14.781-5.683-.032.741H33.14a2.859,2.859,0,0,0,.881,2.02,2.817,2.817,0,0,0,1.944.7A2.715,2.715,0,0,0,37.42,18.4a2.344,2.344,0,0,0,.929-1.112l2.836.419a4.821,4.821,0,0,1-1.934,2.589,5.749,5.749,0,0,1-3.266.924,5.978,5.978,0,0,1-4.3-1.52,5.546,5.546,0,0,1-1.6-4.216,5.579,5.579,0,0,1,1.6-4.216,5.8,5.8,0,0,1,4.2-1.542,5.544,5.544,0,0,1,3.964,1.407A5.52,5.52,0,0,1,41.357,15.317Zm-5.446-3.405a2.445,2.445,0,0,0-2.686,2.127H38.3a2.326,2.326,0,0,0-.763-1.579A2.417,2.417,0,0,0,35.911,11.912Zm10.764-.2a3.585,3.585,0,0,1,1.45-1.327,4.425,4.425,0,0,1,2.159-.553v2.761a4.183,4.183,0,0,0-2.643.666,2.908,2.908,0,0,0-.816,2.363V21H43.71V9.957h2.965Zm12.9-1.751h3.276L58.147,21H55.462L50.811,9.957h3.255l2.75,7.552Zm14.846,5.36-.032.741H66.2a2.859,2.859,0,0,0,.881,2.02,2.817,2.817,0,0,0,1.944.7,2.715,2.715,0,0,0,1.456-.381,2.344,2.344,0,0,0,.929-1.112l2.836.419a4.821,4.821,0,0,1-1.934,2.589,5.749,5.749,0,0,1-3.266.924,5.978,5.978,0,0,1-4.3-1.52,5.546,5.546,0,0,1-1.6-4.216,5.579,5.579,0,0,1,1.6-4.216,5.8,5.8,0,0,1,4.2-1.542,5.544,5.544,0,0,1,3.964,1.407A5.52,5.52,0,0,1,74.422,15.317Zm-5.446-3.405a2.445,2.445,0,0,0-2.686,2.127h5.07A2.326,2.326,0,0,0,70.6,12.46,2.417,2.417,0,0,0,68.976,11.912Zm14.319-2.17a4.3,4.3,0,0,1,3.051.994,3.684,3.684,0,0,1,1.063,2.831V21H84.3V14.232a1.924,1.924,0,0,0-.553-1.525,2.084,2.084,0,0,0-1.423-.483,2.908,2.908,0,0,0-.924.14,2.373,2.373,0,0,0-.773.435,1.923,1.923,0,0,0-.553.833,3.85,3.85,0,0,0-.209,1.278V21H76.774V9.957h3.094v1.225A4.255,4.255,0,0,1,83.295,9.742ZM95.4,21.2a5.9,5.9,0,0,1-4.265-1.59,5.491,5.491,0,0,1-1.654-4.146,5.479,5.479,0,0,1,1.649-4.146,6.556,6.556,0,0,1,7.847-.516,4.748,4.748,0,0,1,1.848,3l-2.857.312a2.448,2.448,0,0,0-.924-1.45,2.809,2.809,0,0,0-1.676-.483,2.533,2.533,0,0,0-2.02.9,3.538,3.538,0,0,0-.773,2.385,3.542,3.542,0,0,0,.773,2.379,2.526,2.526,0,0,0,2.02.908,2.785,2.785,0,0,0,1.67-.483,2.505,2.505,0,0,0,.929-1.45l2.857.312a4.761,4.761,0,0,1-1.864,3A5.86,5.86,0,0,1,95.4,21.2Zm9.206-12.9a1.737,1.737,0,0,1-1.268-.521,1.71,1.71,0,0,1-.526-1.262,1.69,1.69,0,0,1,.532-1.251,1.742,1.742,0,0,1,1.262-.521A1.788,1.788,0,0,1,106.38,6.52,1.788,1.788,0,0,1,104.607,8.3ZM103.028,21V9.957h3.115V21Zm11.462.215a6.944,6.944,0,0,1-3.126-.677,5.058,5.058,0,0,1-2.143-1.987,5.922,5.922,0,0,1-.779-3.083,5.4,5.4,0,0,1,1.676-4.189,7.005,7.005,0,0,1,8.755,0,5.4,5.4,0,0,1,1.676,4.189,5.432,5.432,0,0,1-1.676,4.206A6.219,6.219,0,0,1,114.49,21.215Zm-.032-2.46a2.835,2.835,0,0,0,2.186-.9,3.378,3.378,0,0,0,.833-2.385,3.378,3.378,0,0,0-.833-2.385,2.835,2.835,0,0,0-2.186-.9,2.731,2.731,0,0,0-2.122.908,3.409,3.409,0,0,0-.822,2.379,3.409,3.409,0,0,0,.822,2.379A2.731,2.731,0,0,0,114.458,18.755Zm14.91-9.013a4.3,4.3,0,0,1,3.051.994,3.684,3.684,0,0,1,1.063,2.831V21h-3.1V14.232a1.923,1.923,0,0,0-.553-1.525,2.084,2.084,0,0,0-1.423-.483,2.908,2.908,0,0,0-.924.14,2.373,2.373,0,0,0-.773.435,1.923,1.923,0,0,0-.553.833,3.85,3.85,0,0,0-.209,1.278V21h-3.094V9.957h3.094v1.225A4.255,4.255,0,0,1,129.368,9.742Zm17.5,5.575-.032.741h-8.186a2.859,2.859,0,0,0,.881,2.02,2.817,2.817,0,0,0,1.944.7,2.715,2.715,0,0,0,1.456-.381,2.344,2.344,0,0,0,.929-1.112l2.836.419a4.821,4.821,0,0,1-1.934,2.589,5.749,5.749,0,0,1-3.266.924,5.978,5.978,0,0,1-4.3-1.52,5.546,5.546,0,0,1-1.6-4.216,5.579,5.579,0,0,1,1.6-4.216,5.8,5.8,0,0,1,4.2-1.542,5.543,5.543,0,0,1,3.964,1.407A5.52,5.52,0,0,1,146.867,15.317Zm-5.446-3.405a2.445,2.445,0,0,0-2.686,2.127h5.07a2.326,2.326,0,0,0-.763-1.579A2.417,2.417,0,0,0,141.421,11.912Zm11.688,9.3a6.171,6.171,0,0,1-3.223-.773,3.269,3.269,0,0,1-1.579-2.3l2.589-.73a2.08,2.08,0,0,0,2.213,1.644,2.285,2.285,0,0,0,1.128-.252.879.879,0,0,0,.44-.854.9.9,0,0,0-.183-.569,1.446,1.446,0,0,0-.564-.408,7.026,7.026,0,0,0-.752-.29q-.371-.118-.983-.285t-1.021-.317a6.836,6.836,0,0,1-.972-.414,4.147,4.147,0,0,1-.806-.569,2.3,2.3,0,0,1-.6-.865,3.12,3.12,0,0,1-.209-1.182,2.821,2.821,0,0,1,1.2-2.471,5.352,5.352,0,0,1,3.131-.838,5.487,5.487,0,0,1,2.89.709,3.209,3.209,0,0,1,1.482,2.213l-2.4.537a1.876,1.876,0,0,0-1.966-1.4,2.153,2.153,0,0,0-1.085.247.794.794,0,0,0-.43.73.837.837,0,0,0,.064.333.659.659,0,0,0,.226.269,3.289,3.289,0,0,0,.312.2,2.35,2.35,0,0,0,.44.177q.29.091.483.14l.564.145.575.15q.591.161,1.037.322a6.072,6.072,0,0,1,.951.451,3.412,3.412,0,0,1,.833.65,2.9,2.9,0,0,1,.542.913,3.372,3.372,0,0,1,.215,1.23,3.322,3.322,0,0,1-.371,1.6,2.782,2.782,0,0,1-1.015,1.08,4.941,4.941,0,0,1-1.434.58A7.439,7.439,0,0,1,153.108,21.215Z" transform="translate(11153 -101)" fill="#fff"/>
    <path id="Trazado_58101" data-name="Trazado 58101" d="M20,0H374a20,20,0,0,1,20,20V43a20,20,0,0,1-20,20H20A20,20,0,0,1,0,43V20A20,20,0,0,1,20,0Z" transform="translate(11085 -20)" fill="#2b4e6a"/>
    <path id="Trazado_58102" data-name="Trazado 58102" d="M11.011,8.313H5.253v3.523h5.1v2.8h-5.1v3.513h5.758V21h-9V5.478h9Zm10.1,1.644h3.276L19.68,21H16.994L12.343,9.957H15.6l2.75,7.552ZM34.622,18a10.331,10.331,0,0,0,.269,2.7V21H32l-.247-1.2a3.591,3.591,0,0,1-1.547,1.063,5.7,5.7,0,0,1-2,.354,5.254,5.254,0,0,1-1.031-.1,3.506,3.506,0,0,1-.929-.328,2.82,2.82,0,0,1-.768-.575,2.52,2.52,0,0,1-.516-.875,3.488,3.488,0,0,1-.193-1.2,3.321,3.321,0,0,1,.2-1.2,2.807,2.807,0,0,1,.537-.9,3.258,3.258,0,0,1,.87-.655,6.658,6.658,0,0,1,1.1-.473,13.092,13.092,0,0,1,1.311-.344l1.815-.408a2,2,0,0,0,.822-.349.7.7,0,0,0,.242-.553,1.14,1.14,0,0,0-.542-1.063,2.533,2.533,0,0,0-1.316-.322,1.894,1.894,0,0,0-2.159,1.687l-2.739-.494a3.708,3.708,0,0,1,1.6-2.519,6.362,6.362,0,0,1,3.47-.811q4.641,0,4.641,3.985ZM29.176,19.12a2.488,2.488,0,0,0,1.912-.8,3.372,3.372,0,0,0,.741-2.369l-2.621.741a3.1,3.1,0,0,0-1.1.451.927.927,0,0,0-.381.795,1.029,1.029,0,0,0,.408.875A1.689,1.689,0,0,0,29.176,19.12ZM37.63,21V4.5h3.126V21ZM51.272,9.957h3.094V21H51.434l-.075-1.332a4.217,4.217,0,0,1-3.513,1.547,4.3,4.3,0,0,1-3.051-.994,3.684,3.684,0,0,1-1.063-2.831V9.957h3.1v6.768a1.909,1.909,0,0,0,.553,1.515,2.1,2.1,0,0,0,1.434.483,2.49,2.49,0,0,0,1.756-.628,2.7,2.7,0,0,0,.693-2.046ZM66.623,18a10.331,10.331,0,0,0,.269,2.7V21H64l-.247-1.2a3.591,3.591,0,0,1-1.547,1.063,5.7,5.7,0,0,1-2,.354,5.254,5.254,0,0,1-1.031-.1,3.506,3.506,0,0,1-.929-.328,2.82,2.82,0,0,1-.768-.575,2.52,2.52,0,0,1-.516-.875,3.488,3.488,0,0,1-.193-1.2,3.322,3.322,0,0,1,.2-1.2,2.807,2.807,0,0,1,.537-.9,3.258,3.258,0,0,1,.87-.655,6.658,6.658,0,0,1,1.1-.473,13.092,13.092,0,0,1,1.311-.344l1.815-.408a2,2,0,0,0,.822-.349.7.7,0,0,0,.242-.553,1.14,1.14,0,0,0-.542-1.063,2.533,2.533,0,0,0-1.316-.322,1.894,1.894,0,0,0-2.159,1.687l-2.739-.494a3.708,3.708,0,0,1,1.6-2.519,6.362,6.362,0,0,1,3.47-.811q4.641,0,4.641,3.985ZM61.177,19.12a2.488,2.488,0,0,0,1.912-.8,3.372,3.372,0,0,0,.741-2.369l-2.621.741a3.1,3.1,0,0,0-1.1.451.927.927,0,0,0-.381.795,1.029,1.029,0,0,0,.408.875A1.689,1.689,0,0,0,61.177,19.12Zm13.2,2.084a5.9,5.9,0,0,1-4.265-1.59,5.491,5.491,0,0,1-1.654-4.146,5.479,5.479,0,0,1,1.649-4.146,6.556,6.556,0,0,1,7.847-.516,4.748,4.748,0,0,1,1.848,3l-2.857.312a2.448,2.448,0,0,0-.924-1.45,2.809,2.809,0,0,0-1.676-.483,2.533,2.533,0,0,0-2.02.9,3.538,3.538,0,0,0-.773,2.385,3.542,3.542,0,0,0,.773,2.379,2.526,2.526,0,0,0,2.02.908,2.785,2.785,0,0,0,1.67-.483,2.505,2.505,0,0,0,.929-1.45l2.857.312a4.761,4.761,0,0,1-1.864,3A5.86,5.86,0,0,1,74.379,21.2ZM83.585,8.3a1.737,1.737,0,0,1-1.268-.521,1.71,1.71,0,0,1-.526-1.262,1.69,1.69,0,0,1,.532-1.251,1.742,1.742,0,0,1,1.262-.521A1.788,1.788,0,0,1,85.357,6.52,1.788,1.788,0,0,1,83.585,8.3ZM82.006,21V9.957h3.115V21ZM92.512,8.453,95.326,4.5l1.525,1.074L94.413,8.453Zm.956,12.762a6.944,6.944,0,0,1-3.126-.677A5.058,5.058,0,0,1,88.2,18.551a5.922,5.922,0,0,1-.779-3.083A5.4,5.4,0,0,1,89.1,11.278a7.005,7.005,0,0,1,8.755,0,5.4,5.4,0,0,1,1.676,4.189,5.432,5.432,0,0,1-1.676,4.206A6.219,6.219,0,0,1,93.468,21.215Zm-.032-2.46a2.835,2.835,0,0,0,2.186-.9,3.378,3.378,0,0,0,.833-2.385,3.378,3.378,0,0,0-.833-2.385,2.835,2.835,0,0,0-2.186-.9,2.731,2.731,0,0,0-2.122.908,3.409,3.409,0,0,0-.822,2.379,3.409,3.409,0,0,0,.822,2.379A2.731,2.731,0,0,0,93.436,18.755Zm14.91-9.013a4.3,4.3,0,0,1,3.051.994,3.684,3.684,0,0,1,1.063,2.831V21h-3.1V14.232a1.924,1.924,0,0,0-.553-1.525,2.084,2.084,0,0,0-1.423-.483,2.908,2.908,0,0,0-.924.14,2.373,2.373,0,0,0-.773.435,1.923,1.923,0,0,0-.553.833,3.85,3.85,0,0,0-.209,1.278V21h-3.094V9.957h3.094v1.225A4.255,4.255,0,0,1,108.346,9.742Zm17.972,11.473a6.944,6.944,0,0,1-3.126-.677,5.058,5.058,0,0,1-2.143-1.987,5.922,5.922,0,0,1-.779-3.083,5.4,5.4,0,0,1,1.676-4.189,7.005,7.005,0,0,1,8.755,0,5.4,5.4,0,0,1,1.676,4.189,5.432,5.432,0,0,1-1.676,4.206A6.219,6.219,0,0,1,126.317,21.215Zm-.032-2.46a2.835,2.835,0,0,0,2.186-.9,3.378,3.378,0,0,0,.833-2.385,3.378,3.378,0,0,0-.833-2.385,2.835,2.835,0,0,0-2.186-.9,2.731,2.731,0,0,0-2.122.908,3.409,3.409,0,0,0-.822,2.379,3.409,3.409,0,0,0,.822,2.379A2.731,2.731,0,0,0,126.285,18.755Zm21.291-8.8h3.276L146.147,21h-2.686L138.811,9.957h3.255l2.75,7.552Zm14.846,5.36-.032.741H154.2a2.859,2.859,0,0,0,.881,2.02,2.817,2.817,0,0,0,1.944.7,2.715,2.715,0,0,0,1.456-.381,2.344,2.344,0,0,0,.929-1.112l2.836.419a4.821,4.821,0,0,1-1.934,2.589,5.749,5.749,0,0,1-3.266.924,5.978,5.978,0,0,1-4.3-1.52,5.546,5.546,0,0,1-1.6-4.216,5.579,5.579,0,0,1,1.6-4.216,5.8,5.8,0,0,1,4.2-1.542,5.543,5.543,0,0,1,3.964,1.407A5.52,5.52,0,0,1,162.422,15.317Zm-5.446-3.405a2.445,2.445,0,0,0-2.686,2.127h5.07a2.326,2.326,0,0,0-.763-1.579A2.417,2.417,0,0,0,156.976,11.912Zm10.764-.2a3.585,3.585,0,0,1,1.45-1.327,4.425,4.425,0,0,1,2.159-.553v2.761a4.183,4.183,0,0,0-2.643.666,2.908,2.908,0,0,0-.816,2.363V21h-3.115V9.957h2.965Zm7-3.405a1.737,1.737,0,0,1-1.268-.521,1.71,1.71,0,0,1-.526-1.262,1.69,1.69,0,0,1,.532-1.251,1.742,1.742,0,0,1,1.262-.521,1.788,1.788,0,0,1,1.772,1.772A1.788,1.788,0,0,1,174.743,8.3ZM173.164,21V9.957h3.115V21Zm7.09-12.235a6.458,6.458,0,0,1,.14-1.407,4.282,4.282,0,0,1,.376-1.069,2.5,2.5,0,0,1,.628-.768A3.708,3.708,0,0,1,182.214,5a4.665,4.665,0,0,1,1.015-.312,8.9,8.9,0,0,1,1.166-.156q.575-.038,1.316-.038V6.971h-.064q-.3,0-.457.005t-.44.038a1.783,1.783,0,0,0-.446.1,2.272,2.272,0,0,0-.371.2.989.989,0,0,0-.322.322,1.947,1.947,0,0,0-.193.478,2.5,2.5,0,0,0-.081.666V9.957h2.374v2.374h-2.374V21h-3.083V12.331h-2.159V9.957h2.159Zm8.787-.462a1.737,1.737,0,0,1-1.268-.521,1.71,1.71,0,0,1-.526-1.262,1.69,1.69,0,0,1,.532-1.251,1.742,1.742,0,0,1,1.262-.521,1.788,1.788,0,0,1,1.772,1.772A1.788,1.788,0,0,1,189.041,8.3ZM187.462,21V9.957h3.115V21Zm11.312.2a5.9,5.9,0,0,1-4.265-1.59,5.491,5.491,0,0,1-1.654-4.146,5.479,5.479,0,0,1,1.649-4.146,6.556,6.556,0,0,1,7.847-.516,4.748,4.748,0,0,1,1.848,3l-2.857.312a2.448,2.448,0,0,0-.924-1.45,2.809,2.809,0,0,0-1.676-.483,2.533,2.533,0,0,0-2.02.9,3.538,3.538,0,0,0-.773,2.385,3.542,3.542,0,0,0,.773,2.379,2.526,2.526,0,0,0,2.02.908,2.785,2.785,0,0,0,1.67-.483,2.505,2.505,0,0,0,.929-1.45l2.857.312a4.761,4.761,0,0,1-1.864,3A5.86,5.86,0,0,1,198.773,21.2ZM215.456,18a10.331,10.331,0,0,0,.269,2.7V21h-2.89l-.247-1.2a3.591,3.591,0,0,1-1.547,1.063,5.7,5.7,0,0,1-2,.354,5.254,5.254,0,0,1-1.031-.1,3.506,3.506,0,0,1-.929-.328,2.82,2.82,0,0,1-.768-.575,2.52,2.52,0,0,1-.516-.875,3.488,3.488,0,0,1-.193-1.2,3.322,3.322,0,0,1,.2-1.2,2.807,2.807,0,0,1,.537-.9,3.258,3.258,0,0,1,.87-.655,6.658,6.658,0,0,1,1.1-.473,13.092,13.092,0,0,1,1.311-.344l1.815-.408a2,2,0,0,0,.822-.349.7.7,0,0,0,.242-.553,1.14,1.14,0,0,0-.542-1.063,2.533,2.533,0,0,0-1.316-.322,1.894,1.894,0,0,0-2.159,1.687l-2.739-.494a3.708,3.708,0,0,1,1.6-2.519,6.362,6.362,0,0,1,3.47-.811q4.641,0,4.641,3.985ZM210.01,19.12a2.488,2.488,0,0,0,1.912-.8,3.372,3.372,0,0,0,.741-2.369l-2.621.741a3.1,3.1,0,0,0-1.1.451.927.927,0,0,0-.381.795,1.029,1.029,0,0,0,.408.875A1.689,1.689,0,0,0,210.01,19.12Zm13.2,2.084a5.9,5.9,0,0,1-4.265-1.59,5.491,5.491,0,0,1-1.654-4.146,5.479,5.479,0,0,1,1.649-4.146,6.556,6.556,0,0,1,7.847-.516,4.748,4.748,0,0,1,1.848,3l-2.857.312a2.448,2.448,0,0,0-.924-1.45,2.809,2.809,0,0,0-1.676-.483,2.533,2.533,0,0,0-2.02.9,3.538,3.538,0,0,0-.773,2.385,3.542,3.542,0,0,0,.773,2.379,2.526,2.526,0,0,0,2.02.908,2.785,2.785,0,0,0,1.67-.483,2.505,2.505,0,0,0,.929-1.45l2.857.312a4.761,4.761,0,0,1-1.864,3A5.86,5.86,0,0,1,223.212,21.2Zm9.206-12.9a1.737,1.737,0,0,1-1.268-.521,1.71,1.71,0,0,1-.526-1.262,1.69,1.69,0,0,1,.532-1.251,1.742,1.742,0,0,1,1.262-.521A1.788,1.788,0,0,1,234.19,6.52,1.788,1.788,0,0,1,232.418,8.3ZM230.839,21V9.957h3.115V21ZM241.345,8.453,244.159,4.5l1.525,1.074-2.438,2.879Zm.956,12.762a6.944,6.944,0,0,1-3.126-.677,5.058,5.058,0,0,1-2.143-1.987,5.922,5.922,0,0,1-.779-3.083,5.4,5.4,0,0,1,1.676-4.189,7.005,7.005,0,0,1,8.755,0,5.4,5.4,0,0,1,1.676,4.189,5.432,5.432,0,0,1-1.676,4.206A6.219,6.219,0,0,1,242.3,21.215Zm-.032-2.46a2.835,2.835,0,0,0,2.186-.9,3.378,3.378,0,0,0,.833-2.385,3.378,3.378,0,0,0-.833-2.385,2.835,2.835,0,0,0-2.186-.9,2.731,2.731,0,0,0-2.122.908,3.409,3.409,0,0,0-.822,2.379,3.409,3.409,0,0,0,.822,2.379A2.731,2.731,0,0,0,242.269,18.755Zm14.91-9.013a4.3,4.3,0,0,1,3.051.994,3.684,3.684,0,0,1,1.063,2.831V21h-3.1V14.232a1.924,1.924,0,0,0-.553-1.525,2.084,2.084,0,0,0-1.423-.483,2.908,2.908,0,0,0-.924.14,2.373,2.373,0,0,0-.773.435,1.923,1.923,0,0,0-.553.833,3.85,3.85,0,0,0-.209,1.278V21h-3.094V9.957h3.094v1.225A4.255,4.255,0,0,1,257.179,9.742Z" transform="translate(11144 -2)" fill="#fff"/>
    <path id="Trazado_50502" data-name="Trazado 50502" d="M664.606,512.674c13.627-.8,30.925-1.669,37.388-19.153,5.117-13.836-6.809-26.873,5.191-36.38,7.225-5.721,18.618-9.154,21.138-18.936,2.626-10.188-10.411-16.645-8.069-26.424,1.939-8.078,13.149-8.616,10.222-19.136-2.594-9.335-10.8-11.686-17.332-9.822-8.725,2.491-9.449,10.474-15.239,16.018-3.866,3.7-9.343-.017-15.016-.7-5.647-.681-12.88-.178-17.664,2.314-15.537,8.095-3.087,25.235-5.907,39.189-2.729,13.49-21.722,5.337-31.535,15.468-11.462,11.835-2.815,32.3,8.479,41.958C643.787,503.508,651.151,512.21,664.606,512.674Z" transform="translate(10222.304 -476.89)" fill="#fb345b"/>
    <path id="Trazado_50503" data-name="Trazado 50503" d="M632.036,498.461a.857.857,0,0,0,.255.1,1.009,1.009,0,0,0,1.194-.679c.109-.361,10.5-35.094,35.8-57.97,14.245-12.874,17.633-26.174,20.279-36.566,1.543-6.065,2.861-11.227,5.89-14.022a.767.767,0,0,0-.06-1.019.67.67,0,0,0-.951-.209c-3.267,2.992-4.633,8.313-6.237,14.566-2.628,10.254-5.993,23.377-20.047,35.982-25.814,23.151-36.434,58.434-36.543,58.8A.883.883,0,0,0,632.036,498.461Z" transform="translate(10239.461 -466.198)" fill="#fff"/>
    <path id="Trazado_50504" data-name="Trazado 50504" d="M649.074,434.045a.76.76,0,0,0,1.019-.037.829.829,0,0,0-.1-1.14c-5.12-5.045-8.447-14.775-5.111-20.9.392-.724.851-1.492,1.331-2.3,2.268-3.794,5.04-8.438,3.6-12.96a11.856,11.856,0,0,0-4.945-5.964.7.7,0,0,0-1.057.143.944.944,0,0,0,.4,1.128,9.632,9.632,0,0,1,4.132,4.868c1.229,3.854-1.394,8.212-3.533,11.774-.5.819-.965,1.606-1.369,2.339-3.828,6.99-.054,17.481,5.541,22.965A.622.622,0,0,0,649.074,434.045Z" transform="translate(10258.653 -461.342)" fill="#fff"/>
    <path id="Trazado_50505" data-name="Trazado 50505" d="M647.993,418.426a12.2,12.2,0,0,0,7.846,2.637c3.917-.243,7.485-3.035,10.34-8,.278-.484.584-1.057.922-1.684,1.887-3.5,4.69-8.716,8.121-9.194a4.348,4.348,0,0,1,3.353,1.1.568.568,0,0,0,.888-.12.858.858,0,0,0-.258-1.019l-.006-.006a5.742,5.742,0,0,0-4.364-1.423c-3.983.538-6.967,6.048-8.974,9.761-.335.61-.638,1.174-.913,1.649-2.657,4.6-5.893,7.164-9.369,7.365-3.038.175-6.3-1.443-9.7-4.831a.76.76,0,0,0-1.111-.057.831.831,0,0,0,.083,1.143A25.367,25.367,0,0,0,647.993,418.426Z" transform="translate(10263.675 -442.527)" fill="#fff"/>
    <path id="Trazado_50506" data-name="Trazado 50506" d="M638.253,445.564a9.36,9.36,0,0,0,3.27,1.24.937.937,0,0,0,1.088-.73.9.9,0,0,0-.762-1.045c-6.113-1.062-10.154-10.867-10.669-16.041-.212-2.15.527-4.811,1.306-7.611,1.372-4.942,2.777-10-.71-13.67a1.012,1.012,0,0,0-1.375-.155.833.833,0,0,0-.037,1.263c2.772,2.909,1.48,7.514.223,12.006-.83,2.967-1.618,5.784-1.372,8.261C629.674,433.747,632.752,442.245,638.253,445.564Z" transform="translate(10234.962 -430.084)" fill="#fff"/>
    <path id="Trazado_50507" data-name="Trazado 50507" d="M637.164,436.243a10.977,10.977,0,0,0,3.353,1.306c6.8,1.478,15.451-2.414,19.517-5.294,2.13-1.515,4.006-4.367,5.967-7.348,3.055-4.647,6.151-9.355,10.051-8.762a.713.713,0,0,0,.813-.679.86.86,0,0,0-.693-.9c-4.808-.75-8.33,4.576-11.511,9.38-1.887,2.858-3.694,5.587-5.586,6.915-3.691,2.6-11.966,6.325-18.151,4.957a8.1,8.1,0,0,1-5.5-3.911.97.97,0,0,0-1.274-.355.88.88,0,0,0-.366,1.223A9.692,9.692,0,0,0,637.164,436.243Z" transform="translate(10243.337 -416.78)" fill="#fff"/>
    <path id="Trazado_50508" data-name="Trazado 50508" d="M625.5,517.184c9.217-10.4,36.446-24.548,29.293-40.772-6.088-13.8-35.289-12.1-31.775-28.734,2.079-9.839,4.776-18.237-1.575-29.427-6.921-12.19-27.6-5.552-34.773-16.871-6.162-9.721,2-15.875-10.721-22.366-11.3-5.764-26.953,0-29.069,11.674-2.887,15.145,11.743,13.283,13.329,24.147,1.011,6.915-5.289,9.323-8.9,14.168-3.453,4.636-6.56,11.3-6.789,17.046-.687,17.258,18.229,19.491,27.194,30.464,8.3,10.162-7.01,16.711-4.716,27.761,2.48,11.923,19.454,18.438,31.4,18.26C606.68,522.41,619.783,523.63,625.5,517.184Z" transform="translate(10077.18 -487.098)" fill="#6a9aee"/>
    <path id="Trazado_50509" data-name="Trazado 50509" d="M597.765,508.456a.745.745,0,0,0,.218-.069.623.623,0,0,0,.289-.939c-.163-.246-17.049-25.639-18.025-57.549-.647-21.272-9.487-34.885-16.74-46.052-4.381-6.743-8.2-12.628-8.785-18.523a.951.951,0,0,0-.988-.833.822.822,0,0,0-.816.91c.641,6.314,4.573,12.356,9.083,19.282,7.144,10.976,15.863,24.362,16.531,45.2,1.039,32.3,18.168,57.978,18.337,58.228A.9.9,0,0,0,597.765,508.456Z" transform="translate(10092.865 -472.685)" fill="#fff"/>
    <path id="Trazado_50510" data-name="Trazado 50510" d="M586.506,425.877a.751.751,0,0,0,.636-.81.882.882,0,0,0-.945-.724c-7.153.427-16.708-3.754-19.6-10.724-.346-.839-.7-1.767-1.059-2.743-1.747-4.679-3.943-10.555-8.539-12.668a10.134,10.134,0,0,0-7.7-.054.746.746,0,0,0-.446,1.039.961.961,0,0,0,1.148.487,8.228,8.228,0,0,1,6.308-.026c3.894,1.8,5.953,7.285,7.6,11.663.372.991.73,1.936,1.083,2.789,3.29,7.909,13.638,12.25,21.393,11.789A.792.792,0,0,0,586.506,425.877Z" transform="translate(10085.16 -448.581)" fill="#fff"/>
    <path id="Trazado_50511" data-name="Trazado 50511" d="M567.048,433.7a12.652,12.652,0,0,0,7.513-4.352c2.654-3.413,3.07-8.553,1.171-14.907-.189-.627-.429-1.357-.69-2.153-1.492-4.539-3.768-11.468-1.526-15.313a5.458,5.458,0,0,1,3.622-2.528.825.825,0,0,0,.613-1.031.925.925,0,0,0-1.1-.6l-.011,0a7.189,7.189,0,0,0-4.7,3.327c-2.586,4.453-.166,11.78,1.417,16.573.258.782.492,1.495.679,2.113,1.767,5.87,1.443,10.555-.9,13.584-2,2.58-5.515,4.012-10.414,4.275a.756.756,0,0,0-.77.822.879.879,0,0,0,.939.733A24.661,24.661,0,0,0,567.048,433.7Z" transform="translate(10109.695 -457.211)" fill="#fff"/>
    <path id="Trazado_50512" data-name="Trazado 50512" d="M584.555,436a8.106,8.106,0,0,0,2.752-1,.639.639,0,0,0,.172-.988.911.911,0,0,0-1.148-.189c-4.281,2.583-12.989-.773-16.691-3.385a22.2,22.2,0,0,1-4.4-4.994c-2.634-3.6-5.372-7.342-9.7-7.462a.7.7,0,0,0-.8.7.84.84,0,0,0,.851.75c3.41.1,5.89,3.485,8.275,6.732a23.263,23.263,0,0,0,4.787,5.357C571.971,433.863,579.229,436.97,584.555,436Z" transform="translate(10096.258 -410.282)" fill="#fff"/>
    <path id="Trazado_50513" data-name="Trazado 50513" d="M570.834,448.754a10.276,10.276,0,0,0,2.964-1.045c5.392-2.866,8.59-10.211,9.423-14.489.447-2.3-.241-5.332-.971-8.562-1.171-5.163-2.391-10.549.968-13a.714.714,0,0,0,.106-1.082.947.947,0,0,0-1.211-.112c-4.132,3.027-2.74,9.131-1.523,14.457.707,3.092,1.369,5.993.976,8.023-.75,3.871-3.762,10.93-8.67,13.544a8.111,8.111,0,0,1-6,.719.822.822,0,0,0-1,.475.739.739,0,0,0,.593.888A10.1,10.1,0,0,0,570.834,448.754Z" transform="translate(10116.988 -424.601)" fill="#fff"/>
    <path id="Trazado_58103" data-name="Trazado 58103" d="M0,0H8.2V45.934H0Z" transform="translate(10741.756 -12.433)" fill="#110239"/>
    <path id="Trazado_58104" data-name="Trazado 58104" d="M0,0H8.2V45.934H0Z" transform="translate(10834.828 -12.433)" fill="#110239"/>
    <path id="Trazado_58105" data-name="Trazado 58105" d="M0,0H206.986V206.749H0Z" transform="translate(10688.897 -215)" fill="#c0d3e8"/>
    <path id="Trazado_58106" data-name="Trazado 58106" d="M0,0H181.286V184.607H0Z" transform="translate(10701.747 -203.929)" fill="#fff"/>
    <path id="Trazado_58107" data-name="Trazado 58107" d="M0,0H21.783V8.12H0Z" transform="translate(10734.963 27.666)" fill="#c6d1de"/>
    <path id="Trazado_58108" data-name="Trazado 58108" d="M0,0H21.783V8.12H0Z" transform="translate(10828.035 27.666)" fill="#c6d1de"/>
    <path id="Trazado_58109" data-name="Trazado 58109" d="M0,0H46V8.061H0Z" transform="translate(10824.86 -190.536)" fill="#e4e5ec"/>
    <path id="Trazado_58110" data-name="Trazado 58110" d="M0,0H46V8.061H0Z" transform="translate(10824.86 -172.598)" fill="#81ebeb"/>
    <path id="Trazado_58111" data-name="Trazado 58111" d="M0,0H46V8.061H0Z" transform="translate(10824.86 -154.66)" fill="#e4e5ec"/>
    <path id="Trazado_58112" data-name="Trazado 58112" d="M0,0H46V8.061H0Z" transform="translate(10824.86 -136.722)" fill="#fd425f"/>
    <path id="Trazado_58113" data-name="Trazado 58113" d="M0,0H8.4V8.4H0Z" transform="translate(10714.457 -190.898)" fill="#81ebeb"/>
    <path id="Trazado_58114" data-name="Trazado 58114" d="M0,0H38.1V8.4H0Z" transform="translate(10730.956 -190.898)" fill="#e4e5ec"/>
    <path id="Trazado_58115" data-name="Trazado 58115" d="M0,0H8.4V8.4H0Z" transform="translate(10714.457 -176.798)" fill="#81ebeb"/>
    <path id="Trazado_58116" data-name="Trazado 58116" d="M0,0H38.1V8.4H0Z" transform="translate(10730.956 -176.798)" fill="#e4e5ec"/>
    <path id="Trazado_58117" data-name="Trazado 58117" d="M0,0H8.4V8.4H0Z" transform="translate(10714.457 -162.698)" fill="#81ebeb"/>
    <path id="Trazado_58118" data-name="Trazado 58118" d="M0,0H38.1V8.4H0Z" transform="translate(10730.956 -162.698)" fill="#e4e5ec"/>
    <path id="Trazado_50514" data-name="Trazado 50514" d="M663.227,463.618a54.069,54.069,0,1,0-75-14.875A54.067,54.067,0,0,0,663.227,463.618Z" transform="translate(10141.637 -509.736)" fill="#6a9aee"/>
    <path id="Trazado_50515" data-name="Trazado 50515" d="M595.251,365.179a54.067,54.067,0,0,1,15.517,107.015Z" transform="translate(10171.756 -509.713)" fill="#fb345b"/>
    <path id="Trazado_50516" data-name="Trazado 50516" d="M596.822,457.062c-.089-.006-.175-.017-.264-.026l3.771-53.844L645.471,373a54.044,54.044,0,0,1-48.65,84.067Z" transform="translate(10174.191 -494.103)" fill="#81ebeb"/>
    <path id="Trazado_50517" data-name="Trazado 50517" d="M626.015,441.735a54.531,54.531,0,0,0,9.3.441l-2.153-54.036-53.592-7.15A54.066,54.066,0,0,0,626.015,441.735Z" transform="translate(10141.645 -479.205)" fill="#e5e6ed"/>
    <path id="Trazado_50518" data-name="Trazado 50518" d="M587.682,486.915c-11.013-2.6-19.795-4.945-22.355-16.09-1.326-5.77.4-9.747,5.784-12.948,4.352-2.586,6.68-3.476,6.738-8.582.089-8.169-5.521-16.224-2.056-24.124,3.866-8.816,17.6-4.8,21.874-12.788,3.837-7.17,4.816-16.467,16.127-16.333,9.518.109,15.477,10.076,12.86,16.992-1.472,3.889-4.9,6.632-5.652,10.8-.716,3.974,1.667,7.224,3.949,10.855,5.045,8.02,7.6,16.29-.453,21.59-4.81,3.167-8.447,5.947-5.231,11.889,3.382,6.242,5.057,9.8-1.5,14.5-4.9,3.513-10.1,3.23-16.519,3.5-6.019.255-13.779,1.924-20.061-.716Z" transform="translate(10115.201 -451.145)" fill="#fc3"/>
    <path id="Trazado_50519" data-name="Trazado 50519" d="M575.669,470.732a10.517,10.517,0,0,1-2.428-3.138c-2.245-4.676,1.2-9.36,4.318-13.6,1.575-2.139,3.075-4.181,3.617-5.924,1.477-4.745,1.328-8.983-.587-15.62-2.276-7.871-.848-11.093,4.455-16.3,4.47-4.4,8.785-9.234,9.28-14.028.037-.375.47-.576.962-.45s.868.524.824.9c-.535,5.1-5.005,10.088-9.624,14.595-5.143,5.011-6.451,7.917-4.3,15.405,1.626,5.661,2.331,10.56.564,16.17-.581,1.858-2.13,3.946-3.745,6.128-3.021,4.075-6.359,8.576-4.352,12.762a11.428,11.428,0,0,0,4.641,4.524c.384.243.576.616.409.839s-.615.215-1.008-.023A19.909,19.909,0,0,1,575.669,470.732Z" transform="translate(10129.399 -440.74)" fill="#fff"/>
    <path id="Trazado_50520" data-name="Trazado 50520" d="M576.176,423.683a.892.892,0,0,1-.269-.407c-.086-.349.2-.6.641-.55,3.872.415,6.047-2.554,8.393-5.753,2.076-2.832,4.255-5.807,7.923-6.62a1.258,1.258,0,0,1,1.206.49.492.492,0,0,1-.3.825c-3.215.7-5.3,3.519-7.279,6.2-2.44,3.3-4.9,6.64-9.613,6.128A1.3,1.3,0,0,1,576.176,423.683Z" transform="translate(10135.681 -424.527)" fill="#fff"/>
    <path id="Trazado_50521" data-name="Trazado 50521" d="M583.8,439.4a.979.979,0,0,1-.189-.22,16.408,16.408,0,0,1-1.2-2.526,9.361,9.361,0,0,0-2.334-3.728,29.538,29.538,0,0,0-2.285-1.982,14.592,14.592,0,0,1-4.312-4.773,24.557,24.557,0,0,1-2.2-11.339,19.493,19.493,0,0,1,.3-2.431c.209-1.34.61-3.851.186-4.41-.255-.335-.206-.719.138-.845a1.064,1.064,0,0,1,1.1.335c.833.956.618,2.712.174,5.463a19.618,19.618,0,0,0-.292,2.3,24.233,24.233,0,0,0,2.056,10.841,12.43,12.43,0,0,0,3.794,4.146c.8.65,1.638,1.329,2.465,2.142a11.048,11.048,0,0,1,2.743,4.324,14.466,14.466,0,0,0,1.1,2.319.424.424,0,0,1-.338.7A1.213,1.213,0,0,1,583.8,439.4Z" transform="translate(10127.07 -430.555)" fill="#fff"/>
    <path id="Trazado_50522" data-name="Trazado 50522" d="M613.077,372.8a8.959,8.959,0,0,1-4.149-2.156,5.389,5.389,0,0,0-1.667-1.417,11.411,11.411,0,0,1-2.059-1.443,4.518,4.518,0,0,0-2.171-1.214c-1.036-.094-.487,1.114,0,1.867.524.822,3.356,1.941,3.23,2.967s-3.49-.558-4.155-.882c-1.566-.767-1.672-2.073-2.606-3.35-.541-.747-1.016-.922-1.352.092-.246.756.272,1.529.65,2.153a9.433,9.433,0,0,0,3.23,3.284,11.065,11.065,0,0,1-3.327-2.749c-.527-.633-2.293-3.728-3.364-2.989-2.148,1.486,3.757,6.949,5.166,7.373a12.886,12.886,0,0,1-3.528-2.554c-.644-.576-2.1-2-2.351-.472-.366,2.254,4.032,3.891,5.865,4.974A15.183,15.183,0,0,1,596.7,374.6c-1.644-.828-1.678.667-.146,1.8a20.68,20.68,0,0,0,2.405,1.372c3.35,1.615,5.415,1.644,8.971,1.263,1.28-.137,3.763.956,4.516.138C613.9,377.595,613.134,374.62,613.077,372.8Z" transform="translate(10170.543 -506.105)" fill="#ff9d8a"/>
    <path id="Trazado_50523" data-name="Trazado 50523" d="M602.427,376.351l-2.609,8.622s31.223,10.764,38.645,11.92,25.032-14.984,25.032-14.984,3.15-17.687-1.005-17.51c-3.2.137-26.18,16.762-27.471,17.455S602.427,376.351,602.427,376.351Z" transform="translate(10180.266 -510.124)" fill="#edf6ff"/>
    <path id="Trazado_50524" data-name="Trazado 50524" d="M628.423,362.662a15.86,15.86,0,0,0,9.541-4.9,43.993,43.993,0,0,0,1.572,15.256s-.375,24.594-10.374,21.639-3.568-18.964-3.568-18.964C627.911,372.005,628.395,366.453,628.423,362.662Z" transform="translate(10224.506 -522.492)" fill="#e17c5e"/>
    <path id="Trazado_50525" data-name="Trazado 50525" d="M636.364,350.726s-11.445-1.211-13.536,3.41.332,10.812-.329,12.9-.329,15.268,3.41,15.6,15.517-8.141,15.846-18.045S639.228,350.867,636.364,350.726Z" transform="translate(10221.524 -535.866)" fill="#ff9d8a"/>
    <path id="Trazado_50526" data-name="Trazado 50526" d="M625.737,363.958c-.054-.006-.109-.014-.166-.02-.372.009-.7.017-1.037.029-.117-.278-.218-.55-.344-.83-.226-.5-.447-1.014-.676-1.518-.335-.965-.615-1.939-.882-2.912a14.153,14.153,0,0,0,1.589-.269q2.195,1.057,4.4,2.1c.281.138.57.263.853.4A46.227,46.227,0,0,0,625.737,363.958Z" transform="translate(10222.779 -521.231)" fill="#fff"/>
    <path id="Trazado_50527" data-name="Trazado 50527" d="M644.478,426.313s1.38,8.241.524,10.52c-.653,1.747-25.465,2-26.859.481s.931-4.16,2.15-4.77,13.891-6.165,13.891-6.165Z" transform="translate(10213.61 -394.749)" fill="#110239"/>
    <path id="Trazado_50528" data-name="Trazado 50528" d="M634.571,426.862h10.595s5.589,7.588,5.506,9.507-8.593,5.506-10.512,5.506-8.759-4.587-8.676-5.421S634.571,426.862,634.571,426.862Z" transform="translate(10239.272 -393.726)" fill="#110239"/>
    <path id="Trazado_50529" data-name="Trazado 50529" d="M624.09,365.048a5.464,5.464,0,0,1-3.021-6.108c.882-4.4,3.081-7.153,9.575-8.968s12.436-1.223,13.232,4.175c0,0-3.055,9.415-10.592,8.974S623.448,362.68,624.09,365.048Z" transform="translate(10219.625 -538.728)" fill="#110239"/>
    <path id="Trazado_50530" data-name="Trazado 50530" d="M624.182,385.2c4.853,3.1,12.945-3.551,18.257-10.546,2.792-3.674,9.469-19.972-.736-24.482l-4.373,4.839s-3.905,2.256-2.86,7.869-.533,4.751.166,5.778,1.512.246,1.732-.965.962-3.356,2.394-2.723,2.282,3.081-.387,4.842c0,0-2.886,6.03-5.538,6-.4-.006-2.766-4.118-7.007-4.072a5.254,5.254,0,0,0-3.685,1.182S621.193,383.293,624.182,385.2Zm.5-9.939a9.242,9.242,0,0,0,3.714.713C625.915,378.726,624.677,375.261,624.677,375.261Z" transform="translate(10221.603 -536.632)" fill="#110239"/>
    <path id="Trazado_50531" data-name="Trazado 50531" d="M622.45,384.051l30.072-.567s4.576,7.5,5.6,29.135c.7,14.815,1.306,18.919,2.781,38.5,1,13.295,5.715,57.168,5.715,57.168H650.635s-6.766-51.066-7.113-54.233c-.123-1.12-4.08-32.251-4.08-32.251s.647,28.236.647,31.475.7,53.366.7,53.366H623.954s-1.89-41.563-2.05-52.7C621.643,435.928,620.1,389.869,622.45,384.051Z" transform="translate(10220.047 -474.558)" fill="#110239"/>
    <path id="Trazado_50532" data-name="Trazado 50532" d="M646.481,362.867s13.965,1.9,17.344,3.731c0,0-9.495,15.207-6.54,24.995,0,0,1.618,20.574,2.216,33.03.166,3.459,4.372,38.616,4.324,40.208,0,0-25.668,5.131-44.048-.51,0,0,2.488-37.465,2.548-44.93.089-11.213.2-25.934.192-29.373,0,0,.707-13.321-1.377-20.854a33.393,33.393,0,0,1,12.539-5.04s-.616.779,2.591,4.868C638.195,371.443,645.911,367.864,646.481,362.867Z" transform="translate(10217.457 -512.976)" fill="#edf6ff"/>
    <path id="Trazado_50533" data-name="Trazado 50533" d="M624,364.86c-.481,3.594-.16,6.617.229,10.7l4.736-3.7,3.848,5.068a41.611,41.611,0,0,0,8.373-13.756c-1.3-.195-2.136-.309-2.136-.309-.57,5-8.287,8.576-10.211,6.125-3.207-4.089-2.591-4.868-2.591-4.868C625.768,364.216,624.465,364.754,624,364.86Z" transform="translate(10224.885 -512.976)" fill="#c0d3e8"/>
    <path id="Trazado_50534" data-name="Trazado 50534" d="M628.959,365.449h0a2.076,2.076,0,0,1-.607-.358h0l-4.184,97.371c.392.034.782.072,1.174.1Z" transform="translate(10225.642 -508.831)" fill="#c6d1de"/>
    <path id="Trazado_50535" data-name="Trazado 50535" d="M619.777,455.5a51.132,51.132,0,0,0,5.234,1.266c1.54-16.015.269-31.735,1.34-48.363.77-11.966,4.5-27.457-2.48-38.287-.544-.848-1.048-1.681-1.566-2.52a113.847,113.847,0,0,1,.212,13.6c.008,3.439-.1,18.16-.192,29.373C622.265,418.038,619.777,455.5,619.777,455.5Z" transform="translate(10217.457 -504.158)" fill="#c6d1de"/>
    <path id="Trazado_50536" data-name="Trazado 50536" d="M637.47,387.693c-2.262-7.493,2.763-18.143,5.249-22.733-.913,1.088-1.9,2.188-3.05,3.333-12.2,12.164-9.572,27.346-7.445,42.659,2.314,16.631,3.325,34.392,1.747,51.4,6-.618,10.039-1.42,10.039-1.42.049-1.592-4.158-36.749-4.324-40.208C639.087,408.266,637.47,387.693,637.47,387.693Z" transform="translate(10237.273 -509.076)" fill="#c6d1de"/>
    <path id="Trazado_50537" data-name="Trazado 50537" d="M636.122,395.39c-1.039,1.274-4.507,5.42-3.943,7.253s3.45-1.48,4.5-2.606,1.2,2.674.916,4.716-4.435,5.423-4.014,6.829,2.818-.561,5.4-4.364c0,0-4.086,4.693-3.147,5.352s3.239-1.738,5.071-4.507c0,0-3.943,4.435-2.958,4.962s3.7-2.568,4.716-4.152c0,0-3.35,3.639-2.428,4.238.739.478,3.17-1.7,4.118-4.59s-1.864-12.321-1.724-14.117a28.584,28.584,0,0,1,.716-4.037s-5.79-1.306-5.821-1.314C637.645,389.079,637.671,393.488,636.122,395.39Z" transform="translate(10240.453 -464.18)" fill="#ff9d8a"/>
    <path id="Trazado_50538" data-name="Trazado 50538" d="M635.965,438.659l8.026,2.113s9.338-30.7,7.929-38.018-4.839-34.785-11.176-38.585c0,0-8.072,2.331-8.559,12.25-.272,5.624,2.019,12.745,2.019,12.745s5.054,9.681,5.7,16.45C640.449,411.248,635.965,438.659,635.965,438.659Z" transform="translate(10240.538 -510.548)" fill="#edf6ff"/>
    <path id="Trazado_50539" data-name="Trazado 50539" d="M626.573,363.9l2.869,5.491,9.257-7.071,2.817,2.126-8.84,12.151-3.657-5.961-4.4,4.448-.787-9.5Z" transform="translate(10225.024 -514.005)" fill="#edf6ff"/>
    <path id="Trazado_50540" data-name="Trazado 50540" d="M579.249,386.094s4.226,12.416,6.7,17.871c13.847,30.538-11.771,26.636-21.513,25.2s-20.837-5.117-20.23-12.991c.412-5.369,3.662-5.959,4.985-7.746s-1.257-4.722-.132-9.123,8.484-5.3,9.942-6.509,4.39-4.579,2.949-10.953-2.053-9.781,2.07-13.933c4.143-4.169,10.6-2.345,10.6-2.345Z" transform="translate(10076.595 -508.691)" fill="#110239"/>
    <path id="Trazado_50541" data-name="Trazado 50541" d="M570.651,389.236c.135.123,3.911-1.555,4.458-2.391a12.376,12.376,0,0,0-1.563-3.367c-.307-.438-.619-.842-.9-1.24-.266.779-.536,1.558-.822,2.222-.212.487-1.97.639-2.419,1.28C569.021,386.911,570.058,388.686,570.651,389.236Z" transform="translate(10123.437 -476.879)" fill="#ff9d8a"/>
    <path id="Trazado_50542" data-name="Trazado 50542" d="M593.4,390.474l3.393,4.123s-15.276,20.82-21.221,21.135-18.415-22.5-18.415-22.5l6.016-14.214s2.19,1.163,3.711,4.971c2.7,6.76,5.738,18.037,8.109,18.7C578.7,403.717,593.4,390.474,593.4,390.474Z" transform="translate(10100.769 -482.876)" fill="#edf6ff"/>
    <path id="Trazado_50543" data-name="Trazado 50543" d="M587.623,402.743c-2.941,2.2-9.472,6.474-9.65,6.506-3.385.607-10.111-11.995-13.8-22.7-2.03-5.893-6.583-4.4-7.851-6.01l2.4,9.879s12.47,22.816,18.415,22.5c3.413-.18,10.274-7.4,15.2-13.461C591.749,399.937,588.241,402.282,587.623,402.743Z" transform="translate(10099.205 -480.055)" fill="#c6d1de"/>
    <path id="Trazado_58119" data-name="Trazado 58119" d="M0,0H3.048V80.3H0Z" transform="translate(10630.48 -36.205)" fill="#a9c9f6"/>
    <path id="Trazado_58120" data-name="Trazado 58120" d="M0,0H3.048V80.3H0Z" transform="translate(10686.916 -36.205)" fill="#a9c9f6"/>
    <path id="Trazado_58121" data-name="Trazado 58121" d="M0,0H75.84V7.852H0Z" transform="translate(10622.302 -40.945)" fill="#110239"/>
    <path id="Trazado_50544" data-name="Trazado 50544" d="M564.1,418.14s-7.734,6.74-7.694,7.717,13.24,23.411,15.539,23.483,2.835-3.82,2.46-5.3-4.61-22.873-4.61-22.873Z" transform="translate(10099.369 -409.979)" fill="#110239"/>
    <path id="Trazado_50545" data-name="Trazado 50545" d="M560.021,419.6s-7.528,6.97-7.456,7.946,13.939,23,16.241,23,2.717-3.9,2.3-5.366-5.3-22.724-5.3-22.724Z" transform="translate(10092.212 -407.266)" fill="#110239"/>
    <path id="Trazado_50546" data-name="Trazado 50546" d="M571.006,400.231s9.781,4.659,21.032,9.046c7.141,2.783,17.117,6.431,16.791,14.094-.238,5.587-22.724,59.424-22.724,59.424l-10.225-5.114s18.713-45.314,18.386-48.392-2.5-.355-21-2.033-24.113-5.194-23.984-13.979,4.962-21.049,12.45-24.167S571.006,400.231,571.006,400.231Z" transform="translate(10086.097 -464.907)" fill="#6a9aee"/>
    <path id="Trazado_50547" data-name="Trazado 50547" d="M571.006,400.231s3.731,4.75,14.981,9.137c7.138,2.783,16.007,7.88,16,12.785-.006,5.589-20.943,58.11-20.943,58.11l-5.163-2.583s18.713-45.314,18.386-48.392-2.5-.355-21-2.033-24.113-5.194-23.984-13.979,4.962-21.049,12.45-24.167S571.006,400.231,571.006,400.231Z" transform="translate(10086.097 -464.907)" fill="#4556ba"/>
    <path id="Trazado_50548" data-name="Trazado 50548" d="M571.912,391.331s2.975,12.4,10.039,15.374,23.288,6.3,23.283,14.128c-.006,5.592-24.213,60.968-24.213,60.968l-12.407-5.807s16.39-44.81,15.972-47.876,1.214-1.56-17.329-2.677-21.04-4.653-21.181-13.438,11.247-20.671,11.247-20.671C564.711,387.984,571.912,391.331,571.912,391.331Z" transform="translate(10080.119 -462.707)" fill="#6a9aee"/>
    <path id="Trazado_50549" data-name="Trazado 50549" d="M565.259,380.076s-2.926,11.989,2.508,18.123c0,0,7.25,9.758-4.18,11.434s-9.945-13.338-9.945-13.338,1.953-16.545-1.022-23.7C552.62,372.594,560.053,376.683,565.259,380.076Z" transform="translate(10092.316 -494.85)" fill="#e17c5e"/>
    <path id="Trazado_50550" data-name="Trazado 50550" d="M557.651,365.862s15.671.793,15.772,4.67-1.32,6.42-.8,9.81c1.128,7.29-3.112,15.308-4.968,15.64-2.872.513-12.593-3.777-14.117-9.676S551.618,363.509,557.651,365.862Z" transform="translate(10092.241 -507.81)" fill="#ff9d8a"/>
    <path id="Trazado_50551" data-name="Trazado 50551" d="M571.062,379.664s-10.918,2.486-14.483-5.89c-2.818-6.615-1.853-7.419-1.853-7.419s6.025-4.687,13.114,1.678C572.591,372.294,571.062,379.664,571.062,379.664Z" transform="translate(10095.943 -509.574)" fill="#110239"/>
    <path id="Trazado_50552" data-name="Trazado 50552" d="M562.087,365.213s5.8,5.1,2.586,9.942c-2.9,4.367-.982,6.709-1.589,9.638a3.238,3.238,0,0,1-1.692-2c-.3-1.357-.75-4.808-2.574-4.309s-3.525,2.755-.012,5.635c0,0,1.91,3.926-.561,7.027,0,0-9.355-8.035-6.646-17.083S562.087,365.213,562.087,365.213Z" transform="translate(10089.495 -508.604)" fill="#110239"/>
    <path id="Trazado_50553" data-name="Trazado 50553" d="M615.674,445.025c-2.334-9.558-10.517-10.211-17.659-12.994-6.6-2.574-12.682-5.237-16.594-7,.593-4.281,2.906-20.662,3.874-23.405,1.117-3.158,2.566-5.043,1.117-9.65-2.044-6.506-2.591-8.169-2.591-8.169s-3.576-3.379-5.744-4.387c0,0-.026,3.634-2.07,4.656s-8.553-7.623-8.553-7.623-9.868,4.146-12.1,5.962,1.014,19.211,1.014,19.211-5.672,17.249-6.045,23.715c-2.316,3.679-4.3,7.92-4.246,11.617.14,8.785,2.634,12.433,21.181,13.438,7.293.4,9.292.45,11.024,2.457.908,1.054,1.217,3.582,1.821,4.779,0,0,20.227,1.478,35.209-2.01C616.012,452.565,616.436,448.143,615.674,445.025Z" transform="translate(10080.119 -487.661)" fill="#edf6ff"/>
    <path id="Trazado_50554" data-name="Trazado 50554" d="M585.854,452.363c-2.732-8.7-10.357-8.184-17.458-10.139-4.209-1.162-12.006-3.072-12.851-8.539-1.254-8.089.741-18.085,3.485-25.7,1.956-5.435,4.725-11.345,4.733-17.232.011-7.66-2.815-10.437-8.37-12.224l-.04.029c-2.234,1.815,1.014,19.211,1.014,19.211s-5.672,17.249-6.045,23.715c-2.316,3.68-4.3,7.92-4.246,11.617.14,8.785,2.634,12.433,21.181,13.438,7.293.4,9.292.45,11.024,2.457.908,1.054,1.217,3.582,1.821,4.779,0,0,2.46.18,6.291.266C586.221,453.514,586.046,452.97,585.854,452.363Z" transform="translate(10080.119 -483.8)" fill="#c6d1de"/>
    <path id="Trazado_50555" data-name="Trazado 50555" d="M554.432,381.062c1.2,2.1,2.377,4.229,3.588,6.328a22.617,22.617,0,0,0,1.254,2.139,14.95,14.95,0,0,0,2.554-1.887c.624-.535,1.068-1.171,1.652-1.764.249.14.369.4.561.6a9.559,9.559,0,0,0,.871.69,7.412,7.412,0,0,0,1.735,1.223,42.914,42.914,0,0,0,.292-7.886c-.175-.79-1.563.163-1.5-.573-.089,1.031-.461,3.356-2.039,4.146-2.044,1.022-8.553-7.623-8.553-7.623s-.813.344-2.007.865A23.842,23.842,0,0,0,554.432,381.062Z" transform="translate(10092.727 -487.661)" fill="#8397a9" opacity="0.32" style="mix-blend-mode: multiply;isolation: isolate"/>
    <path id="Trazado_50556" data-name="Trazado 50556" d="M585.009,452.241c.607-3.476,1.214-11.743-.942-13.931-4.118-4.183-14.128-9.738-21.541-13.55-5.169-2.657-7.007-4.63-6.855-5.678,2.422-16.7,3.4-38.1,3.4-39.784l-.352,1.177s-.641,7-1.251,15.334c-.785,10.715-2.46,20.617-2.46,23.689,0,1.884.851,2.448,3.568,3.923,2.935,1.595,7.978,4.169,14.509,8.164a81.719,81.719,0,0,1,10.354,7.167c1.8,1.486,1.715,8.212.882,13.541C584.554,452.278,584.783,452.258,585.009,452.241Z" transform="translate(10096.773 -482.358)" fill="#c6d1de"/>
    <path id="Trazado_50557" data-name="Trazado 50557" d="M561.207,370.6s-.18,2.314,1.79,2.852c.813.22.733,2.755,1.386,5.309,1.243,4.859.453,8.166-3.164,9.575-2.594,1.011-6.268,1.815-10.443,4.742s-1.489-9.283,3.78-12.376S561.207,370.6,561.207,370.6Z" transform="translate(10085.064 -498.558)" fill="#110239"/>
    <g id="Grupo_22875" data-name="Grupo 22875" transform="translate(10584.392 -61.883)">
      <g id="Grupo_22873" data-name="Grupo 22873">
        <rect id="Rectngulo_5150" data-name="Rectngulo 5150" width="2.231" height="105.979" fill="#a9c9f6"/>
      </g>
      <g id="Grupo_22874" data-name="Grupo 22874" transform="translate(177.881)">
        <rect id="Rectngulo_5151" data-name="Rectngulo 5151" width="2.231" height="105.979" fill="#a9c9f6"/>
      </g>
    </g>
    <path id="Trazado_58122" data-name="Trazado 58122" d="M0,0H194.331V5.15H0Z" transform="translate(10577.282 -64.087)" fill="#110239"/>
    <g id="Grupo_22878" data-name="Grupo 22878" transform="translate(10715.588 -92.898)">
      <path id="Trazado_50558" data-name="Trazado 50558" d="M581.858,382.847v19.626c0,1.2-.816,1.635-1.821,1.635H580c-1.005,0-1.821-.432-1.821-1.635V382.847h-.885V403.59a2.7,2.7,0,0,0,2.7,2.7h.054a2.7,2.7,0,0,0,2.7-2.7V382.847Z" transform="translate(-577.293 -382.847)" fill="#edf6ff"/>
      <rect id="Rectngulo_5153" data-name="Rectngulo 5153" width="0.886" height="1.84" transform="translate(4.565 0.001)" fill="#b7d0d2"/>
      <rect id="Rectngulo_5154" data-name="Rectngulo 5154" width="0.886" height="1.84" transform="translate(0 0.001)" fill="#b7d0d2"/>
      <path id="Trazado_50559" data-name="Trazado 50559" d="M579.461,404.108h-.037c-1.005,0-1.821-.432-1.821-1.635V382.847h3.68v19.626C581.282,403.675,580.466,404.108,579.461,404.108Z" transform="translate(-576.717 -382.847)" fill="#fff" opacity="0.32" style="mix-blend-mode: screen;isolation: isolate"/>
      <path id="Trazado_50560" data-name="Trazado 50560" d="M577.6,386.063V396.48c0,1.2.816,1.635,1.821,1.635h.037c1.005,0,1.821-.432,1.821-1.635V386.063Z" transform="translate(-576.717 -376.854)" fill="#6a9aee"/>
    </g>
    <path id="Trazado_58123" data-name="Trazado 58123" d="M.241,0H6.5a.241.241,0,0,1,.241.241v.914A.241.241,0,0,1,6.5,1.4H.241A.241.241,0,0,1,0,1.155V.241A.241.241,0,0,1,.241,0Z" transform="translate(10714.94 -93.51)" fill="#edf6ff"/>
    <path id="Trazado_50561" data-name="Trazado 50561" d="M578.95,387.085a.477.477,0,1,1-.478-.478A.476.476,0,0,1,578.95,387.085Z" transform="translate(10139.603 -468.738)" fill="#6fc6ec"/>
    <path id="Trazado_58124" data-name="Trazado 58124" d="M.767,0A.767.767,0,1,1,0,.767.767.767,0,0,1,.767,0Z" transform="translate(10716.865 -78.962)" fill="#6fc6ec"/>
    <path id="Trazado_58125" data-name="Trazado 58125" d="M.4,0A.4.4,0,1,1,0,.4.4.4,0,0,1,.4,0Z" transform="translate(10718.228 -76.509)" fill="#6fc6ec"/>
    <path id="Trazado_58126" data-name="Trazado 58126" d="M.733,0A.733.733,0,1,1,0,.733.733.733,0,0,1,.733,0Z" transform="translate(10718.075 -74.499)" fill="#6fc6ec"/>
    <path id="Trazado_50562" data-name="Trazado 50562" d="M579.4,387.78a.494.494,0,1,1-.492-.5A.492.492,0,0,1,579.4,387.78Z" transform="translate(10140.378 -467.475)" fill="#6fc6ec"/>
    <path id="Trazado_58127" data-name="Trazado 58127" d="M.4,0A.4.4,0,1,1,0,.4.4.4,0,0,1,.4,0Z" transform="translate(10716.791 -75.306)" fill="#6fc6ec"/>
    <g id="Grupo_22880" data-name="Grupo 22880" transform="translate(10724.909 -92.898)">
      <path id="Trazado_50563" data-name="Trazado 50563" d="M585.113,382.847v19.626c0,1.2-.813,1.635-1.821,1.635h-.034c-1.008,0-1.824-.432-1.824-1.635V382.847h-.885V403.59a2.7,2.7,0,0,0,2.7,2.7h.054a2.7,2.7,0,0,0,2.7-2.7V382.847Z" transform="translate(-580.549 -382.847)" fill="#edf6ff"/>
      <rect id="Rectngulo_5156" data-name="Rectngulo 5156" width="0.886" height="1.84" transform="translate(4.566 0.001)" fill="#b7d0d2"/>
      <rect id="Rectngulo_5157" data-name="Rectngulo 5157" width="0.886" height="1.84" transform="translate(0 0.001)" fill="#b7d0d2"/>
      <path id="Trazado_50564" data-name="Trazado 50564" d="M582.716,404.108h-.034c-1.008,0-1.824-.432-1.824-1.635V382.847h3.68v19.626C584.537,403.675,583.724,404.108,582.716,404.108Z" transform="translate(-579.973 -382.847)" fill="#fff" opacity="0.32" style="mix-blend-mode: screen;isolation: isolate"/>
      <path id="Trazado_50565" data-name="Trazado 50565" d="M580.858,386.885v8.063c0,1.2.816,1.635,1.824,1.635h.034c1.008,0,1.821-.432,1.821-1.635v-8.063Z" transform="translate(-579.973 -375.323)" fill="#6a9aee"/>
    </g>
    <path id="Trazado_58128" data-name="Trazado 58128" d="M.242,0H6.5a.241.241,0,0,1,.241.241v.914A.241.241,0,0,1,6.5,1.4H.242A.242.242,0,0,1,0,1.155V.242A.242.242,0,0,1,.242,0Z" transform="translate(10724.262 -93.51)" fill="#edf6ff"/>
    <path id="Trazado_58129" data-name="Trazado 58129" d="M.767,0A.767.767,0,1,1,0,.767.767.767,0,0,1,.767,0Z" transform="translate(10727.583 -80.606)" fill="#6fc6ec"/>
    <path id="Trazado_50566" data-name="Trazado 50566" d="M582.413,388.6a.4.4,0,1,1-.4-.4A.4.4,0,0,1,582.413,388.6Z" transform="translate(10146.339 -465.77)" fill="#6fc6ec"/>
    <path id="Trazado_50567" data-name="Trazado 50567" d="M582.367,389.883a.644.644,0,1,1-.644-.644A.645.645,0,0,1,582.367,389.883Z" transform="translate(10145.348 -463.833)" fill="#6fc6ec"/>
    <path id="Trazado_58130" data-name="Trazado 58130" d="M.554,0A.554.554,0,1,1,0,.554.554.554,0,0,1,.554,0Z" transform="translate(10727.241 -76.263)" fill="#6fc6ec"/>
    <path id="Trazado_50568" data-name="Trazado 50568" d="M582.067,388.207a.494.494,0,1,1-.5-.492A.5.5,0,0,1,582.067,388.207Z" transform="translate(10145.348 -466.675)" fill="#6fc6ec"/>
    <path id="Trazado_50569" data-name="Trazado 50569" d="M582.418,390.047a.4.4,0,1,1-.4-.4A.4.4,0,0,1,582.418,390.047Z" transform="translate(10146.337 -463.081)" fill="#6fc6ec"/>
    <g id="Grupo_22882" data-name="Grupo 22882" transform="translate(10734.23 -92.898)">
      <path id="Trazado_50570" data-name="Trazado 50570" d="M588.369,382.847v19.626c0,1.2-.816,1.635-1.821,1.635h-.037c-1.005,0-1.821-.432-1.821-1.635V382.847h-.885V403.59a2.7,2.7,0,0,0,2.7,2.7h.054a2.7,2.7,0,0,0,2.7-2.7V382.847Z" transform="translate(-583.804 -382.847)" fill="#edf6ff"/>
      <rect id="Rectngulo_5159" data-name="Rectngulo 5159" width="0.886" height="1.84" transform="translate(4.565 0.001)" fill="#b7d0d2"/>
      <rect id="Rectngulo_5160" data-name="Rectngulo 5160" width="0.886" height="1.84" transform="translate(0 0.001)" fill="#b7d0d2"/>
      <path id="Trazado_50571" data-name="Trazado 50571" d="M585.972,404.108h-.037c-1.005,0-1.821-.432-1.821-1.635V382.847h3.679v19.626C587.793,403.675,586.978,404.108,585.972,404.108Z" transform="translate(-583.228 -382.847)" fill="#fff" opacity="0.32" style="mix-blend-mode: screen;isolation: isolate"/>
      <path id="Trazado_50572" data-name="Trazado 50572" d="M584.114,386.427V395.8c0,1.2.816,1.635,1.821,1.635h.037c1.005,0,1.821-.432,1.821-1.635v-9.375Z" transform="translate(-583.228 -376.176)" fill="#6a9aee"/>
    </g>
    <path id="Trazado_58131" data-name="Trazado 58131" d="M.241,0H6.5a.241.241,0,0,1,.241.241v.914A.241.241,0,0,1,6.5,1.4H.241A.241.241,0,0,1,0,1.155V.241A.241.241,0,0,1,.241,0Z" transform="translate(10733.583 -93.51)" fill="#edf6ff"/>
    <path id="Trazado_50573" data-name="Trazado 50573" d="M585.216,387.686a.478.478,0,1,1-.478-.478A.478.478,0,0,1,585.216,387.686Z" transform="translate(10151.272 -467.618)" fill="#6fc6ec"/>
    <path id="Trazado_58132" data-name="Trazado 58132" d="M.767,0A.767.767,0,1,1,0,.767.767.767,0,0,1,.767,0Z" transform="translate(10736.87 -81.943)" fill="#6fc6ec"/>
    <path id="Trazado_50574" data-name="Trazado 50574" d="M585.816,388.643a.681.681,0,1,1-.682-.682A.683.683,0,0,1,585.816,388.643Z" transform="translate(10151.634 -466.213)" fill="#6fc6ec"/>
    <path id="Trazado_50575" data-name="Trazado 50575" d="M585.934,390.238a.732.732,0,1,1-.73-.733A.73.73,0,0,1,585.934,390.238Z" transform="translate(10151.668 -463.338)" fill="#6fc6ec"/>
    <path id="Trazado_50576" data-name="Trazado 50576" d="M585.94,388.056a.494.494,0,1,1-.492-.5A.493.493,0,0,1,585.94,388.056Z" transform="translate(10152.564 -466.96)" fill="#6fc6ec"/>
    <path id="Trazado_50577" data-name="Trazado 50577" d="M585.093,389.342a.4.4,0,1,1-.4-.4A.4.4,0,0,1,585.093,389.342Z" transform="translate(10151.321 -464.394)" fill="#6fc6ec"/>
    <path id="Trazado_50578" data-name="Trazado 50578" d="M585.736,389.2a.4.4,0,1,1-.4-.4A.405.405,0,0,1,585.736,389.2Z" transform="translate(10152.521 -464.657)" fill="#6fc6ec"/>
    <g id="Grupo_22884" data-name="Grupo 22884" transform="translate(10743.553 -92.898)">
      <path id="Trazado_50579" data-name="Trazado 50579" d="M591.624,382.847v19.626c0,1.2-.816,1.635-1.821,1.635h-.037c-1.005,0-1.821-.432-1.821-1.635V382.847h-.885V403.59a2.7,2.7,0,0,0,2.7,2.7h.054a2.7,2.7,0,0,0,2.7-2.7V382.847Z" transform="translate(-587.06 -382.847)" fill="#edf6ff"/>
      <rect id="Rectngulo_5162" data-name="Rectngulo 5162" width="0.886" height="1.84" transform="translate(4.565 0.001)" fill="#b7d0d2"/>
      <rect id="Rectngulo_5163" data-name="Rectngulo 5163" width="0.886" height="1.84" transform="translate(0 0.001)" fill="#b7d0d2"/>
      <path id="Trazado_50580" data-name="Trazado 50580" d="M589.227,404.108h-.037c-1.005,0-1.821-.432-1.821-1.635V382.847h3.679v19.626C591.048,403.675,590.232,404.108,589.227,404.108Z" transform="translate(-586.484 -382.847)" fill="#fff" opacity="0.32" style="mix-blend-mode: screen;isolation: isolate"/>
      <path id="Trazado_50581" data-name="Trazado 50581" d="M587.369,385.719v11.4c0,1.2.816,1.635,1.821,1.635h.037c1.005,0,1.821-.432,1.821-1.635v-11.4Z" transform="translate(-586.484 -377.495)" fill="#6a9aee"/>
    </g>
    <path id="Trazado_58133" data-name="Trazado 58133" d="M.241,0H6.5a.241.241,0,0,1,.241.241v.914A.241.241,0,0,1,6.5,1.4H.241A.241.241,0,0,1,0,1.155V.241A.241.241,0,0,1,.241,0Z" transform="translate(10742.905 -93.51)" fill="#edf6ff"/>
    <path id="Trazado_50582" data-name="Trazado 50582" d="M588.965,387.037a.477.477,0,1,1-.478-.478A.479.479,0,0,1,588.965,387.037Z" transform="translate(10158.267 -468.828)" fill="#6fc6ec"/>
    <path id="Trazado_50583" data-name="Trazado 50583" d="M589.526,389.694a.766.766,0,1,1-.764-.765A.765.765,0,0,1,589.526,389.694Z" transform="translate(10158.233 -464.411)" fill="#6fc6ec"/>
    <path id="Trazado_50584" data-name="Trazado 50584" d="M588.516,390.045a.4.4,0,1,1-.4-.4A.4.4,0,0,1,588.516,390.045Z" transform="translate(10157.711 -463.079)" fill="#6fc6ec"/>
    <path id="Trazado_50585" data-name="Trazado 50585" d="M589.064,387.711a.733.733,0,1,1-.733-.733A.733.733,0,0,1,589.064,387.711Z" transform="translate(10157.495 -468.047)" fill="#6fc6ec"/>
    <path id="Trazado_50586" data-name="Trazado 50586" d="M589.319,388.241a.6.6,0,1,1-.6-.6A.6.6,0,0,1,589.319,388.241Z" transform="translate(10158.451 -466.819)" fill="#6fc6ec"/>
    <path id="Trazado_50587" data-name="Trazado 50587" d="M588.53,386.52a.494.494,0,1,1-.5-.492A.494.494,0,0,1,588.53,386.52Z" transform="translate(10157.391 -469.817)" fill="#6fc6ec"/>
    <path id="Trazado_58134" data-name="Trazado 58134" d="M.681,0A.681.681,0,1,1,0,.681.681.681,0,0,1,.681,0Z" transform="translate(10745.068 -77.616)" fill="#6fc6ec"/>
    <path id="Trazado_50588" data-name="Trazado 50588" d="M588.288,389.392a.4.4,0,1,1-.4-.4A.4.4,0,0,1,588.288,389.392Z" transform="translate(10157.275 -464.296)" fill="#6fc6ec"/>
    <g id="Grupo_22886" data-name="Grupo 22886" transform="translate(10710.712 -88.945)">
      <rect id="Rectngulo_5165" data-name="Rectngulo 5165" width="2.552" height="22.749" fill="#8397ca"/>
      <rect id="Rectngulo_5166" data-name="Rectngulo 5166" width="2.552" height="22.749" transform="translate(40.615)" fill="#8397ca"/>
    </g>
    <g id="Grupo_22887" data-name="Grupo 22887" transform="translate(10710.712 -88.945)" style="mix-blend-mode: multiply;isolation: isolate">
      <rect id="Rectngulo_5167" data-name="Rectngulo 5167" width="2.552" height="4.883" fill="#8397a9"/>
      <rect id="Rectngulo_5168" data-name="Rectngulo 5168" width="2.552" height="4.883" transform="translate(40.615)" fill="#8397a9"/>
    </g>
    <path id="Trazado_58135" data-name="Trazado 58135" d="M0,0H48.938V3H0Z" transform="translate(10707.826 -67.083)" fill="#edf6ff"/>
    <path id="Trazado_58136" data-name="Trazado 58136" d="M0,0H48.938V3H0Z" transform="translate(10707.826 -89.777)" fill="#edf6ff"/>
    <path id="Trazado_50589" data-name="Trazado 50589" d="M556.98,375.548l-4.138,3.837,7.586,10.068,2.967-3.694Z" transform="translate(10092.73 -489.346)" fill="#edf6ff"/>
    <path id="Trazado_50590" data-name="Trazado 50590" d="M557.394,376.452l-.866,7.621,2.9,2.586.789-6.269Z" transform="translate(10099.599 -487.661)" fill="#edf6ff"/>
    <path id="Trazado_50591" data-name="Trazado 50591" d="M574.711,390.439v-5.017h-.882v5.108s6.385,9.137,6.385,11.946a2.445,2.445,0,0,1-1.618,2.663,3.907,3.907,0,0,1-1.334.221H566.885a3.891,3.891,0,0,1-1.331-.221,2.443,2.443,0,0,1-1.621-2.663c0-2.809,6.386-11.946,6.386-11.946v-5.108h-.882v5.017s-6.824,9.8-6.824,13.066c0,1.586.51,2.594,1.881,3.1a4.521,4.521,0,0,0,1.549.255H578.1a4.523,4.523,0,0,0,1.549-.255c1.372-.5,1.881-1.509,1.881-3.1C581.535,400.24,574.711,390.439,574.711,390.439Z" transform="translate(10110.938 -470.946)" fill="#edf6ff"/>
    <path id="Trazado_58137" data-name="Trazado 58137" d="M0,0H.881V1.524H0Z" transform="translate(10684.769 -85.524)" fill="#b7d0d2"/>
    <path id="Trazado_58138" data-name="Trazado 58138" d="M0,0H.881V1.524H0Z" transform="translate(10680.374 -85.524)" fill="#b7d0d2"/>
    <path id="Trazado_50592" data-name="Trazado 50592" d="M572.97,390.53v-5.108H569.46v5.108s-6.386,9.137-6.386,11.946a2.443,2.443,0,0,0,1.621,2.663,3.891,3.891,0,0,0,1.331.221H576.4a3.908,3.908,0,0,0,1.334-.221,2.444,2.444,0,0,0,1.618-2.663C579.356,399.668,572.97,390.53,572.97,390.53Z" transform="translate(10111.797 -470.946)" fill="#fff" opacity="0.32" style="mix-blend-mode: screen;isolation: isolate"/>
    <path id="Trazado_50593" data-name="Trazado 50593" d="M576.6,389.483a12.192,12.192,0,0,1-2.211,1.091c-1.9.716-3.456.226-5.2-.644a6.321,6.321,0,0,0-3.516-.624c-1.375,2.357-2.6,4.8-2.6,6.025a2.443,2.443,0,0,0,1.621,2.663,3.892,3.892,0,0,0,1.331.22H576.4a3.908,3.908,0,0,0,1.334-.22,2.444,2.444,0,0,0,1.618-2.663c0-1.22-1.2-3.631-2.566-5.973C576.727,389.4,576.667,389.442,576.6,389.483Z" transform="translate(10111.797 -463.799)" fill="#fb345b"/>
    <path id="Trazado_58139" data-name="Trazado 58139" d="M.337,0H6.522a.337.337,0,0,1,.337.337V1.612a.337.337,0,0,1-.337.337H.337A.337.337,0,0,1,0,1.612V.337A.337.337,0,0,1,.337,0Z" transform="translate(10679.583 -86.781)" fill="#edf6ff"/>
    <path id="Trazado_50594" data-name="Trazado 50594" d="M565.713,391.553a.989.989,0,1,1-.991-.991A.99.99,0,0,1,565.713,391.553Z" transform="translate(10113.027 -461.368)" fill="#fc889f"/>
    <path id="Trazado_50595" data-name="Trazado 50595" d="M565.594,390.339a.518.518,0,1,1-.518-.518A.518.518,0,0,1,565.594,390.339Z" transform="translate(10114.561 -462.749)" fill="#fc889f"/>
    <path id="Trazado_50596" data-name="Trazado 50596" d="M566.235,392.178a.72.72,0,1,1-.719-.719A.719.719,0,0,1,566.235,392.178Z" transform="translate(10115.004 -459.697)" fill="#fc889f"/>
    <path id="Trazado_50597" data-name="Trazado 50597" d="M567.071,391.266a.886.886,0,1,1-.888-.885A.888.888,0,0,1,567.071,391.266Z" transform="translate(10115.941 -461.706)" fill="#fc889f"/>
    <path id="Trazado_50598" data-name="Trazado 50598" d="M569.153,391.457a1.273,1.273,0,1,1-1.274-1.274A1.273,1.273,0,0,1,569.153,391.457Z" transform="translate(10118.38 -462.074)" fill="#fc889f"/>
    <path id="Trazado_50599" data-name="Trazado 50599" d="M567.39,392.325a.577.577,0,1,1-.575-.578A.578.578,0,0,1,567.39,392.325Z" transform="translate(10117.689 -459.16)" fill="#fc889f"/>
    <path id="Trazado_50600" data-name="Trazado 50600" d="M568.835,391.909a.653.653,0,1,1-.653-.656A.652.652,0,0,1,568.835,391.909Z" transform="translate(10120.099 -460.081)" fill="#fc889f"/>
    <path id="Trazado_50601" data-name="Trazado 50601" d="M568.938,390.781a.507.507,0,1,1-.507-.507A.51.51,0,0,1,568.938,390.781Z" transform="translate(10120.835 -461.905)" fill="#fc889f"/>
    <path id="Trazado_50602" data-name="Trazado 50602" d="M564.894,392.074a.531.531,0,1,1-.53-.533A.53.53,0,0,1,564.894,392.074Z" transform="translate(10113.209 -459.544)" fill="#fc889f"/>
    <path id="Trazado_50603" data-name="Trazado 50603" d="M561.207,391.69s2.586-.335,3.118-.475,6.445-5.836,7.33-5.495,9.195,3.4,9.232,4.418-2.082.951-6.637-1.228c0,0,5.89,2.219,5.154,3.322s-6.1-1.707-6.1-1.707,5.346,2.168,4.476,3.193-5.853-1.924-5.853-1.924,3.868,2.176,3.573,2.783-2.474.266-5.123-1.165c0,0-.447-.112-1.426.787s-7.451,2.454-7.451,2.454Z" transform="translate(10108.317 -470.419)" fill="#ff9d8a"/>
    <path id="Trazado_50604" data-name="Trazado 50604" d="M594.6,403.177l1.767,8.439s-40.578,9.263-46.342,8.522-8.364-8.364-4.647-15.056S556.6,378.672,561.433,378.3s7.934,6.171,3.937,13.326-8,16.427-6.42,17.636S594.6,403.177,594.6,403.177Z" transform="translate(10075.604 -484.246)" fill="#edf6ff"/>
    <path id="Trazado_50605" data-name="Trazado 50605" d="M572.34,377.691l10.016,16.877a1.568,1.568,0,0,1-.733,2.337l-.032.017a1.567,1.567,0,0,1-2.4-.475L569.176,379.57l-.762.452L579,397.859a2.7,2.7,0,0,0,3.7.945l.049-.029a2.7,2.7,0,0,0,.942-3.7L573.1,377.239Z" transform="translate(10121.747 -486.195)" fill="#edf6ff"/>
    <path id="Trazado_58140" data-name="Trazado 58140" d="M0,0H.886V1.84H0Z" transform="matrix(0.86, -0.51, 0.51, 0.86, 10694.088, -108.503)" fill="#b7d0d2"/>
    <path id="Trazado_58141" data-name="Trazado 58141" d="M0,0H.886V1.84H0Z" transform="matrix(0.86, -0.51, 0.51, 0.86, 10690.162, -106.173)" fill="#b7d0d2"/>
    <path id="Trazado_50606" data-name="Trazado 50606" d="M581.127,396.611l-.031.017a1.567,1.567,0,0,1-2.4-.475L568.68,379.275l3.164-1.878,10.016,16.877A1.568,1.568,0,0,1,581.127,396.611Z" transform="translate(10122.243 -485.9)" fill="#fff" opacity="0.32" style="mix-blend-mode: screen;isolation: isolate"/>
    <path id="Trazado_50607" data-name="Trazado 50607" d="M578.917,389.1l-.043-.069-.026-.046-3.659-6.165c-.077-.117-.143-.246-.226-.361a.36.36,0,0,1-.029-.069l-1.343-2.265a.766.766,0,0,0-.8-.046c-.286.172-.438.5-.768.673a3.585,3.585,0,0,1-.882.232c-.226.057-.853.2-.979.421a.225.225,0,0,0-.017.129l5.813,9.8a1.582,1.582,0,0,0,2.431.458,1.675,1.675,0,0,0,1-1.606,1.864,1.864,0,0,0-.266-.73Z" transform="translate(10124.978 -481.079)" fill="#6a9aee"/>
    <path id="Trazado_50608" data-name="Trazado 50608" d="M573.863,378.326l-4.613,2.737a.691.691,0,0,1-.948-.24l-.006-.011a.693.693,0,0,1,.241-.948l4.613-2.737a.693.693,0,0,1,.948.241l.006.014A.688.688,0,0,1,573.863,378.326Z" transform="translate(10121.349 -486.586)" fill="#edf6ff"/>
    <path id="Trazado_50609" data-name="Trazado 50609" d="M571.885,381.211a.476.476,0,1,1-.653-.166A.476.476,0,0,1,571.885,381.211Z" transform="translate(10126.563 -479.228)" fill="#6fc6ec"/>
    <path id="Trazado_50610" data-name="Trazado 50610" d="M572.807,382.37a.767.767,0,1,1-1.051-.269A.769.769,0,0,1,572.807,382.37Z" transform="translate(10127.275 -477.334)" fill="#6fc6ec"/>
    <path id="Trazado_50611" data-name="Trazado 50611" d="M572.925,382.766a.4.4,0,1,1-.55-.137A.4.4,0,0,1,572.925,382.766Z" transform="translate(10128.764 -476.259)" fill="#6fc6ec"/>
    <path id="Trazado_50612" data-name="Trazado 50612" d="M573.9,383.486a.732.732,0,1,1-1.005-.258A.73.73,0,0,1,573.9,383.486Z" transform="translate(10129.427 -475.224)" fill="#6fc6ec"/>
    <path id="Trazado_50613" data-name="Trazado 50613" d="M572.625,381.586a.494.494,0,1,1-.679-.172A.494.494,0,0,1,572.625,381.586Z" transform="translate(10127.879 -478.544)" fill="#6fc6ec"/>
    <path id="Trazado_50614" data-name="Trazado 50614" d="M572.713,383.385a.4.4,0,0,1-.14.553.407.407,0,0,1-.553-.14.4.4,0,0,1,.693-.412Z" transform="translate(10128.36 -475.109)" fill="#6fc6ec"/>
    <path id="Trazado_50615" data-name="Trazado 50615" d="M571.627,380.841a.61.61,0,1,1-.836-.212A.608.608,0,0,1,571.627,380.841Z" transform="translate(10125.621 -480.038)" fill="#6fc6ec"/>
    <path id="Trazado_50616" data-name="Trazado 50616" d="M571.757,380.413a.4.4,0,1,1-.553-.14A.4.4,0,0,1,571.757,380.413Z" transform="translate(10126.579 -480.649)" fill="#6fc6ec"/>
    <path id="Trazado_50617" data-name="Trazado 50617" d="M573.665,380.226c-.762.389-2.97,1.672-2.623,2.9.292,1.028,3.147-.7,3.147-.7-1.054.656-2.886,1.025-2.577,1.9.347.968,2.752.04,3.287-.241-.515.049-3.21,1.16-2.345,2.1.593.639,2.577-.2,3.178-.5-.759.109-1.85.6-1.816,1.635.232.6,1.386.407,2.036.255.982-.232,1.847-.53,2.1-1.667a11.3,11.3,0,0,0-1.8-4.791C575.512,380.226,574.618,379.7,573.665,380.226Z" transform="translate(10126.575 -481.015)" fill="#ff9d8a"/>
    <path id="Trazado_50618" data-name="Trazado 50618" d="M570.37,382.38a2.748,2.748,0,0,0-.3,1.9c.115.853.747,2.872.739,3.113-.008.215-.112.455-.011.653.16.318.773.647,1.037.9.166.155,1.981,1.97,1.8,2.139l1.028-.948-2.013-3.708a4.922,4.922,0,0,1-.8-2.027,5.816,5.816,0,0,1,.473-1.884c.235-.63.816-1.4.464-2.1C572.162,379.2,570.581,381.977,570.37,382.38Z" transform="translate(10124.733 -480.842)" fill="#ff9d8a"/>
    <path id="Trazado_50619" data-name="Trazado 50619" d="M550.324,389.6v-6.743h-1.185v6.867s8.585,12.287,8.585,16.064c0,1.836-.59,3-2.179,3.579a5.2,5.2,0,0,1-1.79.3H539.8a5.216,5.216,0,0,1-1.79-.3c-1.586-.578-2.176-1.744-2.176-3.579,0-3.777,8.582-16.064,8.582-16.064v-6.867h-1.183V389.6s-9.174,13.18-9.174,17.57c0,2.133.684,3.485,2.531,4.161a6.1,6.1,0,0,0,2.079.344h16.218a6.119,6.119,0,0,0,2.082-.344c1.844-.676,2.528-2.027,2.528-4.161C559.5,402.776,550.324,389.6,550.324,389.6Z" transform="translate(10057.727 -475.735)" fill="#edf6ff"/>
    <path id="Trazado_58142" data-name="Trazado 58142" d="M0,0H1.185V2.049H0Z" transform="translate(10606.864 -92.883)" fill="#b7d0d2"/>
    <path id="Trazado_58143" data-name="Trazado 58143" d="M0,0H1.185V2.049H0Z" transform="translate(10600.957 -92.883)" fill="#b7d0d2"/>
    <path id="Trazado_50620" data-name="Trazado 50620" d="M547.983,389.719v-6.867h-4.724v6.867s-8.582,12.287-8.582,16.064c0,1.836.59,3,2.176,3.579a5.216,5.216,0,0,0,1.79.3H552.6a5.2,5.2,0,0,0,1.79-.3c1.589-.578,2.179-1.744,2.179-3.579C556.568,402.005,547.983,389.719,547.983,389.719Z" transform="translate(10058.882 -475.735)" fill="#fff" opacity="0.32" style="mix-blend-mode: screen;isolation: isolate"/>
    <path id="Trazado_50621" data-name="Trazado 50621" d="M552.865,388.311a16.775,16.775,0,0,1-2.972,1.469c-2.56.962-4.647.3-7-.871a8.5,8.5,0,0,0-4.727-.836c-1.847,3.167-3.491,6.448-3.491,8.1,0,1.836.59,3,2.176,3.579a5.217,5.217,0,0,0,1.79.3H552.6a5.205,5.205,0,0,0,1.79-.3c1.589-.578,2.179-1.744,2.179-3.579,0-1.638-1.621-4.882-3.45-8.029C553.034,388.2,552.951,388.256,552.865,388.311Z" transform="translate(10058.882 -466.127)" fill="#fc3"/>
    <path id="Trazado_58144" data-name="Trazado 58144" d="M.453,0H8.769a.453.453,0,0,1,.453.453V2.167a.453.453,0,0,1-.453.453H.453A.453.453,0,0,1,0,2.167V.453A.453.453,0,0,1,.453,0Z" transform="translate(10599.893 -94.574)" fill="#edf6ff"/>
    <path id="Trazado_50622" data-name="Trazado 50622" d="M538.226,391.094a1.331,1.331,0,1,1-1.331-1.331A1.331,1.331,0,0,1,538.226,391.094Z" transform="translate(10060.532 -462.859)" fill="#ffe081"/>
    <path id="Trazado_58145" data-name="Trazado 58145" d="M.7,0A.7.7,0,1,1,0,.7.7.7,0,0,1,.7,0Z" transform="translate(10599.266 -75.948)" fill="#ffe081"/>
    <path id="Trazado_50623" data-name="Trazado 50623" d="M538.924,391.934a.966.966,0,1,1-.965-.965A.966.966,0,0,1,538.924,391.934Z" transform="translate(10063.193 -460.61)" fill="#ffe081"/>
    <path id="Trazado_50624" data-name="Trazado 50624" d="M540.051,390.71a1.193,1.193,0,1,1-1.191-1.191A1.193,1.193,0,0,1,540.051,390.71Z" transform="translate(10064.451 -463.312)" fill="#ffe081"/>
    <path id="Trazado_50625" data-name="Trazado 50625" d="M542.851,390.965a1.712,1.712,0,1,1-1.713-1.712A1.713,1.713,0,0,1,542.851,390.965Z" transform="translate(10067.731 -463.808)" fill="#ffe081"/>
    <path id="Trazado_58146" data-name="Trazado 58146" d="M.776,0A.776.776,0,1,1,0,.776.776.776,0,0,1,.776,0Z" transform="translate(10605.731 -68.532)" fill="#ffe081"/>
    <path id="Trazado_58147" data-name="Trazado 58147" d="M.88,0A.88.88,0,1,1,0,.88.88.88,0,0,1,.88,0Z" transform="translate(10610.707 -70.434)" fill="#ffe081"/>
    <path id="Trazado_58148" data-name="Trazado 58148" d="M.681,0A.681.681,0,1,1,0,.681.681.681,0,0,1,.681,0Z" transform="translate(10612.229 -74.205)" fill="#ffe081"/>
    <path id="Trazado_58149" data-name="Trazado 58149" d="M.713,0A.713.713,0,1,1,0,.713.713.713,0,0,1,.713,0Z" transform="translate(10596.477 -69.324)" fill="#ffe081"/>
  </g>
</svg>
