<svg xmlns="http://www.w3.org/2000/svg" xmlns:xlink="http://www.w3.org/1999/xlink" width="1437" height="368" viewBox="0 0 1437 368">
  <defs>
    <clipPath id="clip-Web_1920_1">
      <rect width="1437" height="368"/>
    </clipPath>
  </defs>
  <g id="Web_1920_1" data-name="Web 1920 – 1" clip-path="url(#clip-Web_1920_1)">
    <rect width="1437" height="368" fill="#fff"/>
    <g id="Grupo_1" data-name="Grupo 1" transform="translate(-243 -129.45)">
      <g id="BACKGROUND">
        <rect id="Rectángulo_5509" data-name="Rectángulo 5509" width="1923.47" height="372.41" transform="translate(0 127.59)" fill="#61b0e5"/>
        <path id="Trazado_25137" data-name="Trazado 25137" d="M3.77,496.1h1920v5H3.77Z" fill="#233680" opacity="0.992" style="isolation: isolate"/>
      </g>
      <g id="OBJECTS">
        <g id="Grupo_27811" data-name="Grupo 27811">
          <path id="Trazado_56254" data-name="Trazado 56254" d="M609.84,501.1" fill="#00a19a"/>
          <path id="Trazado_56255" data-name="Trazado 56255" d="M1923.47,127.59V496.88H1754.04a155.173,155.173,0,0,1-41.8,0H3.77V127.59H527.42c36.13,36.12,78.37,59.05,132.04,56.89h.01q4.68-.195,9.48-.64h.01c.05,0,.09-.01.14-.01q3.36-.315,6.8-.77h.01a213.331,213.331,0,0,0,23.43-4.44c19.86-4.9,37.23-6.89,52.68-6.55a127.454,127.454,0,0,1,44.64,8.66c72.1,28.34,98.11,117.44,205.76,138.27,127.91,24.76,250.82-12.33,353.25-191.41h469.6c.2-.38.39-.76.58-1.14q.045.585.06,1.14Z" fill="#00a19a"/>
          <path id="Trazado_56256" data-name="Trazado 56256" d="M328.88,488.83c-6.72-8.17-13.24-16.77-19.59-25.69-15.51-21.73-30.08-45.4-44.33-69.68q-1.8-3.075-3.59-6.16c-9.6-16.46-19.06-33.15-28.59-49.64-6.46-11.19-12.95-22.28-19.53-33.16q-2.565-4.26-5.23-8.29c-26.97-41.12-59.63-65.37-91.23-79.42h-.01q-4.9-2.175-9.76-4.03A218.918,218.918,0,0,0,32.98,198.6a211.277,211.277,0,0,0-29.21,1.42V496.88H335.69C333.39,494.25,331.13,491.56,328.88,488.83Z" fill="#007c73" opacity="0.59"/>
          <path id="Trazado_56257" data-name="Trazado 56257" d="M1923.47,127.59V496.88H1754.04a155.173,155.173,0,0,1-41.8,0H1188.16q15.87-29.43,31.05-63.69c21.7-49.1,42.7-89.29,63.89-121.91q7.62-11.745,15.3-22.19,6.855-9.36,13.8-17.73c1.84-2.23,3.68-4.4,5.54-6.52.54-.63,1.08-1.25,1.63-1.86q4.785-5.4,9.62-10.37c21.95-22.57,44.73-38.49,69.23-49.11,36.1-15.66,75.95-19.82,122.4-16.78q3.6.24,7.26.53c17.72,1.42,36.4,3.83,56.18,6.99q12.345,1.98,25.28,4.33l.67.12q15.39,2.775,29.33,4.48,16.905,2.085,31.79,2.71c20.9.91,38.99-.23,54.75-3.05,2.24-.4,4.42-.83,6.56-1.3h.01a147.054,147.054,0,0,0,28.32-9.11,119.122,119.122,0,0,0,26.7-16.18c13.86-11.14,24.3-24.75,32.9-39.65,1.7-2.95,3.33-5.96,4.9-9,.2-.38.39-.76.58-1.14q.045.585.06,1.14Z" fill="#007c73" opacity="0.59"/>
        </g>
        <g id="Grupo_27830" data-name="Grupo 27830">
          <g id="Grupo_27815" data-name="Grupo 27815">
            <g id="Grupo_27812" data-name="Grupo 27812">
              <path id="Trazado_56258" data-name="Trazado 56258" d="M1595.82,315.72c-12.28,17.59-.59,15.86,16.86,11.76,26.55-6.24,66.44-17.96,55.48,24.63-6.12,23.76-20.45,41.3-36.78,54.13h-.01q-3.075,2.415-6.23,4.6a172.421,172.421,0,0,1-38.01,19.56c-5.56,2.07-10.62,3.66-14.85,4.87-3.73,1.06-6.82,1.82-9.05,2.32-.37.08-.74.17-1.11.26-.35.09-.69.18-1.03.27-2.14.56-4.25,1.24-6.34,1.95-20.77,7.11-43.76,8.31-64.59,5.61-1.93-.25-3.84-.54-5.73-.85a144.312,144.312,0,0,1-23.07-5.8c-22.94-7.91-38.56-20.76-37.25-34.12a2.273,2.273,0,0,1,.02-.26c1.39-12.21,7.32-15.36,14.66-16.17,1.22-.13,2.49-.19,3.78-.23,5-.12,10.36.26,15.24-.67a22.272,22.272,0,0,0,2.44-.6,16.2,16.2,0,0,0,9.29-6.93c4.55-7-2.48-13.1-13.54-19.75-3.34-2.01-7.05-4.08-10.92-6.23a2.137,2.137,0,0,0-.26-.14v-.01c-1.84-1.02-3.72-2.07-5.6-3.14-2.3-1.31-4.62-2.65-6.91-4.04s-4.58-2.83-6.79-4.32c-9.25-6.24-17.38-13.41-21.41-22.1a28.563,28.563,0,0,1-1.61-4.27c-6.29-21.73,37.95-16.89,54.64-16.82s45.3-23.91-8.82-56.06c-22.03-13.09-38.87-26.79-50.1-39.67-16.37-18.75-20.84-35.74-12.07-46.49,14.79-18.12,70.81,32.22,94.2,27.32,12.56-2.63,7.37-27.8-1.49-56.74h42.29c.22,1.42.47,2.79.77,4.11,4.4,19.38,20.62,17.12,34.36-4.11h56.79c-5.03,19.07-16.27,39.74-26.93,61.99-.8,1.67-1.49,3.23-2.08,4.66-9.77,23.99,9.61,15.95,25.95,4.45a128.209,128.209,0,0,0,10.52-8.24,54.311,54.311,0,0,1,11.16-7.31c19.16-9.65,47.15-12.26,39.44,22.74a95.789,95.789,0,0,1-3.41,11.63,191.673,191.673,0,0,1-10.14,23.76,119.629,119.629,0,0,1-10.46,16.86c-13.85,18.57-29.21,27.14-48.68,53.91C1597.58,313.23,1596.7,314.46,1595.82,315.72Z" fill="#063"/>
              <path id="Trazado_56259" data-name="Trazado 56259" d="M1576.56,496.88h-11.15q-.21-6.555-.51-13.21-.96-22.4-2.78-45.82c-.08-.99-.15-1.97-.24-2.97v-.01q-2.4-30.105-6.32-61.91a1572.02,1572.02,0,0,0-34.94-186.24q-7.23-29.055-15.84-59.13h5.41c5.69,17.6,11.7,37.55,17.69,59.66a1453.227,1453.227,0,0,1,44.4,248.02q2.13,23.49,3.57,47.99v.01Q1576.225,490.035,1576.56,496.88Z" fill="#261309"/>
            </g>
            <g id="Grupo_27813" data-name="Grupo 27813">
              <path id="Trazado_56260" data-name="Trazado 56260" d="M1843.93,397.27c-7.68,16.1-27.48,23.95-49.78,32.5-3.67,1.4-7.41,2.83-11.18,4.31-1.7.67-3.17,1.32-4.44,1.95-18.67,9.31,6.88,14.84,22.05,15.29a44.621,44.621,0,0,1,18.92,5.57c4.27,2.4,7.82,5.49,9.39,9.08a10.205,10.205,0,0,1-.61,9.41c-.01,0-.01.01-.01.02a21.194,21.194,0,0,1-4.12,5.1l-.02.02a54.516,54.516,0,0,1-11.97,8.03c-1.33.69-2.63,1.35-3.89,1.96l-.01.01a120.356,120.356,0,0,1-15.34,6.36h-38.88a155.173,155.173,0,0,1-41.8,0H1592.9c-4.49-10.82-5.44-20.54-1.72-26.46l.01-.01a11.233,11.233,0,0,1,2.26-2.65,20.72,20.72,0,0,1,3.39-2.43c10.39-5.89,15.56,6.44,23.95,10.69v.01a11.622,11.622,0,0,0,8.43,1c2.87-.72,4.14-2.71,4.37-5.61,1.06-12.62-17.38-42.55-8.45-60.58.02-.03.03-.07.05-.1,1.54-3.05,3.67-4.38,6.18-4.5h.01c9.35-.47,23.76,15.89,30.64,22.35a17.987,17.987,0,0,0,15.14,4.2c8.46-1.84,15.22-11.66,7.49-37.9-.48-1.64-.94-3.25-1.36-4.85-10.95-40.66-5.29-68.49,10.65-70.68a6.921,6.921,0,0,1,2.32.06c2.77.5,5.2,2.66,7.41,5.87,9.56,13.88,15.06,47.54,26.38,54.38,9.88,5.97,22.37-20.4,34.01-45.95v-.01c4.08-8.95,8.06-17.8,11.78-25.12l.01-.01c1.39-2.75,2.75-5.28,4.07-7.52,8.57-14.57,18.94-18.16,25.84-13.17,5.07,3.65,8.26,11.9,7.51,23.81-.99,15.72-9.33,28.08-18.02,38.58-6.86,8.29-13.95,15.41-17.81,22.09-8.74,15.13,7.75,21.83,33.18,9.78,1.13-.54,2.24-1.03,3.34-1.48,8.98-3.75,16.72-4.83,22.38-3.73C1845.51,378.72,1849.22,386.19,1843.93,397.27Z" fill="#063"/>
              <path id="Trazado_56261" data-name="Trazado 56261" d="M1799.26,301.02c-.45,1.39-6.35,19.36-19.23,48.51a992.523,992.523,0,0,1-79.9,145.08c-.5.75-1,1.51-1.5,2.27h-7.9q1.38-2.01,2.75-4.03h.01a1180.557,1180.557,0,0,0,83.62-144.39Q1788.36,325.54,1799.26,301.02Z" fill="#261309"/>
            </g>
            <g id="Grupo_27814" data-name="Grupo 27814">
              <path id="Trazado_56262" data-name="Trazado 56262" d="M1415.561,409.555a42.789,42.789,0,0,0-4.1,2.063c-8.1,4.726-42.256,22.51-70.094,4.643-31.809-20.422,42.129-33.559,14.69-39.476s-34.251,2.536-62.014-11.9-3.343-26.669,8.412-27.018,32.1-4.9,12.78-12.511-37.756-13.1-44.244-26.71,5.718-19.727,24.175-10.978,30.427,3.885,24.081-7.093-24.708-23.611-26-44.029,13.423-26.057,24.2-7.72,25.557,63.467,36.189,57.05,14.185-45.43,26.207-43.774,15.989,23.4,6.74,54.816,10.09,30.4,16.421,24.46,21.459-23.454,26.729-12.961c8.074,16.075-14.08,45.318-2.926,48.11s14.246-16.786,25.959-6.729C1464.189,359.594,1444.766,396.5,1415.561,409.555Z" fill="#063"/>
              <path id="Trazado_56263" data-name="Trazado 56263" d="M1493.02,496.88h-11.2a736.042,736.042,0,0,1-62.93-68.29q-6-7.38-11.62-14.68c-45.98-59.6-74.3-114.74-89.53-149.07-10-22.54-14.35-36.11-14.35-36.11q7.845,17.7,15.98,34.25c29.34,59.79,61.15,108.63,92.61,148.35q8.34,10.545,16.65,20.24A628.261,628.261,0,0,0,1493.02,496.88Z" fill="#261309"/>
            </g>
          </g>
          <g id="Grupo_27819" data-name="Grupo 27819">
            <g id="Grupo_27816" data-name="Grupo 27816">
              <path id="Trazado_56264" data-name="Trazado 56264" d="M229.15,256.79a94.931,94.931,0,0,1-21.13,39.42,118.036,118.036,0,0,1-15.63,14.7.037.037,0,0,0-.03.01c-2.04,1.61-4.12,3.14-6.22,4.6-19.15,13.34-39.88,20.74-52.86,24.44-3.73,1.06-6.82,1.82-9.05,2.32-.37.08-.74.17-1.11.26-2.49.61-4.94,1.38-7.37,2.21-39.25,13.44-86.4,5.77-111.98-9.48V292.94c9.62-.23,20.56,1.35,26.77-8.2,4.55-7-2.48-13.1-13.54-19.75-4-2.41-8.53-4.89-13.23-7.52V203.51c5.58.14,10.65.39,14.37.4a25.405,25.405,0,0,0,14.84-5.31c11.41-8.79,15.21-27.66-23.66-50.75q-2.835-1.68-5.55-3.38V127.59H226.71c-19.64,51.28-39.95,49.89-69.89,92.81C125.85,264.78,247.32,186.22,229.15,256.79Z" fill="#063"/>
              <path id="Trazado_56265" data-name="Trazado 56265" d="M138.97,496.88H126.06q.54-12.975.82-26.42.165-7.65.23-15.45c.28-35.22-.9-72.73-3.99-112.47-3.18-40.93-8.39-84.22-16.1-129.78q-6.975-41.34-16.81-85.17h7.85c6.62,27.24,13.02,57.08,18.72,89.2h.01c6.73,38.01,12.49,79.22,16.49,123.17A1434.449,1434.449,0,0,1,138.97,496.88Z" fill="#261309"/>
            </g>
            <g id="Grupo_27817" data-name="Grupo 27817">
              <path id="Trazado_56266" data-name="Trazado 56266" d="M205.725,454.787a58.254,58.254,0,0,1,5.651,2.837c11.165,6.514,58.222,31.019,96.579,6.4,43.832-28.138-58.05-46.246-20.24-54.4s47.2,3.493,85.448-16.4S377.771,356.48,361.576,356s-44.24-6.751-17.612-17.243,52.024-18.052,60.967-36.806-7.878-27.18-33.313-15.124-41.924,5.353-33.184-9.772,34.046-32.534,35.827-60.672-18.493-35.9-33.348-10.636S305.694,293.2,291.048,284.36s-19.551-62.6-36.114-60.319-22.032,32.252-9.285,75.534-13.908,41.892-22.631,33.7-29.566-32.315-36.83-17.856c-11.126,22.15,19.4,62.446,4.033,66.293s-19.631-23.131-35.772-9.276C138.719,385.944,165.481,436.8,205.725,454.787Z" fill="#063"/>
              <path id="Trazado_56267" data-name="Trazado 56267" d="M360.27,205.65c-.6,1.87-27.13,83.3-95.31,187.81-14.09,21.62-29.98,44.22-47.79,67.32q-13.785,17.88-29.15,36.1H177.47q16.485-18.63,33.19-39.66c16.91-21.35,33.89-44.6,50.71-69.92C295.65,335.73,329.26,275.6,360.27,205.65Z" fill="#261309"/>
            </g>
            <g id="Grupo_27818" data-name="Grupo 27818">
              <path id="Trazado_56268" data-name="Trazado 56268" d="M17,264.99c-.68,7.86-5.54,18.19-13.23,27.69V252.67c2.74-1.6,5.82-1.78,10,1.81C16.41,256.74,17.4,260.45,17,264.99Z" fill="#063"/>
              <path id="Trazado_56269" data-name="Trazado 56269" d="M133.26,458.59a51.874,51.874,0,0,0-2.6,14.49q-1.905-1.3-3.78-2.62A715.707,715.707,0,0,1,3.77,361.26v-8.99c47.54,52.15,92.06,84.18,123.34,102.74Q130.275,456.9,133.26,458.59Z" fill="#261309"/>
            </g>
          </g>
          <g id="Grupo_27824" data-name="Grupo 27824">
            <g id="Grupo_27820" data-name="Grupo 27820">
              <path id="Trazado_56270" data-name="Trazado 56270" d="M615.71,496.88c6.74-5.22,12.4-11.09,15.55-17.88a28.564,28.564,0,0,0,1.61-4.27c6.29-21.72-37.95-16.89-54.64-16.82s-45.3-23.91,8.82-56.06,76.96-68.04,62.17-86.16c-12.51-15.32-54.49,18.3-81.29,26.09h-.01a37.271,37.271,0,0,1-7.69,1.5s-.01.01-.01,0a18.742,18.742,0,0,1-5.2-.27c-23.38-4.9,14.79-87.96,23.56-127.97s-19.35-51.39-44.23-20.9-15.49,72.43-20.9,96.24-28.65,14.95-43.24-21.62-39.81-43.97-48.45-16.26,10.17,59.66,27.47,95.77-17.35,15.81-34.38.86c-14.61-12.81-53.78-25.53-51.85,6.95.32,5.39,1.78,12.03,4.66,20.12,2.19,6.13,4.38,11.57,6.6,16.44,18.25,40.28,37.67,42.18,65.29,81.77,28.56,40.91-72.49-22.69-74.16,22.47H615.71Z" fill="#063"/>
              <path id="Trazado_56271" data-name="Trazado 56271" d="M484.57,496.88h-9.36c28.91-182.05,82.51-297.95,83.65-300.4a1776.871,1776.871,0,0,0-53.75,189.85v.01c-.86,3.8-1.68,7.59-2.5,11.37Q491.57,449.025,484.57,496.88Z" fill="#261309"/>
            </g>
            <g id="Grupo_27821" data-name="Grupo 27821">
              <path id="Trazado_56272" data-name="Trazado 56272" d="M263.07,474.5c3.31,6.96,6.77,14.72,10.29,22.38H231.23c-4.83-7.71-8.48-16.41-9.12-26.49a50.114,50.114,0,0,1,.04-7.17v-.01c1.84-22.1,19.8-26.43,33.31-3.46C257.87,463.85,260.42,468.92,263.07,474.5Z" fill="#063"/>
              <path id="Trazado_56273" data-name="Trazado 56273" d="M356.45,496.88H325.33c1.14-2.89,2.31-5.62,3.55-8.05,3.5-6.92,7.48-11.49,12.56-10.79C348.95,479.07,354.17,485.8,356.45,496.88Z" fill="#063"/>
              <path id="Trazado_56274" data-name="Trazado 56274" d="M240.87,470.29q6.135,13.545,12.41,26.59h-2.84c-4.84-11.44-8.37-20.57-10.72-26.93-2.34-6.34-3.51-9.92-3.63-10.3Q238.475,465.005,240.87,470.29Z" fill="#261309"/>
            </g>
            <g id="Grupo_27822" data-name="Grupo 27822">
              <path id="Trazado_56275" data-name="Trazado 56275" d="M608.5,496.88c-3.2-9.82-7.01-21.53-2.87-29.78,4.99-9.92,18.79,5.21,25.63,11.9.39.38.76.74,1.1,1.06,6.33,5.94,25.67,6.95,16.42-24.46s-5.28-53.16,6.74-54.82,15.58,37.36,26.21,43.78,25.41-38.72,36.19-57.05,25.5-12.7,24.2,7.72-19.66,33.05-26,44.03,5.63,15.84,24.09,7.09,30.66-2.63,24.17,10.98-24.92,19.1-44.25,26.71,1.03,12.17,12.79,12.51a22.967,22.967,0,0,1,3.15.33H608.5Z" fill="#063"/>
              <path id="Trazado_56276" data-name="Trazado 56276" d="M731.97,387.44c-.46,1.42-15.37,47.08-52.43,109.44h-5A905.276,905.276,0,0,0,731.97,387.44Z" fill="#261309"/>
            </g>
            <g id="Grupo_27823" data-name="Grupo 27823">
              <path id="Trazado_56277" data-name="Trazado 56277" d="M597.586,298.52a26.6,26.6,0,0,1,2.63,1.322c5.2,3.032,27.109,14.441,44.967,2.979,20.409-13.1-27.028-21.53-9.424-25.328s21.974,1.627,39.785-7.634,2.145-17.108-5.4-17.334-20.6-3.144-8.2-8.024,24.222-8.408,28.386-17.139-3.668-12.653-15.51-7.044-19.52,2.5-15.449-4.545,15.849-15.151,16.68-28.252-8.611-16.713-15.527-4.951-16.4,40.72-23.217,36.6-9.1-29.142-16.814-28.082-10.258,15.016-4.324,35.167-6.475,19.505-10.536,15.692-13.765-15.046-17.148-8.313c-5.178,10.312,9.035,29.073,1.879,30.865s-9.14-10.771-16.656-4.32C566.388,266.467,578.849,290.146,597.586,298.52Z" fill="#063"/>
              <path id="Trazado_56278" data-name="Trazado 56278" d="M497.053,391.124c38.761-22.086,115.183-79.331,172.493-208.614,0,0-41.293,128.756-170.819,217.909A33.509,33.509,0,0,0,497.053,391.124Z" fill="#261309"/>
            </g>
          </g>
          <g id="Grupo_27829" data-name="Grupo 27829">
            <g id="Grupo_27825" data-name="Grupo 27825">
              <path id="Trazado_56279" data-name="Trazado 56279" d="M1841.04,367.34a28.576,28.576,0,0,1-1.61,4.27,34.45,34.45,0,0,1-3.09,5.33c-4.45,6.36-11.04,11.86-18.33,16.77-4.41,2.98-9.09,5.75-13.69,8.36-5.95,3.38-11.78,6.51-16.79,9.52v.01c-11.05,6.65-18.08,12.74-13.53,19.74a16.415,16.415,0,0,0,4.53,4.69c6.31,4.31,14.8,3.32,22.44,3.51,9.01.24,16.82,2.14,18.45,16.4a2.449,2.449,0,0,1,.02.27c.03.23.05.45.06.68.98,18.08-28.82,35.07-65.46,39.99a155.173,155.173,0,0,1-41.8,0c-4.07-.57-8.12-1.32-12.11-2.27-2.23-.52-4.45-1.1-6.64-1.76h-.01q-2.37-.69-4.69-1.49c-2.43-.83-4.88-1.6-7.37-2.22-.37-.09-.74-.18-1.11-.26-2.23-.5-5.32-1.26-9.05-2.32a191.449,191.449,0,0,1-37.67-15.14,153.179,153.179,0,0,1-15.2-9.3c-2.09-1.46-4.17-2.99-6.21-4.59h-.01a110.232,110.232,0,0,1-25.04-27.13,93.422,93.422,0,0,1-11.74-27c-18.17-70.57,103.3,7.99,72.33-36.39-13.33-19.1-24.74-29.43-35.04-39.53a162.368,162.368,0,0,1-14.24-15.44c-7.9-9.97-15.29-22.7-22.61-43.24-20.28-56.81,30.16-42,47.18-27.06,6.72,5.89,16.18,12.63,24.11,16.39,12.11,5.76,20.65,4.63,10.46-16.86-.05-.13-.12-.26-.18-.39-6.28-13.12-12.77-25.69-18.06-37.71a182.614,182.614,0,0,1-7.65-20.03c-4.12-13.45-5.47-26.13-1.76-38.03,8.64-27.72,33.86-20.32,48.45,16.26s37.83,45.44,43.24,21.62c3.21-14.14,1.21-34.67,4.26-55.4h55.41c-6.21,20.15-15.03,44.4-20.52,64.83-6.15,22.89-8.12,40.99,2.42,43.2a18.744,18.744,0,0,0,5.2.27,37.354,37.354,0,0,0,7.7-1.5c26.81-7.79,68.8-41.41,81.3-26.09,13.79,16.9-5.14,49.23-51.63,79.59q-5.055,3.315-10.54,6.57a110.38,110.38,0,0,0-19.37,14.12l-.01.01c-10.31,9.74-13.08,18.31-11.78,25.12v.01c1.34,6.96,6.93,12.08,13.05,14.74a25.707,25.707,0,0,0,2.92,1.07,21.879,21.879,0,0,0,6.37.99c2.44-.01,5.47-.12,8.85-.24C1814.95,349.6,1846.41,348.79,1841.04,367.34Z" fill="#063"/>
              <path id="Trazado_56280" data-name="Trazado 56280" d="M1754.31,127.59q-12.03,37.71-21.86,73.94h-.01q-10.785,39.615-19.16,77.41v.01q-1.29,5.715-2.5,11.37-3.81,17.7-7.11,34.97a1476.052,1476.052,0,0,0-22.25,163.85q-.3,3.885-.57,7.74h-10.48q.42-5.19.89-10.32,2.52-27.63,5.9-53.77,2.8-21.93,6.13-42.75c3.93-24.81,8.32-48.39,12.97-70.62,9.33-44.6,19.73-83.78,29.62-116.59,9.36-31.06,18.27-56.42,25.39-75.24Z" fill="#261309"/>
            </g>
            <g id="Grupo_27826" data-name="Grupo 27826">
              <path id="Trazado_56281" data-name="Trazado 56281" d="M1620.79,476.02v.01c-.35,6.74-2.27,13.97-4.4,20.85H1469.3c4.18-2.88,3.32-6.76-8.73-11.51-26.62-10.49-52.02-18.05-60.96-36.81-7.17-15.02,2.2-23.42,19.28-19.97a56.636,56.636,0,0,1,9.74,2.98q2.1.84,4.29,1.87c12.08,5.72,22.14,7.22,28.44,5.59,6.97-1.8,9.33-7.42,4.74-15.36-5.42-9.38-17.19-19.63-25.79-32.76-.52-.8-1.03-1.61-1.52-2.43-4.53-7.46-7.9-15.85-8.51-25.49a50.886,50.886,0,0,1-.02-6.29,32.574,32.574,0,0,1,2.05-9.96c5.39-13.71,19.94-13.73,31.32,5.62,14.85,25.26,35.22,87.45,49.86,78.61s19.55-62.6,36.12-60.32a13.612,13.612,0,0,1,5.95,2.31c10.52,7.26,13.75,30.16,6.32,61.91v.01c-.25,1.07-.51,2.15-.79,3.24q-.99,3.945-2.2,8.06c-7.27,24.69-1.72,34.85,6.01,37.49a16.59,16.59,0,0,0,10.95-.4v-.01a16.587,16.587,0,0,0,5.67-3.37c2.45-2.31,5.86-5.86,9.66-9.47l.01-.01c1.82-1.73,3.72-3.47,5.65-5.08,5.35-4.48,10.91-8.03,15.33-7.8h.01c2.5.11,4.64,1.45,6.17,4.5a.355.355,0,0,1,.04.09A27.629,27.629,0,0,1,1620.79,476.02Z" fill="#063"/>
              <path id="Trazado_56282" data-name="Trazado 56282" d="M1490.16,445.68q14.52,26.775,29.45,51.2h-6.74c-10.9-18.64-20.34-36.13-28.44-52.05-11.48-22.62-20.25-42.08-26.62-57.25-2.2-5.24-4.11-9.97-5.75-14.14-3.88-9.85-6.23-16.56-7.24-19.51v-.01c-.32-.96-.51-1.52-.55-1.66.27.6.54,1.21.81,1.81q3.9,8.79,7.88,17.37,3.615,7.86,7.29,15.54Q1474.905,417.67,1490.16,445.68Z" fill="#261309"/>
            </g>
            <g id="Grupo_27827" data-name="Grupo 27827">
              <path id="Trazado_56283" data-name="Trazado 56283" d="M1923.47,315.69V284.92c-10.47,20.33-23.78,58.16-33.57,52.25-10.63-6.42-14.18-45.44-26.21-43.78s-15.99,23.41-6.74,54.82-10.09,30.4-16.42,24.46c-.34-.32-.71-.68-1.1-1.06-6.84-6.7-20.64-21.83-25.63-11.9-2.95,5.87-1.86,13.5.16,20.96,1.24,4.56,2.82,9.05,4.05,13.04,2.26,7.34,3.31,12.96-1.28,14.11-5.39,1.35-8.9-2.53-12.41-5.75-3.75-3.46-7.5-6.18-13.55-.98-2.64,2.26-3.63,5.97-3.24,10.5v.01c.46,5.28,2.8,11.66,6.62,18.17a78.178,78.178,0,0,0,6.82,9.77,79.846,79.846,0,0,0,18.47,16.67,65.311,65.311,0,0,0,8.54,4.64c1.22.54,2.42,1.12,3.58,1.77.18.09.35.19.52.29,1.01.59,2.43,1.38,4.19,2.29,12.34,6.32,41.55,17.99,65.9,2.35,31.81-20.42-42.12-33.56-14.69-39.47,16.41-3.54,25.44-1.94,35.99-3.17V385.84c-3.62-1.7-4.74-4.03,0-6.89V340.32c-1.15-1.7-1.23-4.03,0-6.84V315.69Z" fill="#063"/>
              <path id="Trazado_56284" data-name="Trazado 56284" d="M1923.47,315.69c-29.14,59.14-60.7,107.53-91.91,146.93-.89,1.13-1.78,2.24-2.67,3.35q-10.35,12.915-20.62,24.54l-.01.01q-2.835,3.225-5.68,6.36h7.85q7.065-8.205,13.7-16.36l.02-.02c1.38-1.7,2.76-3.41,4.12-5.1,0-.01,0-.02.01-.02q4.08-5.115,7.99-10.18a741.206,741.206,0,0,0,87.2-143.88Z" fill="#261309"/>
            </g>
            <g id="Grupo_27828" data-name="Grupo 27828">
              <path id="Trazado_56285" data-name="Trazado 56285" d="M1796.11,127.59c-3.47,10.52,9.29,27.8,2.43,29.52-7.16,1.78-9.14-10.77-16.66-4.32-4.46,3.83-1.58,14.11,5.59,23.45a49.085,49.085,0,0,0,18.29,14.89c.77.35,1.54.71,2.29,1.13.11.06.23.12.34.19.65.38,1.56.89,2.69,1.47,7.92,4.06,26.64,11.54,42.27,1.51,20.41-13.1-27.03-21.53-9.42-25.33s21.97,1.63,39.78-7.63,2.15-17.11-5.39-17.34-20.6-3.14-8.2-8.02c7.99-3.16,15.75-5.74,21.37-9.52h-65.58c.17,6.15-2.53,8.59-5.54,9a8.432,8.432,0,0,1-6.56-2.04c-1.74-1.63-4.5-4.6-7.36-6.96Z" fill="#063"/>
              <path id="Trazado_56286" data-name="Trazado 56286" d="M1854.12,127.59a485.851,485.851,0,0,1-43.04,66.33,478.815,478.815,0,0,1-34.99,40.47,456.648,456.648,0,0,1-65.31,55.93c-1.28.91-2.58,1.81-3.88,2.71a33.62,33.62,0,0,0-1.68-9.3q3.8-2.16,8.06-4.78v-.01a337.349,337.349,0,0,0,55.11-43.05,421,421,0,0,0,39.66-43.63,504.1,504.1,0,0,0,43.33-64.67Z" fill="#261309"/>
            </g>
          </g>
        </g>
      </g>
    </g>
  </g>
</svg>
